SplineFontDB: 3.0
FontName: KAN-BadamiBoldItalic
FullName: KAN Badami Bold Italic
FamilyName: KAN Badami
Weight: Bold
Copyright: Copyright (c) 2009-2015, NLCI (http://www.nlci.in/fonts/)
Version: 1.0 Sat Apr 29 14:56:47 1995
ItalicAngle: 12
UnderlinePosition: -290
UnderlineWidth: 20
Ascent: 800
Descent: 200
InvalidEm: 0
LayerCount: 2
Layer: 0 0 "Back" 1
Layer: 1 0 "Fore" 0
XUID: [1021 973 2083775245 8696693]
FSType: 0
OS2Version: 0
OS2_WeightWidthSlopeOnly: 0
OS2_UseTypoMetrics: 1
CreationTime: 1250825678
ModificationTime: 1533324717
PfmFamily: 81
TTFWeight: 700
TTFWidth: 5
LineGap: 0
VLineGap: 0
Panose: 2 0 0 3 0 0 0 0 0 0
OS2TypoAscent: -72
OS2TypoAOffset: 1
OS2TypoDescent: -196
OS2TypoDOffset: 1
OS2TypoLinegap: 0
OS2WinAscent: -115
OS2WinAOffset: 1
OS2WinDescent: -157
OS2WinDOffset: 1
HheadAscent: -115
HheadAOffset: 1
HheadDescent: 157
HheadDOffset: 1
OS2SubXSize: 700
OS2SubYSize: 650
OS2SubXOff: 0
OS2SubYOff: 143
OS2SupXSize: 700
OS2SupYSize: 650
OS2SupXOff: 0
OS2SupYOff: 453
OS2StrikeYSize: 50
OS2StrikeYPos: 259
OS2Vendor: 'Alts'
OS2UnicodeRanges: 00000000.00000000.00000000.00000000
Lookup: 262 0 0 "blwm" { "blwm-2sub"  } []
MarkAttachClasses: 1
DEI: 91125
TtTable: prep
NPUSHB
 1
 1
SCANTYPE
PUSHW_1
 511
SCANCTRL
EndTTInstrs
ShortTable: maxp 16
  1
  0
  319
  163
  6
  204
  8
  2
  8
  64
  10
  0
  3
  417
  4
  2
EndShort
LangName: 1033 "" "" "Bold Italic" "NLCI:KAN Badami Bold Italic" "" "1.0 Sat Apr 29 14:56:47 1995"
Encoding: Original
UnicodeInterp: none
NameList: Adobe Glyph List
DisplaySize: -48
AntiAlias: 1
FitToEm: 1
BeginPrivate: 0
EndPrivate
AnchorClass2: "Sub" "blwm-2sub" "Nukta"""  "s"""  "V""" 
BeginChars: 614 614

StartChar: .notdef
Encoding: 0 -1 0
Width: 500
Flags: HW
LayerCount: 2
Fore
SplineSet
31 0 m 1
 31 627 l 1
 469 627 l 1
 469 0 l 1
 31 0 l 1
438 31 m 1
 438 596 l 1
 62 596 l 1
 62 31 l 1
 438 31 l 1
EndSplineSet
EndChar

StartChar: exclam
Encoding: 4 33 4
Width: 244
VWidth: 500
Flags: HW
LayerCount: 2
Fore
SplineSet
154 205 m 0
 150.666992188 203 146.666992188 200.666992188 142 198 c 0
 137.333007812 195.333007812 132.5 193 127.5 191 c 0
 122.5 189 117.5 187.166992188 112.5 185.5 c 0
 105 183 105 183 99 181 c 0
 87 191 l 0
 109 642 l 0
 116.333007812 646 125.833007812 650.833007812 137.5 656.5 c 0
 149.166992188 662.166992188 161.333007812 668 174 674 c 0
 186.666992188 680 198.833007812 685.5 210.5 690.5 c 0
 222.166992188 695.5 231 699 237 701 c 0
 259 684 l 0
 154 205 l 0
182 84 m 0
 182 72.6669921875 180 61.1669921875 176 49.5 c 0
 172 37.8330078125 166 27.1669921875 158 17.5 c 0
 150 7.8330078125 139.833007812 0 127.5 -6 c 0
 115.166992188 -12 101 -15 85 -15 c 0
 62.3330078125 -15 45.8330078125 -9.6669921875 35.5 1 c 0
 25.1669921875 11.6669921875 20 25.6669921875 20 43 c 0
 20 53.6669921875 22.3330078125 64.6669921875 27 76 c 0
 31.6669921875 87.3330078125 38.1669921875 97.8330078125 46.5 107.5 c 0
 54.8330078125 117.166992188 65 125 77 131 c 0
 89 137 102.666992188 140 118 140 c 0
 140 140 156.166992188 134.666992188 166.5 124 c 0
 176.833007812 113.333007812 182 100 182 84 c 0
EndSplineSet
EndChar

StartChar: quotedbl
Encoding: 5 34 5
Width: 450
VWidth: 500
Flags: HW
LayerCount: 2
Fore
SplineSet
357 415 m 0
 354.333007812 413.666992188 350.666992188 412.333007812 346 411 c 0
 341.333007812 409.666992188 336.333007812 408.5 331 407.5 c 0
 325.666992188 406.5 320.333007812 405.666992188 315 405 c 0
 309.666992188 404.333007812 305.333007812 404 302 404 c 0
 293 655 l 0
 295.666992188 656.333007812 300.166992188 658.333007812 306.5 661 c 0
 312.833007812 663.666992188 320.166992188 666.5 328.5 669.5 c 0
 336.833007812 672.5 345.5 675.5 354.5 678.5 c 0
 363.5 681.5 372.166992188 684.333007812 380.5 687 c 0
 388.833007812 689.666992188 396.166992188 692 402.5 694 c 0
 408.833007812 696 413 697.333007812 415 698 c 0
 438 683 l 0
 357 415 l 0
167 415 m 0
 164.333007812 413.666992188 160.5 412.333007812 155.5 411 c 0
 150.5 409.666992188 145.333007812 408.5 140 407.5 c 0
 134.666992188 406.5 129.5 405.666992188 124.5 405 c 0
 119.5 404.333007812 115 404 111 404 c 0
 103 655 l 0
 105.666992188 656.333007812 110.166992188 658.333007812 116.5 661 c 0
 122.833007812 663.666992188 130 666.5 138 669.5 c 0
 146 672.5 154.666992188 675.5 164 678.5 c 0
 173.333007812 681.5 182.166992188 684.333007812 190.5 687 c 0
 198.833007812 689.666992188 206 692 212 694 c 0
 218 696 222.333007812 697.333007812 225 698 c 0
 248 683 l 0
 167 415 l 0
EndSplineSet
EndChar

StartChar: numbersign
Encoding: 6 35 6
Width: 472
VWidth: 500
Flags: HW
LayerCount: 2
Fore
SplineSet
203 298 m 0
 280 298 l 0
 323 403 l 0
 246 403 l 0
 203 298 l 0
422 479 m 0
 492 479 l 0
 502 467 l 0
 500.666992188 463.666992188 498.666992188 458.833007812 496 452.5 c 0
 493.333007812 446.166992188 490.333007812 439.833007812 487 433.5 c 0
 483.666992188 427.166992188 480.5 421.166992188 477.5 415.5 c 0
 474.5 409.833007812 472 405.666992188 470 403 c 0
 391 403 l 0
 349 298 l 0
 419 298 l 0
 427 285 l 0
 426.333007812 281.666992188 424.666992188 277 422 271 c 0
 419.333007812 265 416.333007812 258.833007812 413 252.5 c 0
 409.666992188 246.166992188 406.5 240.333007812 403.5 235 c 0
 400.5 229.666992188 398.333007812 225.333007812 397 222 c 0
 318 222 l 0
 262 83 l 0
 259.333007812 81 255.333007812 79 250 77 c 0
 244.666992188 75 239 73.1669921875 233 71.5 c 0
 224 69 224 69 215 66.5 c 0
 209 64.8330078125 204 63.3330078125 200 62 c 0
 189 72 l 0
 250 222 l 0
 173 222 l 0
 117 83 l 0
 114.333007812 81 110.166992188 79 104.5 77 c 0
 98.8330078125 75 93 73 87 71 c 0
 70 66 l 0
 64 64.6669921875 59 63.3330078125 55 62 c 0
 44 72 l 0
 105 222 l 0
 27 222 l 0
 18 234 l 0
 19.3330078125 237.333007812 21.3330078125 241.833007812 24 247.5 c 0
 26.6669921875 253.166992188 29.6669921875 259.166992188 33 265.5 c 0
 36.3330078125 271.833007812 39.5 278 42.5 284 c 0
 45.5 290 48 294.666992188 50 298 c 0
 135 298 l 0
 178 403 l 0
 101 403 l 0
 91 415 l 0
 91.6669921875 418.333007812 93.6669921875 423 97 429 c 0
 100.333007812 435 103.5 441.166992188 106.5 447.5 c 0
 109.5 453.833007812 112.666992188 459.833007812 116 465.5 c 0
 119.333007812 471.166992188 121.666992188 475.666992188 123 479 c 0
 208 479 l 0
 261 611 l 0
 264.333007812 613.666992188 268.833007812 615.833007812 274.5 617.5 c 0
 280.166992188 619.166992188 286 620.666992188 292 622 c 0
 309 626 l 0
 314.333007812 627.333007812 318.666992188 629 322 631 c 0
 333 620 l 0
 276 479 l 0
 353 479 l 0
 406 611 l 0
 409.333007812 613.666992188 413.833007812 615.833007812 419.5 617.5 c 0
 428 620 428 620 436.5 622.5 c 0
 442.166992188 624.166992188 447.833007812 625.5 453.5 626.5 c 0
 459.166992188 627.5 463.666992188 629 467 631 c 0
 479 620 l 0
 422 479 l 0
EndSplineSet
EndChar

StartChar: dollar
Encoding: 7 36 7
Width: 472
VWidth: 500
Flags: HW
LayerCount: 2
Fore
SplineSet
460 559 m 0
 461.333007812 558.333007812 461.333007812 555 460 549 c 0
 458.666992188 543 456.333007812 535.833007812 453 527.5 c 0
 449.666992188 519.166992188 446 510.166992188 442 500.5 c 0
 438 490.833007812 433.666992188 481.666992188 429 473 c 0
 424.333007812 464.333007812 420.166992188 457 416.5 451 c 0
 412.833007812 445 410 441.333007812 408 440 c 0
 375 445 l 0
 373 455 370 464.5 366 473.5 c 0
 362 482.5 357 490.833007812 351 498.5 c 0
 345 506.166992188 337.833007812 513 329.5 519 c 0
 321.166992188 525 311.666992188 529.666992188 301 533 c 0
 277 362 l 0
 300.333007812 352.666992188 321.333007812 342.833007812 340 332.5 c 0
 358.666992188 322.166992188 374.666992188 310.833007812 388 298.5 c 0
 401.333007812 286.166992188 411.5 272.333007812 418.5 257 c 0
 425.5 241.666992188 429 224 429 204 c 0
 429 178.666992188 425 154.333007812 417 131 c 0
 409 107.666992188 396.5 86.5 379.5 67.5 c 0
 362.5 48.5 341.166992188 32.1669921875 315.5 18.5 c 0
 289.833007812 4.8330078125 259.666992188 -4.6669921875 225 -10 c 0
 217 -62 l 0
 211 -66.6669921875 203.333007812 -71.5 194 -76.5 c 0
 184.666992188 -81.5 176 -85 168 -87 c 0
 153 -72 l 0
 161 -15 l 0
 157 -15 l 0
 141 -15 123.666992188 -12.3330078125 105 -7 c 0
 86.3330078125 -1.6669921875 69 5 53 13 c 0
 37 21 23.6669921875 29.8330078125 13 39.5 c 0
 2.3330078125 49.1669921875 -3 58.3330078125 -3 67 c 0
 -3 70.3330078125 -1.8330078125 75.6669921875 0.5 83 c 0
 2.8330078125 90.3330078125 5.8330078125 98.3330078125 9.5 107 c 0
 13.1669921875 115.666992188 17.3330078125 124.333007812 22 133 c 0
 26.6669921875 141.666992188 31.5 149.5 36.5 156.5 c 0
 41.5 163.5 46.3330078125 169.333007812 51 174 c 0
 55.6669921875 178.666992188 59.6669921875 181 63 181 c 0
 65.6669921875 181 68.6669921875 178.666992188 72 174 c 0
 75.3330078125 169.333007812 79 163.166992188 83 155.5 c 0
 87 147.833007812 91.5 139.5 96.5 130.5 c 0
 101.5 121.5 107.666992188 112.5 115 103.5 c 0
 122.333007812 94.5 130.666992188 86.3330078125 140 79 c 0
 149.333007812 71.6669921875 160 66.3330078125 172 63 c 0
 202 276 l 0
 199.333007812 277.333007812 196.333007812 278.5 193 279.5 c 0
 189.666992188 280.5 186.333007812 282 183 284 c 0
 162.333007812 292 143.833007812 300.333007812 127.5 309 c 0
 111.166992188 317.666992188 97.3330078125 327.666992188 86 339 c 0
 74.6669921875 350.333007812 65.8330078125 363.166992188 59.5 377.5 c 0
 53.1669921875 391.833007812 50 408.333007812 50 427 c 0
 50 445 53.6669921875 463.166992188 61 481.5 c 0
 68.3330078125 499.833007812 79.8330078125 516.833007812 95.5 532.5 c 0
 111.166992188 548.166992188 131.5 561.666992188 156.5 573 c 0
 181.5 584.333007812 212 592.333007812 248 597 c 0
 256 653 l 0
 264.666992188 658.333007812 272.666992188 663.833007812 280 669.5 c 0
 287.333007812 675.166992188 295.333007812 679.333007812 304 682 c 0
 319 666 l 0
 310 601 l 0
 312 601 l 0
 326 601 340 599.833007812 354 597.5 c 0
 368 595.166992188 381.5 592 394.5 588 c 0
 407.5 584 419.5 579.5 430.5 574.5 c 0
 441.5 569.5 451.333007812 564.333007812 460 559 c 0
319 167 m 0
 319 183.666992188 314.5 198.5 305.5 211.5 c 0
 296.5 224.5 281.666992188 237 261 249 c 0
 234 61 l 0
 262 65.6669921875 283.166992188 77 297.5 95 c 0
 311.833007812 113 319 137 319 167 c 0
161 464 m 0
 161 456 161.833007812 448.666992188 163.5 442 c 0
 165.166992188 435.333007812 168 429 172 423 c 0
 176 417 181.666992188 411 189 405 c 0
 196.333007812 399 206 393 218 387 c 0
 239 537 l 0
 227 535 216.333007812 531.833007812 207 527.5 c 0
 197.666992188 523.166992188 189.5 517.666992188 182.5 511 c 0
 175.5 504.333007812 170.166992188 497 166.5 489 c 0
 162.833007812 481 161 472.666992188 161 464 c 0
EndSplineSet
EndChar

StartChar: percent
Encoding: 8 37 8
Width: 688
VWidth: 500
Flags: HW
LayerCount: 2
Fore
SplineSet
348 486 m 0
 348 460 343.833007812 434.333007812 335.5 409 c 0
 327.166992188 383.666992188 315.166992188 360.666992188 299.5 340 c 0
 283.833007812 319.333007812 264.166992188 302.666992188 240.5 290 c 0
 216.833007812 277.333007812 189.666992188 271 159 271 c 0
 141 271 124.166992188 274.333007812 108.5 281 c 0
 92.8330078125 287.666992188 79.5 296.5 68.5 307.5 c 0
 57.5 318.5 49 331.166992188 43 345.5 c 0
 37 359.833007812 34 375 34 391 c 0
 34 417 38.1669921875 442.666992188 46.5 468 c 0
 54.8330078125 493.333007812 67.3330078125 516.166992188 84 536.5 c 0
 100.666992188 556.833007812 121 573.333007812 145 586 c 0
 169 598.666992188 196.666992188 605 228 605 c 0
 244.666992188 605 260.333007812 602.166992188 275 596.5 c 0
 289.666992188 590.833007812 302.333007812 583 313 573 c 0
 323.666992188 563 332.166992188 550.666992188 338.5 536 c 0
 344.833007812 521.333007812 348 504.666992188 348 486 c 0
246 495 m 0
 246 509 245.166992188 520.666992188 243.5 530 c 0
 241.833007812 539.333007812 239.333007812 547 236 553 c 0
 232.666992188 559 228.833007812 563.166992188 224.5 565.5 c 0
 220.166992188 567.833007812 215.666992188 569 211 569 c 0
 201 569 192.333007812 565.5 185 558.5 c 0
 177.666992188 551.5 171.5 542.333007812 166.5 531 c 0
 161.5 519.666992188 157.166992188 507 153.5 493 c 0
 149.833007812 479 147 465 145 451 c 0
 143 437 141.666992188 423.666992188 141 411 c 0
 140.333007812 398.333007812 140 387.666992188 140 379 c 0
 140 353.666992188 142.666992188 335.333007812 148 324 c 0
 153.333007812 312.666992188 163 307 177 307 c 0
 189 307 199.166992188 313.333007812 207.5 326 c 0
 215.833007812 338.666992188 223 354.333007812 229 373 c 0
 235 391.666992188 239.333007812 412 242 434 c 0
 244.666992188 456 246 476.333007812 246 495 c 0
133 1 m 0
 129 -1 123.833007812 -2.6669921875 117.5 -4 c 0
 111.166992188 -5.3330078125 104.5 -6.6669921875 97.5 -8 c 0
 90.5 -9.3330078125 83.6669921875 -10.5 77 -11.5 c 0
 70.3330078125 -12.5 65 -13.6669921875 61 -15 c 0
 52 0 l 0
 555 587 l 0
 558.333007812 588.333007812 563.166992188 589.833007812 569.5 591.5 c 0
 575.833007812 593.166992188 582.666992188 594.666992188 590 596 c 0
 597.333007812 597.333007812 604.166992188 598.666992188 610.5 600 c 0
 616.833007812 601.333007812 621.666992188 602.333007812 625 603 c 0
 635 589 l 0
 133 1 l 0
653 199 m 0
 653 173 649 147.333007812 641 122 c 0
 633 96.6669921875 621.166992188 73.6669921875 605.5 53 c 0
 589.833007812 32.3330078125 570.166992188 15.6669921875 546.5 3 c 0
 522.833007812 -9.6669921875 495.333007812 -16 464 -16 c 0
 446 -16 429.333007812 -12.6669921875 414 -6 c 0
 398.666992188 0.6669921875 385.5 9.5 374.5 20.5 c 0
 363.5 31.5 354.833007812 44.3330078125 348.5 59 c 0
 342.166992188 73.6669921875 339 88.6669921875 339 104 c 0
 339 130 343.333007812 155.833007812 352 181.5 c 0
 360.666992188 207.166992188 373.333007812 230 390 250 c 0
 406.666992188 270 427 286.333007812 451 299 c 0
 475 311.666992188 502.666992188 318 534 318 c 0
 550.666992188 318 566.333007812 315.333007812 581 310 c 0
 595.666992188 304.666992188 608.333007812 296.833007812 619 286.5 c 0
 629.666992188 276.166992188 638 263.666992188 644 249 c 0
 650 234.333007812 653 217.666992188 653 199 c 0
552 208 m 0
 552 222 551 233.666992188 549 243 c 0
 547 252.333007812 544.5 260 541.5 266 c 0
 538.5 272 534.833007812 276.333007812 530.5 279 c 0
 526.166992188 281.666992188 521.666992188 283 517 283 c 0
 507 283 498.333007812 279.333007812 491 272 c 0
 483.666992188 264.666992188 477.333007812 255.5 472 244.5 c 0
 466.666992188 233.5 462.333007812 220.833007812 459 206.5 c 0
 455.666992188 192.166992188 453 178 451 164 c 0
 449 150 447.5 136.666992188 446.5 124 c 0
 445.5 111.333007812 445 101 445 93 c 0
 445 67.6669921875 447.833007812 49.3330078125 453.5 38 c 0
 459.166992188 26.6669921875 468.666992188 21 482 21 c 0
 494 21 504.333007812 27.1669921875 513 39.5 c 0
 521.666992188 51.8330078125 528.833007812 67.5 534.5 86.5 c 0
 540.166992188 105.5 544.5 125.833007812 547.5 147.5 c 0
 550.5 169.166992188 552 189.333007812 552 208 c 0
EndSplineSet
EndChar

StartChar: ampersand
Encoding: 9 38 9
Width: 647
VWidth: 500
Flags: HW
LayerCount: 2
Fore
SplineSet
291 552 m 0
 289 536 288.833007812 519.166992188 290.5 501.5 c 0
 292.166992188 483.833007812 295.333007812 466 300 448 c 0
 313.333007812 456 324.833007812 465.166992188 334.5 475.5 c 0
 344.166992188 485.833007812 352.333007812 496.333007812 359 507 c 0
 365.666992188 517.666992188 370.833007812 528.666992188 374.5 540 c 0
 378.166992188 551.333007812 380.666992188 562 382 572 c 0
 383.333007812 583.333007812 383.333007812 593.333007812 382 602 c 0
 380.666992188 610.666992188 378.333007812 617.833007812 375 623.5 c 0
 371.666992188 629.166992188 367.333007812 633.5 362 636.5 c 0
 356.666992188 639.5 351.333007812 641 346 641 c 0
 338.666992188 641 332 638.666992188 326 634 c 0
 320 629.333007812 314.666992188 623.166992188 310 615.5 c 0
 305.333007812 607.833007812 301.5 598.5 298.5 587.5 c 0
 295.5 576.5 293 564.666992188 291 552 c 0
257 61 m 0
 271.666992188 61 286.333007812 63.1669921875 301 67.5 c 0
 315.666992188 71.8330078125 330 78 344 86 c 0
 320.666992188 114 297.333007812 145.833007812 274 181.5 c 0
 250.666992188 217.166992188 230.333007812 254.666992188 213 294 c 0
 199 276 188.5 258 181.5 240 c 0
 174.5 222 169.666992188 202.666992188 167 182 c 0
 163.666992188 159.333007812 164.166992188 140.333007812 168.5 125 c 0
 172.833007812 109.666992188 179.5 97.1669921875 188.5 87.5 c 0
 197.5 77.8330078125 208 71 220 67 c 0
 232 63 244.333007812 61 257 61 c 0
684 365 m 0
 679.333007812 360.333007812 674.333007812 354.666992188 669 348 c 0
 663.666992188 341.333007812 658.166992188 334.666992188 652.5 328 c 0
 646.833007812 321.333007812 641.166992188 315.333007812 635.5 310 c 0
 629.833007812 304.666992188 625 300.333007812 621 297 c 0
 610.333007812 302.333007812 599.333007812 307.666992188 588 313 c 0
 576.666992188 318.333007812 565.666992188 321.333007812 555 322 c 0
 560.333007812 313.333007812 563.166992188 304.166992188 563.5 294.5 c 0
 563.833007812 284.833007812 563.333007812 275 562 265 c 0
 559.333007812 243.666992188 551.833007812 221.166992188 539.5 197.5 c 0
 527.166992188 173.833007812 511.333007812 150.666992188 492 128 c 0
 496.666992188 123.333007812 501 118.666992188 505 114 c 0
 509 109.333007812 513.333007812 105 518 101 c 0
 532.666992188 85.6669921875 548.666992188 76.1669921875 566 72.5 c 0
 583.333007812 68.8330078125 599.333007812 68.6669921875 614 72 c 0
 617 32 l 0
 603 26 588 20 572 14 c 0
 556 8 540.666992188 3 526 -1 c 0
 511.333007812 -5 498.5 -8.3330078125 487.5 -11 c 0
 476.5 -13.6669921875 469.333007812 -15 466 -15 c 0
 458 -15 447.333007812 -10.3330078125 434 -1 c 0
 420.666992188 8.3330078125 405.333007812 21.3330078125 388 38 c 0
 362 22 334.333007812 9.1669921875 305 -0.5 c 0
 275.666992188 -10.1669921875 245.666992188 -15 215 -15 c 0
 148.333007812 -15 99.3330078125 0.8330078125 68 32.5 c 0
 36.6669921875 64.1669921875 25 110.666992188 33 172 c 0
 37 205.333007812 51.1669921875 238.833007812 75.5 272.5 c 0
 99.8330078125 306.166992188 136 340.333007812 184 375 c 0
 177.333007812 400.333007812 172.666992188 425.5 170 450.5 c 0
 167.333007812 475.5 167.333007812 500 170 524 c 0
 173.333007812 550.666992188 181.666992188 575.166992188 195 597.5 c 0
 208.333007812 619.833007812 224.5 639.166992188 243.5 655.5 c 0
 262.5 671.833007812 284.166992188 684.666992188 308.5 694 c 0
 332.833007812 703.333007812 358 708 384 708 c 0
 408 708 428.333007812 704.666992188 445 698 c 0
 461.666992188 691.333007812 475 682.5 485 671.5 c 0
 495 660.5 501.666992188 647.666992188 505 633 c 0
 508.333007812 618.333007812 509 603.333007812 507 588 c 0
 505 571.333007812 498.166992188 553.833007812 486.5 535.5 c 0
 474.833007812 517.166992188 460.666992188 499.5 444 482.5 c 0
 427.333007812 465.5 409 449.166992188 389 433.5 c 0
 369 417.833007812 349.333007812 404 330 392 c 0
 322 386 l 0
 336.666992188 350 355 314.833007812 377 280.5 c 0
 399 246.166992188 421.666992188 214 445 184 c 0
 451 194.666992188 456 205 460 215 c 0
 464 225 466.666992188 235 468 245 c 0
 470 259 469.833007812 271.166992188 467.5 281.5 c 0
 465.166992188 291.833007812 461.333007812 300.5 456 307.5 c 0
 450.666992188 314.5 444.166992188 320 436.5 324 c 0
 428.833007812 328 420.666992188 330 412 330 c 0
 400 348 l 0
 409 357 l 0
 413 361 417.333007812 365 422 369 c 0
 426.666992188 373 431.333007812 376.833007812 436 380.5 c 0
 440.666992188 384.166992188 444.666992188 386.666992188 448 388 c 0
 672 388 l 0
 684 365 l 0
EndSplineSet
EndChar

StartChar: quotesingle
Encoding: 10 39 10
Width: 244
VWidth: 500
Flags: HW
LayerCount: 2
Fore
SplineSet
167 415 m 0
 164.333007812 413.666992188 160.5 412.333007812 155.5 411 c 0
 150.5 409.666992188 145.333007812 408.5 140 407.5 c 0
 134.666992188 406.5 129.5 405.666992188 124.5 405 c 0
 119.5 404.333007812 115 404 111 404 c 0
 103 655 l 0
 105.666992188 656.333007812 110.166992188 658.333007812 116.5 661 c 0
 122.833007812 663.666992188 130 666.5 138 669.5 c 0
 146 672.5 154.666992188 675.5 164 678.5 c 0
 173.333007812 681.5 182.166992188 684.333007812 190.5 687 c 0
 198.833007812 689.666992188 206 692 212 694 c 0
 218 696 222.333007812 697.333007812 225 698 c 0
 248 683 l 0
 167 415 l 0
EndSplineSet
EndChar

StartChar: parenleft
Encoding: 11 40 11
Width: 312
VWidth: 500
Flags: HW
LayerCount: 2
Fore
SplineSet
372 742 m 0
 350.666992188 723.333007812 330.333007812 701.333007812 311 676 c 0
 291.666992188 650.666992188 274 621.333007812 258 588 c 0
 242 554.666992188 227.833007812 516.833007812 215.5 474.5 c 0
 203.166992188 432.166992188 193.666992188 385 187 333 c 0
 180.333007812 285.666992188 176.166992188 240.666992188 174.5 198 c 0
 172.833007812 155.333007812 174.5 115.166992188 179.5 77.5 c 0
 184.5 39.8330078125 192.833007812 5.1669921875 204.5 -26.5 c 0
 216.166992188 -58.1669921875 232 -86.6669921875 252 -112 c 0
 219 -154 l 0
 186.333007812 -133.333007812 157.666992188 -106.833007812 133 -74.5 c 0
 108.333007812 -42.1669921875 88.6669921875 -5.5 74 35.5 c 0
 59.3330078125 76.5 49.8330078125 120.833007812 45.5 168.5 c 0
 41.1669921875 216.166992188 42.6669921875 266 50 318 c 0
 57.3330078125 371.333007812 69.8330078125 422 87.5 470 c 0
 105.166992188 518 127 561.833007812 153 601.5 c 0
 179 641.166992188 208.666992188 676.5 242 707.5 c 0
 275.333007812 738.5 311.666992188 763.666992188 351 783 c 0
 372 742 l 0
EndSplineSet
EndChar

StartChar: parenright
Encoding: 12 41 12
Width: 312
VWidth: 500
Flags: HW
LayerCount: 2
Fore
SplineSet
273 312 m 0
 265.666992188 258.666992188 253 208 235 160 c 0
 217 112 195 68 169 28 c 0
 143 -12 113.333007812 -47.5 80 -78.5 c 0
 46.6669921875 -109.5 10.6669921875 -134.666992188 -28 -154 c 0
 -49 -112 l 0
 -27.6669921875 -93.3330078125 -7.3330078125 -71.5 12 -46.5 c 0
 31.3330078125 -21.5 49 7.8330078125 65 41.5 c 0
 81 75.1669921875 95 113 107 155 c 0
 119 197 128.666992188 244 136 296 c 0
 142.666992188 343.333007812 146.833007812 388.5 148.5 431.5 c 0
 150.166992188 474.5 148.5 514.666992188 143.5 552 c 0
 138.5 589.333007812 130.166992188 623.833007812 118.5 655.5 c 0
 106.833007812 687.166992188 91 716 71 742 c 0
 104 783 l 0
 136.666992188 762.333007812 165.333007812 735.833007812 190 703.5 c 0
 214.666992188 671.166992188 234.333007812 634.666992188 249 594 c 0
 263.666992188 553.333007812 273.166992188 509.166992188 277.5 461.5 c 0
 281.833007812 413.833007812 280.333007812 364 273 312 c 0
EndSplineSet
EndChar

StartChar: asterisk
Encoding: 13 42 13
Width: 364
VWidth: 500
Flags: HW
LayerCount: 2
Fore
SplineSet
221 601 m 0
 325 688 l 0
 327.666992188 686 331.833007812 682.333007812 337.5 677 c 0
 343.166992188 671.666992188 349.166992188 666 355.5 660 c 0
 361.833007812 654 367.5 648.166992188 372.5 642.5 c 0
 377.5 636.833007812 381 632.666992188 383 630 c 0
 374 601 l 0
 241 555 l 0
 352 513 l 0
 351.333007812 509 349.833007812 502.666992188 347.5 494 c 0
 345.166992188 485.333007812 342.5 476.333007812 339.5 467 c 0
 336.5 457.666992188 333.833007812 448.666992188 331.5 440 c 0
 329.166992188 431.333007812 327.333007812 425.333007812 326 422 c 0
 298 413 l 0
 210 507 l 0
 218 378 l 0
 214.666992188 376 208.833007812 373.5 200.5 370.5 c 0
 192.166992188 367.5 183.666992188 364.166992188 175 360.5 c 0
 166.333007812 356.833007812 157.833007812 353.666992188 149.5 351 c 0
 141.166992188 348.333007812 135.333007812 346.333007812 132 345 c 0
 114 365 l 0
 160 506 l 0
 56 419 l 0
 53.3330078125 421 49.1669921875 424.666992188 43.5 430 c 0
 37.8330078125 435.333007812 31.8330078125 441 25.5 447 c 0
 19.1669921875 453 13.3330078125 458.833007812 8 464.5 c 0
 2.6669921875 470.166992188 -1 474.333007812 -3 477 c 0
 7 506 l 0
 141 553 l 0
 29 594 l 0
 29.6669921875 598 31.3330078125 604.333007812 34 613 c 0
 36.6669921875 621.666992188 39.1669921875 630.833007812 41.5 640.5 c 0
 43.8330078125 650.166992188 46.3330078125 659.166992188 49 667.5 c 0
 51.6669921875 675.833007812 54 682 56 686 c 0
 83 695 l 0
 170 600 l 0
 164 729 l 0
 167.333007812 731 173 733.666992188 181 737 c 0
 189 740.333007812 197.5 743.666992188 206.5 747 c 0
 215.5 750.333007812 223.833007812 753.5 231.5 756.5 c 0
 239.166992188 759.5 245 761.333007812 249 762 c 0
 267 742 l 0
 221 601 l 0
EndSplineSet
EndChar

StartChar: plus
Encoding: 14 43 14
Width: 407
VWidth: 500
Flags: HW
LayerCount: 2
Fore
SplineSet
383 296 m 0
 381.666992188 292.666992188 379.666992188 288.166992188 377 282.5 c 0
 374.333007812 276.833007812 371.333007812 271 368 265 c 0
 364.666992188 259 361.5 253.5 358.5 248.5 c 0
 355.5 243.5 353.666992188 239.666992188 353 237 c 0
 238 237 l 0
 221 108 l 0
 218.333007812 106.666992188 214.5 105 209.5 103 c 0
 204.5 101 199.333007812 99 194 97 c 0
 188.666992188 95 183.333007812 93.1669921875 178 91.5 c 0
 172.666992188 89.8330078125 168.333007812 88.6669921875 165 88 c 0
 152 104 l 0
 170 237 l 0
 40 237 l 0
 27 253 l 0
 28.3330078125 256.333007812 30.3330078125 260.833007812 33 266.5 c 0
 35.6669921875 272.166992188 38.5 277.833007812 41.5 283.5 c 0
 44.5 289.166992188 47.5 294.666992188 50.5 300 c 0
 53.5 305.333007812 55.6669921875 309.333007812 57 312 c 0
 181 312 l 0
 199 442 l 0
 201.666992188 442.666992188 205.5 444 210.5 446 c 0
 215.5 448 220.666992188 450 226 452 c 0
 231.333007812 454 236.666992188 455.833007812 242 457.5 c 0
 247.333007812 459.166992188 251.333007812 460.333007812 254 461 c 0
 267 445 l 0
 249 312 l 0
 370 312 l 0
 383 296 l 0
EndSplineSet
EndChar

StartChar: comma
Encoding: 15 44 15
Width: 244
VWidth: 500
Flags: HW
LayerCount: 2
Fore
SplineSet
195 60 m 0
 195 45.3330078125 192.333007812 29.6669921875 187 13 c 0
 181.666992188 -3.6669921875 174.666992188 -20.3330078125 166 -37 c 0
 157.333007812 -53.6669921875 147.333007812 -69.6669921875 136 -85 c 0
 124.666992188 -100.333007812 112.833007812 -115 100.5 -129 c 0
 88.1669921875 -143 75.5 -155.5 62.5 -166.5 c 0
 49.5 -177.5 37.3330078125 -186.333007812 26 -193 c 0
 -5 -166 l 0
 7.6669921875 -152.666992188 18.6669921875 -139.166992188 28 -125.5 c 0
 37.3330078125 -111.833007812 45.1669921875 -98.5 51.5 -85.5 c 0
 57.8330078125 -72.5 62.5 -60 65.5 -48 c 0
 68.5 -36 70 -25 70 -15 c 0
 70 -9 68.8330078125 -2.8330078125 66.5 3.5 c 0
 64.1669921875 9.8330078125 60.6669921875 15.3330078125 56 20 c 0
 51.3330078125 24.6669921875 45.6669921875 28.5 39 31.5 c 0
 32.3330078125 34.5 24.3330078125 35.6669921875 15 35 c 0
 13 78 l 0
 17 81.3330078125 22.6669921875 84.8330078125 30 88.5 c 0
 37.3330078125 92.1669921875 45.5 96 54.5 100 c 0
 63.5 104 73.1669921875 107.833007812 83.5 111.5 c 0
 93.8330078125 115.166992188 103.666992188 118.5 113 121.5 c 0
 122.333007812 124.5 131 126.833007812 139 128.5 c 0
 147 130.166992188 153.666992188 131 159 131 c 0
 170.333007812 124.333007812 179.166992188 115.833007812 185.5 105.5 c 0
 191.833007812 95.1669921875 195 80 195 60 c 0
EndSplineSet
EndChar

StartChar: hyphen
Encoding: 16 45 16
Width: 337
VWidth: 500
Flags: HW
LayerCount: 2
Fore
SplineSet
299 192.5 m 0
 30.5 192.5 l 0
 52 301 l 0
 320.5 301 l 0
 299 192.5 l 0
EndSplineSet
Refer: 374 727 N 1 0 0 1 0 0 2
EndChar

StartChar: period
Encoding: 17 46 17
Width: 244
VWidth: 500
Flags: HW
LayerCount: 2
Fore
SplineSet
182 84 m 0
 182 72.6669921875 180 61.1669921875 176 49.5 c 0
 172 37.8330078125 166 27.1669921875 158 17.5 c 0
 150 7.8330078125 139.833007812 0 127.5 -6 c 0
 115.166992188 -12 101 -15 85 -15 c 0
 62.3330078125 -15 45.8330078125 -9.6669921875 35.5 1 c 0
 25.1669921875 11.6669921875 20 25.6669921875 20 43 c 0
 20 53.6669921875 22.3330078125 64.6669921875 27 76 c 0
 31.6669921875 87.3330078125 38.1669921875 97.8330078125 46.5 107.5 c 0
 54.8330078125 117.166992188 65 125 77 131 c 0
 89 137 102.666992188 140 118 140 c 0
 140 140 156.166992188 134.666992188 166.5 124 c 0
 176.833007812 113.333007812 182 100 182 84 c 0
EndSplineSet
EndChar

StartChar: slash
Encoding: 18 47 18
Width: 444
VWidth: 500
Flags: HW
LayerCount: 2
Fore
SplineSet
59 -129 m 0
 55.6669921875 -131 49.6669921875 -133.833007812 41 -137.5 c 0
 32.3330078125 -141.166992188 23 -144.666992188 13 -148 c 0
 -2 -153 -2 -153 -15.5 -157.5 c 0
 -29 -162 -29 -162 -35 -164 c 0
 -54 -147 l 0
 383 747 l 0
 387 749.666992188 393.333007812 752.833007812 402 756.5 c 0
 410.666992188 760.166992188 419.5 763.5 428.5 766.5 c 0
 437.5 769.5 446.333007812 772.333007812 455 775 c 0
 463.666992188 777.666992188 470.333007812 779.666992188 475 781 c 0
 495 765 l 0
 59 -129 l 0
EndSplineSet
EndChar

StartChar: zero
Encoding: 19 48 19
Width: 472
VWidth: 500
Flags: HW
LayerCount: 2
Fore
SplineSet
453 383 m 0
 453 357 451.833007812 332.333007812 449.5 309 c 0
 447.166992188 285.666992188 443.5 263.166992188 438.5 241.5 c 0
 433.5 219.833007812 426.666992188 198.5 418 177.5 c 0
 409.333007812 156.5 398.666992188 135.666992188 386 115 c 0
 375.333007812 97 363 80.1669921875 349 64.5 c 0
 335 48.8330078125 319.5 35 302.5 23 c 0
 285.5 11 267 1.6669921875 247 -5 c 0
 227 -11.6669921875 205.666992188 -15 183 -15 c 0
 157.666992188 -15 134.666992188 -9 114 3 c 0
 93.3330078125 15 75.5 31.3330078125 60.5 52 c 0
 45.5 72.6669921875 33.8330078125 96.3330078125 25.5 123 c 0
 17.1669921875 149.666992188 13 177.333007812 13 206 c 0
 13 234 14.1669921875 259.333007812 16.5 282 c 0
 18.8330078125 304.666992188 22.6669921875 326.166992188 28 346.5 c 0
 33.3330078125 366.833007812 40 387 48 407 c 0
 56 427 65.6669921875 447.666992188 77 469 c 0
 87 487.666992188 99.1669921875 505.166992188 113.5 521.5 c 0
 127.833007812 537.833007812 143.833007812 552 161.5 564 c 0
 179.166992188 576 198.333007812 585.5 219 592.5 c 0
 239.666992188 599.5 261.666992188 603 285 603 c 0
 307.666992188 603 329.166992188 598 349.5 588 c 0
 369.833007812 578 387.666992188 563.5 403 544.5 c 0
 418.333007812 525.5 430.5 502.333007812 439.5 475 c 0
 448.5 447.666992188 453 417 453 383 c 0
322 398 m 0
 322 424 320.5 445.833007812 317.5 463.5 c 0
 314.5 481.166992188 310.166992188 495.333007812 304.5 506 c 0
 298.833007812 516.666992188 292.166992188 524.5 284.5 529.5 c 0
 276.833007812 534.5 268.666992188 537 260 537 c 0
 243.333007812 537 228.833007812 530.5 216.5 517.5 c 0
 204.166992188 504.5 193.666992188 487.5 185 466.5 c 0
 176.333007812 445.5 169.333007812 421.833007812 164 395.5 c 0
 158.666992188 369.166992188 154.5 343 151.5 317 c 0
 148.5 291 146.5 266.333007812 145.5 243 c 0
 144.5 219.666992188 144 200.666992188 144 186 c 0
 144 138.666992188 149 104.5 159 83.5 c 0
 169 62.5 185.666992188 52 209 52 c 0
 223 52 235.5 57.3330078125 246.5 68 c 0
 257.5 78.6669921875 267.166992188 93 275.5 111 c 0
 283.833007812 129 291 149.833007812 297 173.5 c 0
 303 197.166992188 307.833007812 221.833007812 311.5 247.5 c 0
 315.166992188 273.166992188 317.833007812 299 319.5 325 c 0
 321.166992188 351 322 375.333007812 322 398 c 0
EndSplineSet
EndChar

StartChar: one
Encoding: 20 49 20
Width: 472
VWidth: 500
Flags: HW
LayerCount: 2
Fore
SplineSet
394 0 m 0
 35 0 l 0
 41 45 l 0
 65.6669921875 47.6669921875 86 51 102 55 c 0
 118 59 131 63 141 67 c 0
 151 71 158.166992188 74.8330078125 162.5 78.5 c 0
 166.833007812 82.1669921875 169.333007812 85.6669921875 170 89 c 0
 218 439 l 0
 219.333007812 452.333007812 220.166992188 462.5 220.5 469.5 c 0
 220.833007812 476.5 219.333007812 482.333007812 216 487 c 0
 214.666992188 489 211.666992188 490.666992188 207 492 c 0
 202.333007812 493.333007812 195.5 493.833007812 186.5 493.5 c 0
 177.5 493.166992188 166 492 152 490 c 0
 138 488 120.666992188 484.666992188 100 480 c 0
 93 525 l 0
 101.666992188 526.333007812 112.833007812 529 126.5 533 c 0
 140.166992188 537 154.833007812 541.5 170.5 546.5 c 0
 186.166992188 551.5 202.5 557 219.5 563 c 0
 236.5 569 252.666992188 574.666992188 268 580 c 0
 283.333007812 585.333007812 297.5 590.5 310.5 595.5 c 0
 323.5 600.5 334 604.666992188 342 608 c 0
 360 586 l 0
 292 89 l 0
 291.333007812 85.6669921875 292.5 82.1669921875 295.5 78.5 c 0
 298.5 74.8330078125 304 71.1669921875 312 67.5 c 0
 320 63.8330078125 331 60 345 56 c 0
 359 52 377 48.3330078125 399 45 c 0
 394 0 l 0
EndSplineSet
EndChar

StartChar: two
Encoding: 21 50 21
Width: 472
VWidth: 500
Flags: HW
LayerCount: 2
Fore
SplineSet
450 501 m 0
 450 487 448.166992188 473.166992188 444.5 459.5 c 0
 440.833007812 445.833007812 434.666992188 430.833007812 426 414.5 c 0
 417.333007812 398.166992188 405.5 379.833007812 390.5 359.5 c 0
 375.5 339.166992188 356.5 316.166992188 333.5 290.5 c 0
 310.5 264.833007812 283 235.833007812 251 203.5 c 0
 219 171.166992188 182 134.333007812 140 93 c 0
 313 93 l 0
 318.333007812 93 323.333007812 94.5 328 97.5 c 0
 332.666992188 100.5 336.833007812 104.333007812 340.5 109 c 0
 344.166992188 113.666992188 347.5 119 350.5 125 c 0
 353.5 131 356.333007812 137.333007812 359 144 c 0
 365 158.666992188 369.666992188 175.666992188 373 195 c 0
 414 184 l 0
 381 0 l 0
 3 0 l 0
 -5 36 l 0
 53 94.6669921875 102.333007812 146.833007812 143 192.5 c 0
 183.666992188 238.166992188 216.833007812 278.666992188 242.5 314 c 0
 268.166992188 349.333007812 286.833007812 380.166992188 298.5 406.5 c 0
 310.166992188 432.833007812 316 456.333007812 316 477 c 0
 316 500.333007812 311.666992188 517 303 527 c 0
 294.333007812 537 281 542 263 542 c 0
 251 542 241 539.166992188 233 533.5 c 0
 225 527.833007812 218.5 520.5 213.5 511.5 c 0
 208.5 502.5 205.166992188 492.333007812 203.5 481 c 0
 201.833007812 469.666992188 201.333007812 458 202 446 c 0
 196.666992188 443.333007812 188.833007812 440.166992188 178.5 436.5 c 0
 168.166992188 432.833007812 157.166992188 429.333007812 145.5 426 c 0
 133.833007812 422.666992188 122.666992188 419.833007812 112 417.5 c 0
 101.333007812 415.166992188 92.3330078125 413.666992188 85 413 c 0
 73 452 l 0
 75 468.666992188 82.6669921875 486 96 504 c 0
 109.333007812 522 126.333007812 538.333007812 147 553 c 0
 167.666992188 567.666992188 191.5 579.666992188 218.5 589 c 0
 245.5 598.333007812 274 603 304 603 c 0
 322.666992188 603 340.833007812 601.333007812 358.5 598 c 0
 376.166992188 594.666992188 391.666992188 589 405 581 c 0
 418.333007812 573 429.166992188 562.5 437.5 549.5 c 0
 445.833007812 536.5 450 520.333007812 450 501 c 0
EndSplineSet
EndChar

StartChar: three
Encoding: 22 51 22
Width: 472
VWidth: 500
Flags: HW
LayerCount: 2
Fore
SplineSet
426 489 m 0
 426 471.666992188 423.166992188 455.333007812 417.5 440 c 0
 411.833007812 424.666992188 404 410.666992188 394 398 c 0
 384 385.333007812 372.166992188 374.333007812 358.5 365 c 0
 344.833007812 355.666992188 330 347.666992188 314 341 c 0
 331.333007812 339 346.333007812 334 359 326 c 0
 371.666992188 318 382.166992188 308 390.5 296 c 0
 398.833007812 284 405 270.5 409 255.5 c 0
 413 240.5 415 225 415 209 c 0
 415 178.333007812 408.333007812 149.5 395 122.5 c 0
 381.666992188 95.5 364 71.8330078125 342 51.5 c 0
 320 31.1669921875 294.166992188 15 264.5 3 c 0
 234.833007812 -9 203.666992188 -15 171 -15 c 0
 159.666992188 -15 146.5 -13 131.5 -9 c 0
 116.5 -5 101.5 0.5 86.5 7.5 c 0
 71.5 14.5 56.8330078125 23.1669921875 42.5 33.5 c 0
 28.1669921875 43.8330078125 15.3330078125 55.3330078125 4 68 c 0
 33 120 l 0
 57 97.3330078125 80.6669921875 81.6669921875 104 73 c 0
 127.333007812 64.3330078125 150.333007812 60 173 60 c 0
 187.666992188 60 201.5 63.1669921875 214.5 69.5 c 0
 227.5 75.8330078125 239 84.8330078125 249 96.5 c 0
 259 108.166992188 266.833007812 122.333007812 272.5 139 c 0
 278.166992188 155.666992188 281 174.666992188 281 196 c 0
 281 228.666992188 273.666992188 252.5 259 267.5 c 0
 244.333007812 282.5 225 290 201 290 c 0
 191 290 l 0
 188.333007812 290 185.666992188 289.833007812 183 289.5 c 0
 180.333007812 289.166992188 177.333007812 288.833007812 174 288.5 c 0
 170.666992188 288.166992188 167 287.333007812 163 286 c 0
 160 335 l 0
 250.666992188 357 295.666992188 406.333007812 295 483 c 0
 295 503.666992188 291.666992188 518.666992188 285 528 c 0
 278.333007812 537.333007812 268 542 254 542 c 0
 246 542 238.666992188 540.333007812 232 537 c 0
 225.333007812 533.666992188 219.5 528.666992188 214.5 522 c 0
 209.5 515.333007812 205.833007812 507.166992188 203.5 497.5 c 0
 201.166992188 487.833007812 200.333007812 477 201 465 c 0
 194.333007812 461 186 456.833007812 176 452.5 c 0
 166 448.166992188 155.333007812 444.166992188 144 440.5 c 0
 132.666992188 436.833007812 121.666992188 433.666992188 111 431 c 0
 100.333007812 428.333007812 91 427 83 427 c 0
 71 461 l 0
 73 475 79.8330078125 490.166992188 91.5 506.5 c 0
 103.166992188 522.833007812 118.333007812 538.166992188 137 552.5 c 0
 155.666992188 566.833007812 177.333007812 578.833007812 202 588.5 c 0
 226.666992188 598.166992188 253 603 281 603 c 0
 309 603 332.333007812 599.833007812 351 593.5 c 0
 369.666992188 587.166992188 384.666992188 578.666992188 396 568 c 0
 407.333007812 557.333007812 415.166992188 545.166992188 419.5 531.5 c 0
 423.833007812 517.833007812 426 503.666992188 426 489 c 0
EndSplineSet
EndChar

StartChar: four
Encoding: 23 52 23
Width: 472
VWidth: 500
Flags: HW
LayerCount: 2
Fore
SplineSet
125 235 m 0
 252 235 l 0
 284 469 l 0
 125 235 l 0
445 220 m 0
 441 214.666992188 436.5 209.166992188 431.5 203.5 c 0
 426.5 197.833007812 421.333007812 192.333007812 416 187 c 0
 410.666992188 181.666992188 405.666992188 176.833007812 401 172.5 c 0
 396.333007812 168.166992188 392 164.333007812 388 161 c 0
 360 161 l 0
 347 70 l 0
 347 67.3330078125 347.833007812 65 349.5 63 c 0
 351.166992188 61 354.166992188 58.8330078125 358.5 56.5 c 0
 362.833007812 54.1669921875 368.833007812 51.6669921875 376.5 49 c 0
 384.166992188 46.3330078125 394.333007812 43.6669921875 407 41 c 0
 401 0 l 0
 125 0 l 0
 130 41 l 0
 150 44.3330078125 166.5 47.5 179.5 50.5 c 0
 192.5 53.5 202.666992188 56.3330078125 210 59 c 0
 217.333007812 61.6669921875 222.5 64.3330078125 225.5 67 c 0
 228.5 69.6669921875 230 72.6669921875 230 76 c 0
 242 161 l 0
 30 161 l 0
 13 182 l 0
 282 568 l 0
 290 570.666992188 299.166992188 573.833007812 309.5 577.5 c 0
 319.833007812 581.166992188 330.333007812 584.666992188 341 588 c 0
 373 598 l 0
 383.666992188 601.333007812 392.666992188 604.666992188 400 608 c 0
 418 586 l 0
 370 235 l 0
 435 235 l 0
 445 220 l 0
EndSplineSet
EndChar

StartChar: five
Encoding: 24 53 24
Width: 472
VWidth: 500
Flags: HW
LayerCount: 2
Fore
SplineSet
463 578 m 0
 459.666992188 572 454.333007812 564.666992188 447 556 c 0
 439.666992188 547.333007812 432.166992188 538.666992188 424.5 530 c 0
 416.833007812 521.333007812 409.333007812 513.333007812 402 506 c 0
 394.666992188 498.666992188 389 493.333007812 385 490 c 0
 184 490 l 0
 182 480.666992188 179.5 470.333007812 176.5 459 c 0
 173.5 447.666992188 170.666992188 436.5 168 425.5 c 0
 165.333007812 414.5 162.5 404 159.5 394 c 0
 156.5 384 154 375.333007812 152 368 c 0
 164 374.666992188 179.333007812 380.166992188 198 384.5 c 0
 216.666992188 388.833007812 235.666992188 391 255 391 c 0
 283.666992188 391 308.5 386.333007812 329.5 377 c 0
 350.5 367.666992188 367.666992188 355.5 381 340.5 c 0
 394.333007812 325.5 404.333007812 308.666992188 411 290 c 0
 417.666992188 271.333007812 421 252.333007812 421 233 c 0
 421 213.666992188 418.666992188 194.166992188 414 174.5 c 0
 409.333007812 154.833007812 402.5 135.666992188 393.5 117 c 0
 384.5 98.3330078125 373.333007812 81 360 65 c 0
 346.666992188 49 331 35 313 23 c 0
 295 11 274.5 1.6669921875 251.5 -5 c 0
 228.5 -11.6669921875 203.666992188 -15 177 -15 c 0
 162.333007812 -15 147.166992188 -13.1669921875 131.5 -9.5 c 0
 115.833007812 -5.8330078125 100.5 -0.6669921875 85.5 6 c 0
 70.5 12.6669921875 56.1669921875 21 42.5 31 c 0
 28.8330078125 41 16.3330078125 52.3330078125 5 65 c 0
 35 113 l 0
 49.6669921875 101.666992188 63.3330078125 92.1669921875 76 84.5 c 0
 88.6669921875 76.8330078125 100.833007812 70.8330078125 112.5 66.5 c 0
 124.166992188 62.1669921875 135.333007812 59.1669921875 146 57.5 c 0
 156.666992188 55.8330078125 167.333007812 55 178 55 c 0
 193.333007812 55 208.166992188 58.8330078125 222.5 66.5 c 0
 236.833007812 74.1669921875 249.333007812 84.8330078125 260 98.5 c 0
 270.666992188 112.166992188 279.166992188 128.333007812 285.5 147 c 0
 291.833007812 165.666992188 295 185.666992188 295 207 c 0
 295 223 292.833007812 237.5 288.5 250.5 c 0
 284.166992188 263.5 278.166992188 274.5 270.5 283.5 c 0
 262.833007812 292.5 253.333007812 299.5 242 304.5 c 0
 230.666992188 309.5 218.333007812 312 205 312 c 0
 178.333007812 312 155.166992188 308 135.5 300 c 0
 115.833007812 292 97.6669921875 281.666992188 81 269 c 0
 60 285 l 0
 64 297 68.5 311.166992188 73.5 327.5 c 0
 78.5 343.833007812 83.6669921875 361.166992188 89 379.5 c 0
 94.3330078125 397.833007812 99.5 417 104.5 437 c 0
 109.5 457 114.166992188 476.166992188 118.5 494.5 c 0
 122.833007812 512.833007812 127 530.166992188 131 546.5 c 0
 135 562.833007812 138 576.666992188 140 588 c 0
 393 588 l 0
 401 588 408.333007812 588.333007812 415 589 c 0
 421.666992188 589.666992188 427.333007812 590.666992188 432 592 c 0
 437.333007812 593.333007812 442.333007812 595 447 597 c 0
 463 578 l 0
EndSplineSet
EndChar

StartChar: six
Encoding: 25 54 25
Width: 472
VWidth: 500
Flags: HW
LayerCount: 2
Fore
SplineSet
439 562 m 0
 400.333007812 555.333007812 366.666992188 544.833007812 338 530.5 c 0
 309.333007812 516.166992188 284.333007812 499.333007812 263 480 c 0
 241.666992188 460.666992188 224.166992188 438.833007812 210.5 414.5 c 0
 196.833007812 390.166992188 186 364 178 336 c 0
 198 352 217.833007812 364.333007812 237.5 373 c 0
 257.166992188 381.666992188 275.333007812 386 292 386 c 0
 314 386 334 382.166992188 352 374.5 c 0
 370 366.833007812 385.333007812 356.5 398 343.5 c 0
 410.666992188 330.5 420.5 314.833007812 427.5 296.5 c 0
 434.5 278.166992188 438 258 438 236 c 0
 438 218.666992188 435.666992188 200.166992188 431 180.5 c 0
 426.333007812 160.833007812 419.5 141.833007812 410.5 123.5 c 0
 401.5 105.166992188 390.333007812 87.5 377 70.5 c 0
 363.666992188 53.5 348.5 38.6669921875 331.5 26 c 0
 314.5 13.3330078125 295.666992188 3.3330078125 275 -4 c 0
 254.333007812 -11.3330078125 232 -15 208 -15 c 0
 183.333007812 -15 159.833007812 -10.3330078125 137.5 -1 c 0
 115.166992188 8.3330078125 95.8330078125 21.3330078125 79.5 38 c 0
 63.1669921875 54.6669921875 50.1669921875 74.6669921875 40.5 98 c 0
 30.8330078125 121.333007812 26 147.333007812 26 176 c 0
 26 211.333007812 29.8330078125 245.833007812 37.5 279.5 c 0
 45.1669921875 313.166992188 56.6669921875 345.166992188 72 375.5 c 0
 87.3330078125 405.833007812 106.5 434.166992188 129.5 460.5 c 0
 152.5 486.833007812 179 510.333007812 209 531 c 0
 239 551.666992188 272.666992188 568.833007812 310 582.5 c 0
 347.333007812 596.166992188 388.333007812 605.333007812 433 610 c 0
 439 562 l 0
247 312 m 0
 235.666992188 312 222.666992188 307.5 208 298.5 c 0
 193.333007812 289.5 178.333007812 277 163 261 c 0
 161.666992188 247.666992188 160.5 234.666992188 159.5 222 c 0
 158.5 209.333007812 158 196 158 182 c 0
 158 157.333007812 159.833007812 136.833007812 163.5 120.5 c 0
 167.166992188 104.166992188 172.166992188 90.8330078125 178.5 80.5 c 0
 184.833007812 70.1669921875 192.166992188 62.8330078125 200.5 58.5 c 0
 208.833007812 54.1669921875 218 52 228 52 c 0
 238 52 246.833007812 54.6669921875 254.5 60 c 0
 262.166992188 65.3330078125 269 72.5 275 81.5 c 0
 281 90.5 286 100.833007812 290 112.5 c 0
 294 124.166992188 297.5 136.166992188 300.5 148.5 c 0
 303.5 160.833007812 305.5 173.333007812 306.5 186 c 0
 307.5 198.666992188 308 210.333007812 308 221 c 0
 308 239.666992188 306.166992188 255 302.5 267 c 0
 298.833007812 279 294.166992188 288.333007812 288.5 295 c 0
 282.833007812 301.666992188 276.333007812 306.166992188 269 308.5 c 0
 261.666992188 310.833007812 254.333007812 312 247 312 c 0
EndSplineSet
EndChar

StartChar: seven
Encoding: 26 55 26
Width: 472
VWidth: 500
Flags: HW
LayerCount: 2
Fore
SplineSet
491 570 m 0
 472.333007812 534.666992188 453.833007812 499.333007812 435.5 464 c 0
 417.166992188 428.666992188 399.333007812 393.666992188 382 359 c 0
 364.666992188 324.333007812 348.166992188 290.666992188 332.5 258 c 0
 316.833007812 225.333007812 302.333007812 194.833007812 289 166.5 c 0
 275.666992188 138.166992188 263.5 112 252.5 88 c 0
 241.5 64 232.333007812 43.3330078125 225 26 c 0
 219 22 211 18 201 14 c 0
 191 10 180.5 6.3330078125 169.5 3 c 0
 158.5 -0.3330078125 147.666992188 -3.6669921875 137 -7 c 0
 126.333007812 -10.3330078125 117 -13 109 -15 c 0
 88 6 l 0
 110 39.3330078125 130.333007812 70.6669921875 149 100 c 0
 167.666992188 129.333007812 185.166992188 157.333007812 201.5 184 c 0
 217.833007812 210.666992188 233.333007812 236.333007812 248 261 c 0
 262.666992188 285.666992188 276.833007812 310.5 290.5 335.5 c 0
 304.166992188 360.5 317.833007812 385.666992188 331.5 411 c 0
 345.166992188 436.333007812 359.666992188 463 375 491 c 0
 168 491 l 0
 163.333007812 491 158.333007812 490.333007812 153 489 c 0
 147.666992188 487.666992188 141.833007812 484.333007812 135.5 479 c 0
 129.166992188 473.666992188 122.166992188 465.5 114.5 454.5 c 0
 106.833007812 443.5 98.3330078125 428.666992188 89 410 c 0
 56 424 l 0
 57.3330078125 428.666992188 59.1669921875 435.5 61.5 444.5 c 0
 63.8330078125 453.5 66.5 463.166992188 69.5 473.5 c 0
 72.5 483.833007812 75.5 494.666992188 78.5 506 c 0
 81.5 517.333007812 84.5 528.333007812 87.5 539 c 0
 90.5 549.666992188 93.3330078125 559.333007812 96 568 c 0
 98.6669921875 576.666992188 101 583.333007812 103 588 c 0
 478 588 l 0
 491 570 l 0
EndSplineSet
EndChar

StartChar: eight
Encoding: 27 56 27
Width: 472
VWidth: 500
Flags: HW
LayerCount: 2
Fore
SplineSet
456 489 m 0
 456 472.333007812 452.333007812 457 445 443 c 0
 437.666992188 429 428.333007812 416.166992188 417 404.5 c 0
 405.666992188 392.833007812 393 381.833007812 379 371.5 c 0
 365 361.166992188 351 352 337 344 c 0
 350.333007812 337.333007812 363 329.5 375 320.5 c 0
 387 311.5 397.666992188 301.166992188 407 289.5 c 0
 416.333007812 277.833007812 423.833007812 264.166992188 429.5 248.5 c 0
 435.166992188 232.833007812 438 214.666992188 438 194 c 0
 438 166 431.166992188 139.5 417.5 114.5 c 0
 403.833007812 89.5 386.166992188 67.3330078125 364.5 48 c 0
 342.833007812 28.6669921875 317.666992188 13.3330078125 289 2 c 0
 260.333007812 -9.3330078125 231 -15 201 -15 c 0
 169 -15 141.333007812 -11.3330078125 118 -4 c 0
 94.6669921875 3.3330078125 75.5 13.3330078125 60.5 26 c 0
 45.5 38.6669921875 34.3330078125 53.3330078125 27 70 c 0
 19.6669921875 86.6669921875 16 104 16 122 c 0
 16 142.666992188 20.3330078125 162.166992188 29 180.5 c 0
 37.6669921875 198.833007812 49 215.666992188 63 231 c 0
 77 246.333007812 93 260.333007812 111 273 c 0
 129 285.666992188 147.666992188 297 167 307 c 0
 155.666992188 313 144.833007812 319.666992188 134.5 327 c 0
 124.166992188 334.333007812 115.166992188 343 107.5 353 c 0
 99.8330078125 363 93.8330078125 374.5 89.5 387.5 c 0
 85.1669921875 400.5 83 416 83 434 c 0
 83 458 88.8330078125 480.333007812 100.5 501 c 0
 112.166992188 521.666992188 127.833007812 539.5 147.5 554.5 c 0
 167.166992188 569.5 190.166992188 581.333007812 216.5 590 c 0
 242.833007812 598.666992188 270.666992188 603 300 603 c 0
 327.333007812 603 350.833007812 600.166992188 370.5 594.5 c 0
 390.166992188 588.833007812 406.333007812 581 419 571 c 0
 431.666992188 561 441 549 447 535 c 0
 453 521 456 505.666992188 456 489 c 0
304 167 m 0
 304 182.333007812 301.833007812 195.833007812 297.5 207.5 c 0
 293.166992188 219.166992188 287.166992188 229.333007812 279.5 238 c 0
 271.833007812 246.666992188 262.833007812 254.333007812 252.5 261 c 0
 242.166992188 267.666992188 231.666992188 274 221 280 c 0
 211 270 201.666992188 259.5 193 248.5 c 0
 184.333007812 237.5 176.833007812 226 170.5 214 c 0
 164.166992188 202 159.166992188 189.333007812 155.5 176 c 0
 151.833007812 162.666992188 150 148.666992188 150 134 c 0
 150 120 152 107.666992188 156 97 c 0
 160 86.3330078125 165 77.5 171 70.5 c 0
 177 63.5 184 58.1669921875 192 54.5 c 0
 200 50.8330078125 208.333007812 49 217 49 c 0
 230.333007812 49 242.333007812 52.3330078125 253 59 c 0
 263.666992188 65.6669921875 272.666992188 74.6669921875 280 86 c 0
 287.333007812 97.3330078125 293.166992188 110 297.5 124 c 0
 301.833007812 138 304 152.333007812 304 167 c 0
204 459 m 0
 204 447.666992188 206 437.833007812 210 429.5 c 0
 214 421.166992188 219.5 413.5 226.5 406.5 c 0
 233.5 399.5 241.666992188 393.166992188 251 387.5 c 0
 260.333007812 381.833007812 270.333007812 376.333007812 281 371 c 0
 293.666992188 384.333007812 304.833007812 399.333007812 314.5 416 c 0
 324.166992188 432.666992188 329 452.666992188 329 476 c 0
 329 497.333007812 324 513.666992188 314 525 c 0
 304 536.333007812 289.666992188 542 271 542 c 0
 261.666992188 542 253 539.666992188 245 535 c 0
 237 530.333007812 229.833007812 524 223.5 516 c 0
 217.166992188 508 212.333007812 499 209 489 c 0
 205.666992188 479 204 469 204 459 c 0
EndSplineSet
EndChar

StartChar: nine
Encoding: 28 57 28
Width: 472
VWidth: 500
Flags: HW
LayerCount: 2
Fore
SplineSet
460 421 m 0
 460 365.666992188 451.333007812 312.833007812 434 262.5 c 0
 416.666992188 212.166992188 390.833007812 167.166992188 356.5 127.5 c 0
 322.166992188 87.8330078125 279.333007812 55 228 29 c 0
 176.666992188 3 117 -13.6669921875 49 -21 c 0
 42 27 l 0
 81.3330078125 36.3330078125 116 47.8330078125 146 61.5 c 0
 176 75.1669921875 201.666992188 91.1669921875 223 109.5 c 0
 244.333007812 127.833007812 262 149 276 173 c 0
 290 197 301 224.333007812 309 255 c 0
 292.333007812 239.666992188 273.666992188 227 253 217 c 0
 232.333007812 207 210 202 186 202 c 0
 161.333007812 202 140.333007812 206.333007812 123 215 c 0
 105.666992188 223.666992188 91.3330078125 235 80 249 c 0
 68.6669921875 263 60.5 279 55.5 297 c 0
 50.5 315 48 334 48 354 c 0
 48 384 54.1669921875 413.833007812 66.5 443.5 c 0
 78.8330078125 473.166992188 95.6669921875 499.833007812 117 523.5 c 0
 138.333007812 547.166992188 163.666992188 566.333007812 193 581 c 0
 222.333007812 595.666992188 254 603 288 603 c 0
 314.666992188 603 338.5 599.333007812 359.5 592 c 0
 380.5 584.666992188 398.5 573.5 413.5 558.5 c 0
 428.5 543.5 440 524.5 448 501.5 c 0
 456 478.5 460 451.666992188 460 421 c 0
231 281 m 0
 247.666992188 281 263.666992188 285.5 279 294.5 c 0
 294.333007812 303.5 308.333007812 315 321 329 c 0
 323.666992188 356.333007812 325.333007812 386 326 418 c 0
 326 442 324.5 461.666992188 321.5 477 c 0
 318.5 492.333007812 314.5 504.5 309.5 513.5 c 0
 304.5 522.5 298.333007812 528.666992188 291 532 c 0
 283.666992188 535.333007812 275.666992188 537 267 537 c 0
 249.666992188 537 235.333007812 532 224 522 c 0
 212.666992188 512 203.5 499.166992188 196.5 483.5 c 0
 189.5 467.833007812 184.5 450.5 181.5 431.5 c 0
 178.5 412.5 177 394 177 376 c 0
 177 358.666992188 178.666992188 343.833007812 182 331.5 c 0
 185.333007812 319.166992188 189.666992188 309.333007812 195 302 c 0
 200.333007812 294.666992188 206 289.333007812 212 286 c 0
 218 282.666992188 224.333007812 281 231 281 c 0
EndSplineSet
EndChar

StartChar: colon
Encoding: 29 58 29
Width: 244
VWidth: 500
Flags: HW
LayerCount: 2
Fore
SplineSet
182 84 m 0
 182 72.6669921875 180 61.1669921875 176 49.5 c 0
 172 37.8330078125 166 27.1669921875 158 17.5 c 0
 150 7.8330078125 139.833007812 0 127.5 -6 c 0
 115.166992188 -12 101 -15 85 -15 c 0
 62.3330078125 -15 45.8330078125 -9.6669921875 35.5 1 c 0
 25.1669921875 11.6669921875 20 25.6669921875 20 43 c 0
 20 53.6669921875 22.3330078125 64.6669921875 27 76 c 0
 31.6669921875 87.3330078125 38.1669921875 97.8330078125 46.5 107.5 c 0
 54.8330078125 117.166992188 65 125 77 131 c 0
 89 137 102.666992188 140 118 140 c 0
 140 140 156.166992188 134.666992188 166.5 124 c 0
 176.833007812 113.333007812 182 100 182 84 c 0
228 414 m 0
 228 402.666992188 225.833007812 391 221.5 379 c 0
 217.166992188 367 211 356.333007812 203 347 c 0
 195 337.666992188 185 329.833007812 173 323.5 c 0
 161 317.166992188 147 314 131 314 c 0
 108.333007812 314 91.6669921875 319.5 81 330.5 c 0
 70.3330078125 341.5 65 355.666992188 65 373 c 0
 65 383.666992188 67.3330078125 394.666992188 72 406 c 0
 76.6669921875 417.333007812 83.1669921875 427.666992188 91.5 437 c 0
 99.8330078125 446.333007812 110 454 122 460 c 0
 134 466 147.666992188 469 163 469 c 0
 185 469 201.333007812 463.833007812 212 453.5 c 0
 222.666992188 443.166992188 228 430 228 414 c 0
EndSplineSet
EndChar

StartChar: semicolon
Encoding: 30 59 30
Width: 244
VWidth: 500
Flags: HW
LayerCount: 2
Fore
SplineSet
195 60 m 0
 195 45.3330078125 192.333007812 29.6669921875 187 13 c 0
 181.666992188 -3.6669921875 174.666992188 -20.3330078125 166 -37 c 0
 157.333007812 -53.6669921875 147.333007812 -69.6669921875 136 -85 c 0
 124.666992188 -100.333007812 112.833007812 -115 100.5 -129 c 0
 88.1669921875 -143 75.5 -155.5 62.5 -166.5 c 0
 49.5 -177.5 37.3330078125 -186.333007812 26 -193 c 0
 -5 -166 l 0
 7.6669921875 -152.666992188 18.6669921875 -139.166992188 28 -125.5 c 0
 37.3330078125 -111.833007812 45.1669921875 -98.5 51.5 -85.5 c 0
 57.8330078125 -72.5 62.5 -60 65.5 -48 c 0
 68.5 -36 70 -25 70 -15 c 0
 70 -9 68.8330078125 -2.8330078125 66.5 3.5 c 0
 64.1669921875 9.8330078125 60.6669921875 15.3330078125 56 20 c 0
 51.3330078125 24.6669921875 45.6669921875 28.5 39 31.5 c 0
 32.3330078125 34.5 24.3330078125 35.6669921875 15 35 c 0
 13 78 l 0
 17 81.3330078125 22.6669921875 84.8330078125 30 88.5 c 0
 37.3330078125 92.1669921875 45.5 96 54.5 100 c 0
 63.5 104 73.1669921875 107.833007812 83.5 111.5 c 0
 93.8330078125 115.166992188 103.666992188 118.5 113 121.5 c 0
 122.333007812 124.5 131 126.833007812 139 128.5 c 0
 147 130.166992188 153.666992188 131 159 131 c 0
 170.333007812 124.333007812 179.166992188 115.833007812 185.5 105.5 c 0
 191.833007812 95.1669921875 195 80 195 60 c 0
229 414 m 0
 229 402.666992188 226.833007812 391 222.5 379 c 0
 218.166992188 367 212 356.333007812 204 347 c 0
 196 337.666992188 186 329.833007812 174 323.5 c 0
 162 317.166992188 148 314 132 314 c 0
 109.333007812 314 92.6669921875 319.5 82 330.5 c 0
 71.3330078125 341.5 66 355.666992188 66 373 c 0
 66 383.666992188 68.3330078125 394.666992188 73 406 c 0
 77.6669921875 417.333007812 84.1669921875 427.666992188 92.5 437 c 0
 100.833007812 446.333007812 111 454 123 460 c 0
 135 466 148.666992188 469 164 469 c 0
 186 469 202.333007812 463.833007812 213 453.5 c 0
 223.666992188 443.166992188 229 430 229 414 c 0
EndSplineSet
EndChar

StartChar: less
Encoding: 31 60 31
Width: 439
VWidth: 500
Flags: HW
LayerCount: 2
Fore
SplineSet
423 436 m 0
 421.666992188 432.666992188 419.833007812 427.833007812 417.5 421.5 c 0
 415.166992188 415.166992188 412.666992188 408.5 410 401.5 c 0
 407.333007812 394.5 404.833007812 388 402.5 382 c 0
 400.166992188 376 398.333007812 371.333007812 397 368 c 0
 157 278 l 0
 377 187 l 0
 386 164 l 0
 382.666992188 160.666992188 378.666992188 156.833007812 374 152.5 c 0
 369.333007812 148.166992188 364.5 143.666992188 359.5 139 c 0
 354.5 134.333007812 349.333007812 130 344 126 c 0
 338.666992188 122 333.666992188 118.333007812 329 115 c 0
 42 234 l 0
 29 256 l 0
 30.3330078125 260 32.3330078125 264.833007812 35 270.5 c 0
 37.6669921875 276.166992188 40.1669921875 282 42.5 288 c 0
 44.8330078125 294 47.1669921875 299.666992188 49.5 305 c 0
 51.8330078125 310.333007812 54 315 56 319 c 0
 410 453 l 0
 423 436 l 0
EndSplineSet
EndChar

StartChar: equal
Encoding: 32 61 32
Width: 439
VWidth: 500
Flags: HW
LayerCount: 2
Fore
SplineSet
395 223 m 0
 393.666992188 219.666992188 391.666992188 215.166992188 389 209.5 c 0
 386.333007812 203.833007812 383.333007812 198 380 192 c 0
 376.666992188 186 373.5 180.333007812 370.5 175 c 0
 367.5 169.666992188 365.333007812 166 364 164 c 0
 32 164 l 0
 20 180 l 0
 21.3330078125 183.333007812 23.1669921875 187.833007812 25.5 193.5 c 0
 27.8330078125 199.166992188 30.6669921875 204.833007812 34 210.5 c 0
 37.3330078125 216.166992188 40.3330078125 221.5 43 226.5 c 0
 45.6669921875 231.5 48 235.666992188 50 239 c 0
 382 239 l 0
 395 223 l 0
415 369 m 0
 413.666992188 365.666992188 411.666992188 361.166992188 409 355.5 c 0
 406.333007812 349.833007812 403.333007812 344.166992188 400 338.5 c 0
 396.666992188 332.833007812 393.5 327.333007812 390.5 322 c 0
 387.5 316.666992188 385.333007812 312.666992188 384 310 c 0
 52 310 l 0
 40 327 l 0
 41.3330078125 330.333007812 43.1669921875 334.666992188 45.5 340 c 0
 47.8330078125 345.333007812 50.6669921875 350.833007812 54 356.5 c 0
 57.3330078125 362.166992188 60.3330078125 367.666992188 63 373 c 0
 65.6669921875 378.333007812 68 382.666992188 70 386 c 0
 402 386 l 0
 415 369 l 0
EndSplineSet
EndChar

StartChar: greater
Encoding: 33 62 33
Width: 439
VWidth: 500
Flags: HW
LayerCount: 2
Fore
SplineSet
406 312 m 0
 404.666992188 307.333007812 402.666992188 302.166992188 400 296.5 c 0
 397.333007812 290.833007812 394.833007812 285.166992188 392.5 279.5 c 0
 389 271 389 271 385.5 262.5 c 0
 383.166992188 256.833007812 381 252.333007812 379 249 c 0
 25 115 l 0
 12 132 l 0
 12.6669921875 135.333007812 14.3330078125 140.166992188 17 146.5 c 0
 19.6669921875 152.833007812 22.3330078125 159.5 25 166.5 c 0
 27.6669921875 173.5 30.3330078125 180 33 186 c 0
 35.6669921875 192 37.6669921875 196.666992188 39 200 c 0
 278 290 l 0
 58 381 l 0
 49 404 l 0
 52.3330078125 407.333007812 56.3330078125 411.166992188 61 415.5 c 0
 65.6669921875 419.833007812 70.5 424.333007812 75.5 429 c 0
 80.5 433.666992188 85.6669921875 438 91 442 c 0
 96.3330078125 446 101.333007812 449.666992188 106 453 c 0
 393 333 l 0
 406 312 l 0
EndSplineSet
EndChar

StartChar: question
Encoding: 34 63 34
Width: 439
VWidth: 500
Flags: HW
LayerCount: 2
Fore
SplineSet
449 579 m 0
 449 551.666992188 444.166992188 527.5 434.5 506.5 c 0
 424.833007812 485.5 412.666992188 466.166992188 398 448.5 c 0
 383.333007812 430.833007812 367.333007812 414.166992188 350 398.5 c 0
 332.666992188 382.833007812 316.166992188 367.166992188 300.5 351.5 c 0
 284.833007812 335.833007812 271.333007812 319.5 260 302.5 c 0
 248.666992188 285.5 241.666992188 267 239 247 c 0
 234 205 l 0
 231.333007812 203 227.5 200.666992188 222.5 198 c 0
 217.5 195.333007812 212.333007812 193 207 191 c 0
 201.666992188 189 196.5 187 191.5 185 c 0
 186.5 183 182 181.333007812 178 180 c 0
 167 190 l 0
 169 251 l 0
 169.666992188 271 173.666992188 289.833007812 181 307.5 c 0
 188.333007812 325.166992188 197.333007812 342 208 358 c 0
 218.666992188 374 230.166992188 389.5 242.5 404.5 c 0
 254.833007812 419.5 266.166992188 434.833007812 276.5 450.5 c 0
 286.833007812 466.166992188 295.333007812 482.166992188 302 498.5 c 0
 308.666992188 514.833007812 312 532.333007812 312 551 c 0
 312 563.666992188 310.833007812 575.5 308.5 586.5 c 0
 306.166992188 597.5 302.666992188 607 298 615 c 0
 293.333007812 623 287.5 629.5 280.5 634.5 c 0
 273.5 639.5 265.333007812 642 256 642 c 0
 246 642 237.5 639.166992188 230.5 633.5 c 0
 223.5 627.833007812 217.833007812 620 213.5 610 c 0
 209.166992188 600 206.666992188 588.333007812 206 575 c 0
 205.333007812 561.666992188 206.333007812 547 209 531 c 0
 201.666992188 527.666992188 192.5 524.166992188 181.5 520.5 c 0
 170.5 516.833007812 158.833007812 513.5 146.5 510.5 c 0
 134.166992188 507.5 122.5 504.833007812 111.5 502.5 c 0
 100.5 500.166992188 91.3330078125 498.666992188 84 498 c 0
 69 518 l 0
 69 538.666992188 74.8330078125 559.666992188 86.5 581 c 0
 98.1669921875 602.333007812 114.166992188 621.666992188 134.5 639 c 0
 154.833007812 656.333007812 179.333007812 670.5 208 681.5 c 0
 236.666992188 692.5 268.333007812 698 303 698 c 0
 326.333007812 698 347 695 365 689 c 0
 383 683 398.166992188 674.5 410.5 663.5 c 0
 422.833007812 652.5 432.333007812 639.833007812 439 625.5 c 0
 445.666992188 611.166992188 449 595.666992188 449 579 c 0
265 84 m 0
 265 72.6669921875 263 61.1669921875 259 49.5 c 0
 255 37.8330078125 249 27.1669921875 241 17.5 c 0
 233 7.8330078125 222.833007812 0 210.5 -6 c 0
 198.166992188 -12 184 -15 168 -15 c 0
 145.333007812 -15 128.833007812 -9.6669921875 118.5 1 c 0
 108.166992188 11.6669921875 103 25.6669921875 103 43 c 0
 103 53.6669921875 105.333007812 64.6669921875 110 76 c 0
 114.666992188 87.3330078125 121.166992188 97.8330078125 129.5 107.5 c 0
 137.833007812 117.166992188 148 125 160 131 c 0
 172 137 185.666992188 140 201 140 c 0
 223 140 239.166992188 134.666992188 249.5 124 c 0
 259.833007812 113.333007812 265 100 265 84 c 0
EndSplineSet
EndChar

StartChar: at
Encoding: 35 64 35
Width: 844
VWidth: 500
Flags: HW
LayerCount: 2
Fore
SplineSet
810 268 m 0
 806 240 798.333007812 213.333007812 787 188 c 0
 775.666992188 162.666992188 761.833007812 139.333007812 745.5 118 c 0
 729.166992188 96.6669921875 711.5 77.5 692.5 60.5 c 0
 673.5 43.5 654.333007812 29 635 17 c 0
 615.666992188 5 597.166992188 -4.1669921875 579.5 -10.5 c 0
 561.833007812 -16.8330078125 546.666992188 -20 534 -20 c 0
 529.333007812 -20 523.666992188 -18.6669921875 517 -16 c 0
 510.333007812 -13.3330078125 503.666992188 -8.3330078125 497 -1 c 0
 490.333007812 6.3330078125 484 16.5 478 29.5 c 0
 472 42.5 467.666992188 59 465 79 c 0
 456.333007812 65.6669921875 446.5 53 435.5 41 c 0
 424.5 29 413 18.5 401 9.5 c 0
 389 0.5 376.833007812 -6.6669921875 364.5 -12 c 0
 352.166992188 -17.3330078125 340.666992188 -20 330 -20 c 0
 318.666992188 -20 306.333007812 -16.8330078125 293 -10.5 c 0
 279.666992188 -4.1669921875 267.333007812 5.6669921875 256 19 c 0
 244.666992188 32.3330078125 235.166992188 49.6669921875 227.5 71 c 0
 219.833007812 92.3330078125 216 118.333007812 216 149 c 0
 216 175 219.166992188 200.166992188 225.5 224.5 c 0
 231.833007812 248.833007812 241.333007812 272.333007812 254 295 c 0
 266.666992188 317.666992188 282 338.833007812 300 358.5 c 0
 318 378.166992188 338.333007812 395.666992188 361 411 c 0
 369.666992188 417 380.166992188 422.833007812 392.5 428.5 c 0
 404.833007812 434.166992188 417.333007812 439 430 443 c 0
 442.666992188 447 455.333007812 450.333007812 468 453 c 0
 480.666992188 455.666992188 492.333007812 457 503 457 c 0
 516.333007812 457 529.5 454 542.5 448 c 0
 555.5 442 567.666992188 436 579 430 c 0
 591 435.333007812 602.333007812 440.166992188 613 444.5 c 0
 623.666992188 448.833007812 633.333007812 453 642 457 c 0
 659 420 l 0
 653.666992188 415.333007812 649 411.333007812 645 408 c 0
 641 404.666992188 637.5 400.666992188 634.5 396 c 0
 631.5 391.333007812 629 385.5 627 378.5 c 0
 625 371.5 623 362.666992188 621 352 c 0
 616.333007812 328.666992188 612 306.333007812 608 285 c 0
 604 263.666992188 600.833007812 244.333007812 598.5 227 c 0
 596.166992188 209.666992188 594.333007812 194.5 593 181.5 c 0
 591.666992188 168.5 591 158.333007812 591 151 c 0
 591 131 593.5 115.833007812 598.5 105.5 c 0
 603.5 95.1669921875 610 90 618 90 c 0
 634.666992188 90 649.333007812 102.666992188 662 128 c 0
 674.666992188 153.333007812 685 193.666992188 693 249 c 0
 701 304.333007812 700.666992188 352.333007812 692 393 c 0
 683.333007812 433.666992188 668.166992188 467.333007812 646.5 494 c 0
 624.833007812 520.666992188 598.5 540.5 567.5 553.5 c 0
 536.5 566.5 502.666992188 573 466 573 c 0
 426.666992188 573 389.833007812 564.333007812 355.5 547 c 0
 321.166992188 529.666992188 290.666992188 506 264 476 c 0
 237.333007812 446 214.833007812 411.166992188 196.5 371.5 c 0
 178.166992188 331.833007812 166 290 160 246 c 0
 154.666992188 206.666992188 154.166992188 170.833007812 158.5 138.5 c 0
 162.833007812 106.166992188 171 77.1669921875 183 51.5 c 0
 195 25.8330078125 210.166992188 3.5 228.5 -15.5 c 0
 246.833007812 -34.5 267.166992188 -50.3330078125 289.5 -63 c 0
 311.833007812 -75.6669921875 335.5 -85.1669921875 360.5 -91.5 c 0
 385.5 -97.8330078125 410.666992188 -101 436 -101 c 0
 454 -101 471.833007812 -99.1669921875 489.5 -95.5 c 0
 507.166992188 -91.8330078125 524.5 -87.3330078125 541.5 -82 c 0
 558.5 -76.6669921875 574.666992188 -70.5 590 -63.5 c 0
 605.333007812 -56.5 619.666992188 -49.1669921875 633 -41.5 c 0
 646.333007812 -33.8330078125 658.166992188 -26.5 668.5 -19.5 c 0
 678.833007812 -12.5 687.333007812 -6.3330078125 694 -1 c 0
 712 -52 l 0
 699.333007812 -64.6669921875 682.833007812 -78.5 662.5 -93.5 c 0
 642.166992188 -108.5 618.333007812 -122.666992188 591 -136 c 0
 563.666992188 -149.333007812 533.5 -160.5 500.5 -169.5 c 0
 467.5 -178.5 432.333007812 -183 395 -183 c 0
 357 -183 321 -178.666992188 287 -170 c 0
 253 -161.333007812 221.333007812 -148.666992188 192 -132 c 0
 162.666992188 -115.333007812 136.666992188 -95.1669921875 114 -71.5 c 0
 91.3330078125 -47.8330078125 72.8330078125 -20.8330078125 58.5 9.5 c 0
 44.1669921875 39.8330078125 34.3330078125 73.3330078125 29 110 c 0
 23.6669921875 146.666992188 23.6669921875 185.666992188 29 227 c 0
 34.3330078125 263.666992188 44 299.666992188 58 335 c 0
 72 370.333007812 89.8330078125 403.5 111.5 434.5 c 0
 133.166992188 465.5 158.166992188 494.333007812 186.5 521 c 0
 214.833007812 547.666992188 245.833007812 570.666992188 279.5 590 c 0
 313.166992188 609.333007812 349.166992188 624.333007812 387.5 635 c 0
 425.833007812 645.666992188 465.666992188 651 507 651 c 0
 553.666992188 651 597.5 642.5 638.5 625.5 c 0
 679.5 608.5 714.166992188 583.666992188 742.5 551 c 0
 770.833007812 518.333007812 791.333007812 478.166992188 804 430.5 c 0
 816.666992188 382.833007812 818.666992188 328.666992188 810 268 c 0
463 163 m 0
 464.333007812 175.666992188 466.333007812 190.833007812 469 208.5 c 0
 471.666992188 226.166992188 474.5 244.166992188 477.5 262.5 c 0
 480.5 280.833007812 483.5 298.333007812 486.5 315 c 0
 489.5 331.666992188 492 346 494 358 c 0
 486.666992188 364.666992188 479 370.166992188 471 374.5 c 0
 463 378.833007812 455.333007812 381 448 381 c 0
 435.333007812 381 424 378 414 372 c 0
 404 366 395 357.833007812 387 347.5 c 0
 379 337.166992188 372.166992188 325.333007812 366.5 312 c 0
 360.833007812 298.666992188 356.166992188 284.833007812 352.5 270.5 c 0
 348.833007812 256.166992188 346 241.5 344 226.5 c 0
 342 211.5 341 197.666992188 341 185 c 0
 341 167.666992188 342.166992188 152.833007812 344.5 140.5 c 0
 346.833007812 128.166992188 349.666992188 117.833007812 353 109.5 c 0
 356.333007812 101.166992188 360 95.1669921875 364 91.5 c 0
 368 87.8330078125 371.666992188 86 375 86 c 0
 379 86 383.833007812 87.3330078125 389.5 90 c 0
 395.166992188 92.6669921875 401.666992188 96.8330078125 409 102.5 c 0
 416.333007812 108.166992188 424.5 116 433.5 126 c 0
 442.5 136 452.333007812 148.333007812 463 163 c 0
EndSplineSet
EndChar

StartChar: A
Encoding: 36 65 36
Width: 590
VWidth: 500
Flags: HW
LayerCount: 2
Fore
SplineSet
348 271 m 0
 304 490 l 0
 209 271 l 0
 348 271 l 0
181 207 m 0
 122 74 l 0
 118 64 120.666992188 56.6669921875 130 52 c 0
 139.333007812 47.3330078125 156 43.6669921875 180 41 c 0
 175 0 l 0
 -27 0 l 0
 -21 41 l 0
 0.3330078125 45 16.5 49 27.5 53 c 0
 38.5 57 46 64 50 74 c 0
 275 584 l 0
 284.333007812 591.333007812 294.333007812 598.166992188 305 604.5 c 0
 315.666992188 610.833007812 326.5 616.333007812 337.5 621 c 0
 348.5 625.666992188 359.333007812 629.833007812 370 633.5 c 0
 380.666992188 637.166992188 390.666992188 640.333007812 400 643 c 0
 513 74 l 0
 513.666992188 69.3330078125 515 65.1669921875 517 61.5 c 0
 519 57.8330078125 521.666992188 54.6669921875 525 52 c 0
 528.333007812 49.3330078125 533.166992188 47 539.5 45 c 0
 545.833007812 43 553.666992188 41.6669921875 563 41 c 0
 558 0 l 0
 321 0 l 0
 326 41 l 0
 350 42.3330078125 366.5 45.5 375.5 50.5 c 0
 384.5 55.5 388 63.3330078125 386 74 c 0
 360 207 l 0
 181 207 l 0
EndSplineSet
EndChar

StartChar: B
Encoding: 37 66 37
Width: 543
VWidth: 500
Flags: HW
LayerCount: 2
Fore
SplineSet
515 200 m 0
 515 168 508 138.833007812 494 112.5 c 0
 480 86.1669921875 460.833007812 63.6669921875 436.5 45 c 0
 412.166992188 26.3330078125 383.5 11.6669921875 350.5 1 c 0
 317.5 -9.6669921875 282.333007812 -15 245 -15 c 0
 238.333007812 -15 230 -14.8330078125 220 -14.5 c 0
 210 -14.1669921875 199.166992188 -13.6669921875 187.5 -13 c 0
 175.833007812 -12.3330078125 163.666992188 -11.5 151 -10.5 c 0
 138.333007812 -9.5 126 -8.6669921875 114 -8 c 0
 85.3330078125 -6 54.6669921875 -3.3330078125 22 0 c 0
 -5 0 l 0
 -2 41 l 0
 18.6669921875 45.6669921875 34.3330078125 50.5 45 55.5 c 0
 55.6669921875 60.5 61.3330078125 65.3330078125 62 70 c 0
 131 566 l 0
 117.666992188 564.666992188 105.666992188 563 95 561 c 0
 84.3330078125 559 74 556.666992188 64 554 c 0
 64 599 l 0
 78.6669921875 603 95.1669921875 607 113.5 611 c 0
 131.833007812 615 151.166992188 618.333007812 171.5 621 c 0
 191.833007812 623.666992188 213 625.833007812 235 627.5 c 0
 257 629.166992188 279.333007812 630 302 630 c 0
 373.333007812 630 426.166992188 619.166992188 460.5 597.5 c 0
 494.833007812 575.833007812 512 546 512 508 c 0
 512 474 501.333007812 443.333007812 480 416 c 0
 458.666992188 388.666992188 426.666992188 367.666992188 384 353 c 0
 402.666992188 351 420.166992188 345.5 436.5 336.5 c 0
 452.833007812 327.5 466.666992188 316.166992188 478 302.5 c 0
 489.333007812 288.833007812 498.333007812 273.166992188 505 255.5 c 0
 511.666992188 237.833007812 515 219.333007812 515 200 c 0
272 307 m 0
 265.333007812 307 259.666992188 306.833007812 255 306.5 c 0
 250.333007812 306.166992188 246 305.666992188 242 305 c 0
 238 304.333007812 234.5 303.666992188 231.5 303 c 0
 228.5 302.333007812 225.333007812 301.666992188 222 301 c 0
 189 70 l 0
 188.333007812 67.3330078125 191 63.6669921875 197 59 c 0
 207.666992188 53.6669921875 218.833007812 50 230.5 48 c 0
 242.166992188 46 254.333007812 45 267 45 c 0
 285.666992188 45 302 48.5 316 55.5 c 0
 330 62.5 341.833007812 72.1669921875 351.5 84.5 c 0
 361.166992188 96.8330078125 368.333007812 111.333007812 373 128 c 0
 377.666992188 144.666992188 380 163 380 183 c 0
 380 199 378.333007812 214.5 375 229.5 c 0
 371.666992188 244.5 365.833007812 257.833007812 357.5 269.5 c 0
 349.166992188 281.166992188 338 290.333007812 324 297 c 0
 310 303.666992188 292.666992188 307 272 307 c 0
260 574 m 0
 230 364 l 0
 247 364 l 0
 262.333007812 364 277.666992188 366.166992188 293 370.5 c 0
 308.333007812 374.833007812 322.333007812 381.833007812 335 391.5 c 0
 347.666992188 401.166992188 357.833007812 413.5 365.5 428.5 c 0
 373.166992188 443.5 377 461.333007812 377 482 c 0
 377 499.333007812 374 513.833007812 368 525.5 c 0
 362 537.166992188 354.333007812 546.666992188 345 554 c 0
 335.666992188 561.333007812 325 566.5 313 569.5 c 0
 301 572.5 289.666992188 574 279 574 c 0
 260 574 l 0
EndSplineSet
EndChar

StartChar: C
Encoding: 38 67 38
Width: 515
VWidth: 500
Flags: HW
LayerCount: 2
Fore
SplineSet
535 581 m 0
 535.666992188 580.333007812 535 577.166992188 533 571.5 c 0
 531 565.833007812 528 559 524 551 c 0
 520 543 515.5 534.333007812 510.5 525 c 0
 505.5 515.666992188 500.333007812 506.833007812 495 498.5 c 0
 489.666992188 490.166992188 484.833007812 482.666992188 480.5 476 c 0
 476.166992188 469.333007812 472.333007812 464.666992188 469 462 c 0
 435 471 l 0
 431.666992188 482.333007812 427 493.5 421 504.5 c 0
 415 515.5 407.833007812 525.166992188 399.5 533.5 c 0
 391.166992188 541.833007812 381.666992188 548.5 371 553.5 c 0
 360.333007812 558.5 348.333007812 561 335 561 c 0
 321.666992188 561 309.833007812 559.5 299.5 556.5 c 0
 289.166992188 553.5 277.333007812 547 264 537 c 0
 243.333007812 521 226.333007812 501 213 477 c 0
 199.666992188 453 189 427.666992188 181 401 c 0
 173 374.333007812 167.5 348 164.5 322 c 0
 161.5 296 160 272.666992188 160 252 c 0
 160 216.666992188 164.5 187.333007812 173.5 164 c 0
 182.5 140.666992188 193.666992188 122.166992188 207 108.5 c 0
 220.333007812 94.8330078125 234.833007812 85.3330078125 250.5 80 c 0
 266.166992188 74.6669921875 280.666992188 71.6669921875 294 71 c 0
 302 71 311.166992188 71.8330078125 321.5 73.5 c 0
 331.833007812 75.1669921875 343.666992188 78.5 357 83.5 c 0
 370.333007812 88.5 385.333007812 95.5 402 104.5 c 0
 418.666992188 113.5 437.333007812 125.333007812 458 140 c 0
 459.333007812 139.333007812 461 137.166992188 463 133.5 c 0
 465 129.833007812 467 125.833007812 469 121.5 c 0
 471 117.166992188 472.666992188 113.166992188 474 109.5 c 0
 475.333007812 105.833007812 476.333007812 103.666992188 477 103 c 0
 455 81 433 62.6669921875 411 48 c 0
 389 33.3330078125 367.666992188 21.5 347 12.5 c 0
 326.333007812 3.5 306.833007812 -3 288.5 -7 c 0
 270.166992188 -11 253.333007812 -13 238 -13 c 0
 208.666992188 -13 181.166992188 -7.6669921875 155.5 3 c 0
 129.833007812 13.6669921875 107.5 29 88.5 49 c 0
 69.5 69 54.5 93.6669921875 43.5 123 c 0
 32.5 152.333007812 27 186 27 224 c 0
 27 254.666992188 30.3330078125 285.833007812 37 317.5 c 0
 43.6669921875 349.166992188 53.6669921875 380.166992188 67 410.5 c 0
 80.3330078125 440.833007812 97.1669921875 469.5 117.5 496.5 c 0
 137.833007812 523.5 161.666992188 548 189 570 c 0
 201 579.333007812 214.333007812 587.666992188 229 595 c 0
 243.666992188 602.333007812 259.166992188 608.666992188 275.5 614 c 0
 291.833007812 619.333007812 308.333007812 623.333007812 325 626 c 0
 341.666992188 628.666992188 357.666992188 630 373 630 c 0
 389 630 405 628.666992188 421 626 c 0
 437 623.333007812 452.333007812 619.833007812 467 615.5 c 0
 481.666992188 611.166992188 494.833007812 606 506.5 600 c 0
 518.166992188 594 527.666992188 587.666992188 535 581 c 0
EndSplineSet
EndChar

StartChar: D
Encoding: 39 68 39
Width: 604
VWidth: 500
Flags: HW
LayerCount: 2
Fore
SplineSet
594 369 m 0
 594 340.333007812 590.5 311.333007812 583.5 282 c 0
 576.5 252.666992188 566 224.333007812 552 197 c 0
 538 169.666992188 521.166992188 144 501.5 120 c 0
 481.833007812 96 459.333007812 75.1669921875 434 57.5 c 0
 408.666992188 39.8330078125 381 25.8330078125 351 15.5 c 0
 321 5.1669921875 288.666992188 0 254 0 c 0
 -5 0 l 0
 0 41 l 0
 20.6669921875 45.6669921875 36.3330078125 50.5 47 55.5 c 0
 57.6669921875 60.5 63.3330078125 65.3330078125 64 70 c 0
 132 561 l 0
 65 550 l 0
 65 600 l 0
 83.6669921875 604.666992188 103.5 608.833007812 124.5 612.5 c 0
 145.5 616.166992188 166.666992188 619.166992188 188 621.5 c 0
 209.333007812 623.833007812 230.166992188 625.833007812 250.5 627.5 c 0
 270.833007812 629.166992188 289.333007812 630 306 630 c 0
 356.666992188 630 400 624 436 612 c 0
 472 600 501.833007812 582.666992188 525.5 560 c 0
 549.166992188 537.333007812 566.5 510 577.5 478 c 0
 588.5 446 594 409.666992188 594 369 c 0
290 574 m 0
 285.333007812 574 280.5 573.666992188 275.5 573 c 0
 270.5 572.333007812 265.666992188 572 261 572 c 0
 195 83 l 0
 193.666992188 73.6669921875 197.166992188 66.8330078125 205.5 62.5 c 0
 213.833007812 58.1669921875 229 56 251 56 c 0
 273 56 293.333007812 60.1669921875 312 68.5 c 0
 330.666992188 76.8330078125 347.666992188 88.3330078125 363 103 c 0
 378.333007812 117.666992188 391.833007812 134.666992188 403.5 154 c 0
 415.166992188 173.333007812 424.833007812 194.166992188 432.5 216.5 c 0
 440.166992188 238.833007812 446.166992188 261.833007812 450.5 285.5 c 0
 454.833007812 309.166992188 457 332.333007812 457 355 c 0
 457 389.666992188 454 420.666992188 448 448 c 0
 442 475.333007812 432.333007812 498.333007812 419 517 c 0
 405.666992188 535.666992188 388.5 549.833007812 367.5 559.5 c 0
 346.5 569.166992188 320.666992188 574 290 574 c 0
EndSplineSet
EndChar

StartChar: E
Encoding: 40 69 40
Width: 502
VWidth: 500
Flags: HW
LayerCount: 2
Fore
SplineSet
477 158 m 0
 474.333007812 144 471 128.833007812 467 112.5 c 0
 463 96.1669921875 459.166992188 80.3330078125 455.5 65 c 0
 451.833007812 49.6669921875 448.333007812 36.1669921875 445 24.5 c 0
 441.666992188 12.8330078125 439 4.6669921875 437 0 c 0
 -5 0 l 0
 0 41 l 0
 21.3330078125 45.6669921875 37.5 50.5 48.5 55.5 c 0
 59.5 60.5 65.3330078125 65.3330078125 66 70 c 0
 131 544 l 0
 131.666992188 548 127.5 553 118.5 559 c 0
 109.5 565 94.6669921875 570.333007812 74 575 c 0
 79 615 l 0
 491 615 l 0
 508 598 l 0
 506.666992188 589.333007812 504.333007812 578.166992188 501 564.5 c 0
 497.666992188 550.833007812 494.166992188 536.833007812 490.5 522.5 c 0
 486.833007812 508.166992188 483.166992188 494.666992188 479.5 482 c 0
 475.833007812 469.333007812 472.666992188 460 470 454 c 0
 431 454 l 0
 433.666992188 484 433.166992188 507.833007812 429.5 525.5 c 0
 425.833007812 543.166992188 418.333007812 552 407 552 c 0
 259 552 l 0
 232 359 l 0
 412 359 l 0
 426 340 l 0
 423.333007812 335.333007812 419.666992188 329.833007812 415 323.5 c 0
 410.333007812 317.166992188 405.666992188 310.666992188 401 304 c 0
 396.333007812 297.333007812 391.666992188 291.166992188 387 285.5 c 0
 382.333007812 279.833007812 378.333007812 275.666992188 375 273 c 0
 371 277.666992188 366.5 281.833007812 361.5 285.5 c 0
 356.5 289.166992188 350.833007812 292 344.5 294 c 0
 338.166992188 296 330.5 297.5 321.5 298.5 c 0
 312.5 299.5 301.666992188 300 289 300 c 0
 224 300 l 0
 196 95 l 0
 195.333007812 90.3330078125 195.833007812 86 197.5 82 c 0
 199.166992188 78 203.166992188 74.6669921875 209.5 72 c 0
 215.833007812 69.3330078125 224.833007812 67.1669921875 236.5 65.5 c 0
 248.166992188 63.8330078125 264.333007812 63 285 63 c 0
 325 63 l 0
 339 63 351.166992188 65.1669921875 361.5 69.5 c 0
 371.833007812 73.8330078125 381.5 80.3330078125 390.5 89 c 0
 399.5 97.6669921875 408 108.833007812 416 122.5 c 0
 424 136.166992188 432.333007812 152.666992188 441 172 c 0
 477 158 l 0
EndSplineSet
EndChar

StartChar: F
Encoding: 41 70 41
Width: 475
VWidth: 500
Flags: HW
LayerCount: 2
Fore
SplineSet
413 340 m 0
 409.666992188 334 405.666992188 327.833007812 401 321.5 c 0
 396.333007812 315.166992188 391.666992188 308.666992188 387 302 c 0
 382.333007812 295.333007812 377.833007812 289.5 373.5 284.5 c 0
 369.166992188 279.5 365 275.666992188 361 273 c 0
 357 277.666992188 352.833007812 281.833007812 348.5 285.5 c 0
 344.166992188 289.166992188 338.666992188 292 332 294 c 0
 325.333007812 296 317.333007812 297.5 308 298.5 c 0
 298.666992188 299.5 287.666992188 300 275 300 c 0
 224 300 l 0
 193 70 l 0
 193 68 193.833007812 66 195.5 64 c 0
 197.166992188 62 200.666992188 59.6669921875 206 57 c 0
 211.333007812 54.3330078125 218.666992188 51.6669921875 228 49 c 0
 237.333007812 46.3330078125 249.333007812 43.6669921875 264 41 c 0
 259 0 l 0
 -5 0 l 0
 0 41 l 0
 21.3330078125 45.6669921875 37.5 50.5 48.5 55.5 c 0
 59.5 60.5 65.3330078125 65.3330078125 66 70 c 0
 131 544 l 0
 131.666992188 548 127.5 553 118.5 559 c 0
 109.5 565 94.6669921875 570.333007812 74 575 c 0
 79 615 l 0
 495 615 l 0
 511 598 l 0
 509.666992188 589.333007812 507.5 578.166992188 504.5 564.5 c 0
 501.5 550.833007812 498.166992188 536.833007812 494.5 522.5 c 0
 490.833007812 508.166992188 487.166992188 494.666992188 483.5 482 c 0
 479.833007812 469.333007812 476.666992188 460 474 454 c 0
 435 454 l 0
 438.333007812 484 438 507.833007812 434 525.5 c 0
 430 543.166992188 422.333007812 552 411 552 c 0
 259 552 l 0
 232 359 l 0
 398 359 l 0
 413 340 l 0
EndSplineSet
EndChar

StartChar: G
Encoding: 42 71 42
Width: 554
VWidth: 500
Flags: HW
LayerCount: 2
Fore
SplineSet
557 268 m 0
 539.666992188 262.666992188 527 256.5 519 249.5 c 0
 511 242.5 506.333007812 235.333007812 505 228 c 0
 503.666992188 219.333007812 502.333007812 208.166992188 501 194.5 c 0
 499.666992188 180.833007812 498 166.833007812 496 152.5 c 0
 494 138.166992188 492.333007812 124.833007812 491 112.5 c 0
 489.666992188 100.166992188 488.666992188 91 488 85 c 0
 463.333007812 65 440 48.6669921875 418 36 c 0
 396 23.3330078125 375.5 13.1669921875 356.5 5.5 c 0
 337.5 -2.1669921875 319.833007812 -7.5 303.5 -10.5 c 0
 287.166992188 -13.5 272.666992188 -15 260 -15 c 0
 229.333007812 -15 200 -9 172 3 c 0
 144 15 119.166992188 32 97.5 54 c 0
 75.8330078125 76 58.6669921875 102.833007812 46 134.5 c 0
 33.3330078125 166.166992188 27 201.666992188 27 241 c 0
 27 271.666992188 30.5 301.833007812 37.5 331.5 c 0
 44.5 361.166992188 54.3330078125 389.333007812 67 416 c 0
 79.6669921875 442.666992188 94.8330078125 467.666992188 112.5 491 c 0
 130.166992188 514.333007812 149.666992188 535 171 553 c 0
 185 565 199.666992188 575.833007812 215 585.5 c 0
 230.333007812 595.166992188 247 603.166992188 265 609.5 c 0
 283 615.833007812 302.333007812 620.833007812 323 624.5 c 0
 343.666992188 628.166992188 366.666992188 630 392 630 c 0
 404 630 417.666992188 628.833007812 433 626.5 c 0
 448.333007812 624.166992188 463.5 620.833007812 478.5 616.5 c 0
 493.5 612.166992188 507.833007812 607 521.5 601 c 0
 535.166992188 595 546 588 554 580 c 0
 555.333007812 578.666992188 555 575.333007812 553 570 c 0
 551 564.666992188 548.166992188 558 544.5 550 c 0
 540.833007812 542 536.166992188 533.333007812 530.5 524 c 0
 524.833007812 514.666992188 519.333007812 505.833007812 514 497.5 c 0
 508.666992188 489.166992188 503.666992188 481.833007812 499 475.5 c 0
 494.333007812 469.166992188 490.333007812 464.666992188 487 462 c 0
 454 470 l 0
 449.333007812 482.666992188 443.666992188 494.833007812 437 506.5 c 0
 430.333007812 518.166992188 422.166992188 528.5 412.5 537.5 c 0
 402.833007812 546.5 391.666992188 553.666992188 379 559 c 0
 366.333007812 564.333007812 351.666992188 567 335 567 c 0
 320.333007812 567 305.166992188 563.166992188 289.5 555.5 c 0
 273.833007812 547.833007812 258 536 242 520 c 0
 230.666992188 508 219.833007812 492.166992188 209.5 472.5 c 0
 199.166992188 452.833007812 190.333007812 431.166992188 183 407.5 c 0
 175.666992188 383.833007812 169.833007812 359.333007812 165.5 334 c 0
 161.166992188 308.666992188 159 284.666992188 159 262 c 0
 159 227.333007812 163.166992188 197.666992188 171.5 173 c 0
 179.833007812 148.333007812 190.666992188 128.166992188 204 112.5 c 0
 217.333007812 96.8330078125 232.166992188 85.3330078125 248.5 78 c 0
 264.833007812 70.6669921875 281.333007812 67 298 67 c 0
 306.666992188 67 316.833007812 68 328.5 70 c 0
 340.166992188 72 351.666992188 77.3330078125 363 86 c 0
 384 228 l 0
 384 231.333007812 383.5 234.666992188 382.5 238 c 0
 381.5 241.333007812 377.666992188 244.5 371 247.5 c 0
 364.333007812 250.5 354 253.666992188 340 257 c 0
 326 260.333007812 307 264 283 268 c 0
 286 309 l 0
 560 309 l 0
 557 268 l 0
EndSplineSet
EndChar

StartChar: H
Encoding: 43 72 43
Width: 648
VWidth: 500
Flags: HW
LayerCount: 2
Fore
SplineSet
324 575 m 0
 302.666992188 570.333007812 286.5 565.166992188 275.5 559.5 c 0
 264.5 553.833007812 258.666992188 548.666992188 258 544 c 0
 231 354 l 0
 454 354 l 0
 480 544 l 0
 480 548 475.833007812 553 467.5 559 c 0
 459.166992188 565 444.333007812 570.333007812 423 575 c 0
 429 615 l 0
 679 615 l 0
 673 575 l 0
 651.666992188 570.333007812 635.5 565.166992188 624.5 559.5 c 0
 613.5 553.833007812 607.666992188 548.666992188 607 544 c 0
 542 70 l 0
 541.333007812 66 545.5 61.1669921875 554.5 55.5 c 0
 563.5 49.8330078125 578.666992188 45 600 41 c 0
 595 0 l 0
 345 0 l 0
 350 41 l 0
 371.333007812 45.6669921875 387.5 50.5 398.5 55.5 c 0
 409.5 60.5 415.333007812 65.3330078125 416 70 c 0
 446 291 l 0
 223 291 l 0
 193 70 l 0
 192.333007812 66 196.333007812 61.1669921875 205 55.5 c 0
 213.666992188 49.8330078125 228.666992188 45 250 41 c 0
 245 0 l 0
 -5 0 l 0
 0 41 l 0
 21.3330078125 45.6669921875 37.5 50.5 48.5 55.5 c 0
 59.5 60.5 65.3330078125 65.3330078125 66 70 c 0
 131 544 l 0
 131.666992188 548 127.5 553 118.5 559 c 0
 109.5 565 94.6669921875 570.333007812 74 575 c 0
 79 615 l 0
 329 615 l 0
 324 575 l 0
EndSplineSet
EndChar

StartChar: I
Encoding: 44 73 44
Width: 318
VWidth: 500
Flags: HW
LayerCount: 2
Fore
SplineSet
333 575 m 0
 311.666992188 570.333007812 295.666992188 565.166992188 285 559.5 c 0
 274.333007812 553.833007812 268.666992188 548.666992188 268 544 c 0
 203 70 l 0
 202.333007812 66 206.333007812 61.1669921875 215 55.5 c 0
 223.666992188 49.8330078125 238.666992188 45 260 41 c 0
 254 0 l 0
 5 0 l 0
 10 41 l 0
 30.6669921875 45.6669921875 46.5 50.5 57.5 55.5 c 0
 68.5 60.5 74.3330078125 65.3330078125 75 70 c 0
 140 544 l 0
 140.666992188 548 136.666992188 553 128 559 c 0
 119.333007812 565 104.333007812 570.333007812 83 575 c 0
 89 615 l 0
 338 615 l 0
 333 575 l 0
EndSplineSet
EndChar

StartChar: J
Encoding: 45 74 45
Width: 321
VWidth: 500
Flags: HW
LayerCount: 2
Fore
SplineSet
345 575 m 0
 324.333007812 570.333007812 308.333007812 565.166992188 297 559.5 c 0
 285.666992188 553.833007812 279.666992188 548.666992188 279 544 c 0
 220 100 l 0
 215.333007812 64 207.5 33.3330078125 196.5 8 c 0
 185.5 -17.3330078125 173.166992188 -39.3330078125 159.5 -58 c 0
 145.833007812 -76.6669921875 131.333007812 -92.5 116 -105.5 c 0
 100.666992188 -118.5 86.3330078125 -130.333007812 73 -141 c 0
 64.3330078125 -147.666992188 54 -154.333007812 42 -161 c 0
 30 -167.666992188 17.5 -173.666992188 4.5 -179 c 0
 -8.5 -184.333007812 -21.5 -188.5 -34.5 -191.5 c 0
 -47.5 -194.5 -59.6669921875 -196 -71 -196 c 0
 -84.3330078125 -196 -97.1669921875 -194.166992188 -109.5 -190.5 c 0
 -121.833007812 -186.833007812 -133.166992188 -182.5 -143.5 -177.5 c 0
 -153.833007812 -172.5 -162.166992188 -167.166992188 -168.5 -161.5 c 0
 -174.833007812 -155.833007812 -178 -151 -178 -147 c 0
 -178 -145 -176 -141.166992188 -172 -135.5 c 0
 -168 -129.833007812 -163 -123.833007812 -157 -117.5 c 0
 -151 -111.166992188 -144.333007812 -104.5 -137 -97.5 c 0
 -129.666992188 -90.5 -122.5 -84.1669921875 -115.5 -78.5 c 0
 -108.5 -72.8330078125 -102.166992188 -68.1669921875 -96.5 -64.5 c 0
 -90.8330078125 -60.8330078125 -86.6669921875 -59 -84 -59 c 0
 -80.6669921875 -59 -76.3330078125 -61.5 -71 -66.5 c 0
 -65.6669921875 -71.5 -59.5 -77 -52.5 -83 c 0
 -45.5 -89 -37.5 -94.3330078125 -28.5 -99 c 0
 -19.5 -103.666992188 -10 -106 0 -106 c 0
 8 -106 16 -104.333007812 24 -101 c 0
 32 -97.6669921875 39.6669921875 -90 47 -78 c 0
 54.3330078125 -66 61.5 -48.6669921875 68.5 -26 c 0
 75.5 -3.3330078125 81.3330078125 27 86 65 c 0
 152 544 l 0
 152 546 151.166992188 548.166992188 149.5 550.5 c 0
 147.833007812 552.833007812 144.166992188 555.333007812 138.5 558 c 0
 132.833007812 560.666992188 124.666992188 563.333007812 114 566 c 0
 103.333007812 568.666992188 89.3330078125 571.666992188 72 575 c 0
 77 615 l 0
 351 615 l 0
 345 575 l 0
EndSplineSet
EndChar

StartChar: K
Encoding: 46 75 46
Width: 604
VWidth: 500
Flags: HW
LayerCount: 2
Fore
SplineSet
324 575 m 0
 302.666992188 570.333007812 286.5 565.166992188 275.5 559.5 c 0
 264.5 553.833007812 258.666992188 548.666992188 258 544 c 0
 228 324 l 0
 419 531 l 0
 427 539.666992188 433 546.666992188 437 552 c 0
 441 557.333007812 442.666992188 561.5 442 564.5 c 0
 441.333007812 567.5 438 569.666992188 432 571 c 0
 426 572.333007812 417 573.666992188 405 575 c 0
 411 615 l 0
 620 615 l 0
 614 575 l 0
 604 573.666992188 595.666992188 572.333007812 589 571 c 0
 582.333007812 569.666992188 576.333007812 567.833007812 571 565.5 c 0
 565.666992188 563.166992188 560.833007812 560.333007812 556.5 557 c 0
 552.166992188 553.666992188 547.333007812 549.333007812 542 544 c 0
 319 331 l 0
 493 106 l 0
 497 100.666992188 502.666992188 97.1669921875 510 95.5 c 0
 517.333007812 93.8330078125 525.166992188 93.1669921875 533.5 93.5 c 0
 541.833007812 93.8330078125 550.333007812 95 559 97 c 0
 567.666992188 99 575.666992188 101.333007812 583 104 c 0
 597 64 l 0
 587.666992188 56 575.5 47.8330078125 560.5 39.5 c 0
 545.5 31.1669921875 530.166992188 23.5 514.5 16.5 c 0
 498.833007812 9.5 484 3.8330078125 470 -0.5 c 0
 456 -4.8330078125 445.333007812 -7 438 -7 c 0
 428.666992188 -7 421 -5.5 415 -2.5 c 0
 409 0.5 403.333007812 6 398 14 c 0
 225 303 l 0
 193 70 l 0
 192.333007812 66 196.333007812 61.1669921875 205 55.5 c 0
 213.666992188 49.8330078125 228.666992188 45 250 41 c 0
 245 0 l 0
 -5 0 l 0
 0 41 l 0
 21.3330078125 45.6669921875 37.5 50.5 48.5 55.5 c 0
 59.5 60.5 65.3330078125 65.3330078125 66 70 c 0
 131 544 l 0
 131.666992188 548 127.5 553 118.5 559 c 0
 109.5 565 94.6669921875 570.333007812 74 575 c 0
 79 615 l 0
 329 615 l 0
 324 575 l 0
EndSplineSet
EndChar

StartChar: L
Encoding: 47 76 47
Width: 497
VWidth: 500
Flags: HW
LayerCount: 2
Fore
SplineSet
473 158 m 0
 470.333007812 144 467 128.833007812 463 112.5 c 0
 459 96.1669921875 455 80.3330078125 451 65 c 0
 447 49.6669921875 443.333007812 36.1669921875 440 24.5 c 0
 435 7 435 7 433 0 c 0
 -5 0 l 0
 0 41 l 0
 21.3330078125 45.6669921875 37.5 50.5 48.5 55.5 c 0
 59.5 60.5 65.3330078125 65.3330078125 66 70 c 0
 131 544 l 0
 131.666992188 548 127.5 553 118.5 559 c 0
 109.5 565 94.6669921875 570.333007812 74 575 c 0
 79 615 l 0
 329 615 l 0
 324 575 l 0
 302.666992188 570.333007812 286.5 565.166992188 275.5 559.5 c 0
 264.5 553.833007812 258.666992188 548.666992188 258 544 c 0
 197 100 l 0
 196.333007812 94 197 88.8330078125 199 84.5 c 0
 201 80.1669921875 205 76.3330078125 211 73 c 0
 217 69.6669921875 225.166992188 67.1669921875 235.5 65.5 c 0
 245.833007812 63.8330078125 259.333007812 63 276 63 c 0
 323 63 l 0
 337 63 349.166992188 65.1669921875 359.5 69.5 c 0
 369.833007812 73.8330078125 379.166992188 80.3330078125 387.5 89 c 0
 395.833007812 97.6669921875 403.833007812 108.833007812 411.5 122.5 c 0
 419.166992188 136.166992188 427.666992188 152.666992188 437 172 c 0
 473 158 l 0
EndSplineSet
EndChar

StartChar: M
Encoding: 48 77 48
Width: 799
VWidth: 500
Flags: HW
LayerCount: 2
Fore
SplineSet
813 575 m 0
 797.666992188 574.333007812 778 570 754 562 c 0
 691 70 l 0
 690.333007812 66 695.166992188 61.1669921875 705.5 55.5 c 0
 715.833007812 49.8330078125 731.666992188 45 753 41 c 0
 748 0 l 0
 501 0 l 0
 507 41 l 0
 527.666992188 45.6669921875 544.333007812 50.5 557 55.5 c 0
 569.666992188 60.5 576.333007812 65.3330078125 577 70 c 0
 625 450 l 0
 373 0 l 0
 323 0 l 0
 199 450 l 0
 143 70 l 0
 142.333007812 66 146.333007812 61.1669921875 155 55.5 c 0
 163.666992188 49.8330078125 178.666992188 45 200 41 c 0
 195 0 l 0
 3 0 l 0
 8 41 l 0
 29.3330078125 45.6669921875 45.5 50.5 56.5 55.5 c 0
 67.5 60.5 73.3330078125 65.3330078125 74 70 c 0
 145 559 l 0
 135.666992188 565 125.833007812 569.166992188 115.5 571.5 c 0
 105.166992188 573.833007812 95.3330078125 575 86 575 c 0
 92 615 l 0
 258 615 l 0
 260.666992188 615 263.333007812 614.5 266 613.5 c 0
 268.666992188 612.5 271 610.666992188 273 608 c 0
 275 605.333007812 277 601.166992188 279 595.5 c 0
 281 589.833007812 283.333007812 582.666992188 286 574 c 0
 395 178 l 0
 618 574 l 0
 623.333007812 584 627.666992188 591.666992188 631 597 c 0
 634.333007812 602.333007812 637.5 606.333007812 640.5 609 c 0
 643.5 611.666992188 646.166992188 613.333007812 648.5 614 c 0
 650.833007812 614.666992188 653.666992188 615 657 615 c 0
 818 615 l 0
 813 575 l 0
EndSplineSet
EndChar

StartChar: N
Encoding: 49 78 49
Width: 621
VWidth: 500
Flags: HW
LayerCount: 2
Fore
SplineSet
663 575 m 0
 640.333007812 571.666992188 623.833007812 566.833007812 613.5 560.5 c 0
 603.166992188 554.166992188 597.666992188 548.666992188 597 544 c 0
 521 -15 l 0
 505 -13.6669921875 490.333007812 -11 477 -7 c 0
 463.666992188 -3 452.166992188 1.5 442.5 6.5 c 0
 432.833007812 11.5 424.666992188 17.3330078125 418 24 c 0
 411.333007812 30.6669921875 406 37.3330078125 402 44 c 0
 192 437 l 0
 142 70 l 0
 142 68 142.666992188 65.6669921875 144 63 c 0
 145.333007812 60.3330078125 148.333007812 57.6669921875 153 55 c 0
 157.666992188 52.3330078125 163.666992188 49.6669921875 171 47 c 0
 178.333007812 44.3330078125 187.666992188 42.3330078125 199 41 c 0
 194 0 l 0
 -1 0 l 0
 4 41 l 0
 26.6669921875 43.6669921875 43 48 53 54 c 0
 63 60 68.3330078125 65.3330078125 69 70 c 0
 133 538 l 0
 124.333007812 548 115.333007812 556.166992188 106 562.5 c 0
 96.6669921875 568.833007812 87 573 77 575 c 0
 83 615 l 0
 220 615 l 0
 224 615 227.5 614.666992188 230.5 614 c 0
 233.5 613.333007812 236.333007812 611.666992188 239 609 c 0
 241.666992188 606.333007812 244.333007812 602.5 247 597.5 c 0
 249.666992188 592.5 253.333007812 585.666992188 258 577 c 0
 474 172 l 0
 525 544 l 0
 525 546 524.333007812 548.5 523 551.5 c 0
 521.666992188 554.5 518.833007812 557.333007812 514.5 560 c 0
 510.166992188 562.666992188 504.333007812 565.333007812 497 568 c 0
 489.666992188 570.666992188 480 573 468 575 c 0
 473 615 l 0
 668 615 l 0
 663 575 l 0
EndSplineSet
EndChar

StartChar: O
Encoding: 50 79 50
Width: 581
VWidth: 500
Flags: HW
LayerCount: 2
Fore
SplineSet
576 378 m 0
 576 354.666992188 573.666992188 331.166992188 569 307.5 c 0
 564.333007812 283.833007812 557.833007812 260.5 549.5 237.5 c 0
 541.166992188 214.5 531 192.166992188 519 170.5 c 0
 507 148.833007812 493.666992188 128.666992188 479 110 c 0
 465 92.6669921875 449.333007812 76.3330078125 432 61 c 0
 414.666992188 45.6669921875 396.166992188 32.3330078125 376.5 21 c 0
 356.833007812 9.6669921875 336.166992188 0.8330078125 314.5 -5.5 c 0
 292.833007812 -11.8330078125 271.333007812 -15 250 -15 c 0
 216 -15 185.666992188 -8.3330078125 159 5 c 0
 132.333007812 18.3330078125 109.666992188 36.5 91 59.5 c 0
 72.3330078125 82.5 58.1669921875 109.333007812 48.5 140 c 0
 38.8330078125 170.666992188 34 203 34 237 c 0
 34 288.333007812 42 335.5 58 378.5 c 0
 74 421.5 95 461 121 497 c 0
 135 515 150.333007812 532.166992188 167 548.5 c 0
 183.666992188 564.833007812 202.166992188 579 222.5 591 c 0
 242.833007812 603 264.833007812 612.5 288.5 619.5 c 0
 312.166992188 626.5 337.333007812 630 364 630 c 0
 399.333007812 630 430.333007812 623.333007812 457 610 c 0
 483.666992188 596.666992188 505.833007812 578.5 523.5 555.5 c 0
 541.166992188 532.5 554.333007812 505.666992188 563 475 c 0
 571.666992188 444.333007812 576 412 576 378 c 0
445 369 m 0
 445 396.333007812 442.5 421.833007812 437.5 445.5 c 0
 432.5 469.166992188 425 489.833007812 415 507.5 c 0
 405 525.166992188 392.666992188 539 378 549 c 0
 363.333007812 559 346.666992188 564 328 564 c 0
 310 564 293.5 559.333007812 278.5 550 c 0
 263.5 540.666992188 250 528.166992188 238 512.5 c 0
 226 496.833007812 215.5 478.666992188 206.5 458 c 0
 197.5 437.333007812 190.166992188 415.666992188 184.5 393 c 0
 178.833007812 370.333007812 174.5 347.666992188 171.5 325 c 0
 168.5 302.333007812 167 280.666992188 167 260 c 0
 167 230 169.5 202.166992188 174.5 176.5 c 0
 179.5 150.833007812 186.666992188 129 196 111 c 0
 205.333007812 93 217.166992188 79 231.5 69 c 0
 245.833007812 59 262.333007812 54 281 54 c 0
 300.333007812 54 317.833007812 58.8330078125 333.5 68.5 c 0
 349.166992188 78.1669921875 363 91.3330078125 375 108 c 0
 387 124.666992188 397.333007812 143.666992188 406 165 c 0
 414.666992188 186.333007812 422 208.666992188 428 232 c 0
 434 255.333007812 438.333007812 278.833007812 441 302.5 c 0
 443.666992188 326.166992188 445 348.333007812 445 369 c 0
EndSplineSet
EndChar

StartChar: P
Encoding: 51 80 51
Width: 534
VWidth: 500
Flags: HW
LayerCount: 2
Fore
SplineSet
549 460 m 0
 549 432 542.833007812 405.5 530.5 380.5 c 0
 518.166992188 355.5 501.5 333.5 480.5 314.5 c 0
 459.5 295.5 435.166992188 280.166992188 407.5 268.5 c 0
 379.833007812 256.833007812 350.333007812 251 319 251 c 0
 306.333007812 251 293.666992188 252.666992188 281 256 c 0
 268.333007812 259.333007812 257.666992188 263.333007812 249 268 c 0
 240 324 l 0
 251.333007812 319.333007812 261 315.5 269 312.5 c 0
 277 309.5 287 308 299 308 c 0
 336.333007812 308 365.166992188 319.666992188 385.5 343 c 0
 405.833007812 366.333007812 416 399.333007812 416 442 c 0
 416 469.333007812 412 491.5 404 508.5 c 0
 396 525.5 385.5 538.833007812 372.5 548.5 c 0
 359.5 558.166992188 344.666992188 564.833007812 328 568.5 c 0
 311.333007812 572.166992188 294 574 276 574 c 0
 273 574 273 574 270 574 c 0
 267 574 267 574 264 574 c 0
 194 70 l 0
 193.333007812 68 194 66 196 64 c 0
 198 62 201.666992188 59.6669921875 207 57 c 0
 212.333007812 54.3330078125 220 51.6669921875 230 49 c 0
 240 46.3330078125 252.666992188 43.6669921875 268 41 c 0
 263 0 l 0
 -5 0 l 0
 0 41 l 0
 20.6669921875 45.6669921875 36.3330078125 50.5 47 55.5 c 0
 57.6669921875 60.5 63.3330078125 65.3330078125 64 70 c 0
 132 562 l 0
 120.666992188 560.666992188 109.333007812 558.833007812 98 556.5 c 0
 86.6669921875 554.166992188 75.3330078125 551.666992188 64 549 c 0
 64 598 l 0
 80.6669921875 602.666992188 99 607 119 611 c 0
 139 615 159.333007812 618.333007812 180 621 c 0
 200.666992188 623.666992188 221 625.833007812 241 627.5 c 0
 261 629.166992188 279.666992188 630 297 630 c 0
 337 630 372.666992188 626.333007812 404 619 c 0
 435.333007812 611.666992188 461.833007812 600.833007812 483.5 586.5 c 0
 505.166992188 572.166992188 521.5 554.5 532.5 533.5 c 0
 543.5 512.5 549 488 549 460 c 0
EndSplineSet
EndChar

StartChar: Q
Encoding: 52 81 52
Width: 596
VWidth: 500
Flags: HW
LayerCount: 2
Fore
SplineSet
636 -62 m 0
 626.666992188 -76 616.833007812 -89.1669921875 606.5 -101.5 c 0
 596.166992188 -113.833007812 586.166992188 -124.666992188 576.5 -134 c 0
 566.833007812 -143.333007812 558 -150.666992188 550 -156 c 0
 542 -161.333007812 535.666992188 -164 531 -164 c 0
 516.333007812 -164 502 -161.333007812 488 -156 c 0
 474 -150.666992188 460 -143.833007812 446 -135.5 c 0
 432 -127.166992188 418.166992188 -117.5 404.5 -106.5 c 0
 390.833007812 -95.5 377.166992188 -84.3330078125 363.5 -73 c 0
 349.833007812 -61.6669921875 336.166992188 -50.6669921875 322.5 -40 c 0
 308.833007812 -29.3330078125 295 -20.3330078125 281 -13 c 0
 275.666992188 -13.6669921875 270.5 -14.1669921875 265.5 -14.5 c 0
 260.5 -14.8330078125 255.333007812 -15 250 -15 c 0
 216 -15 185.666992188 -8.3330078125 159 5 c 0
 132.333007812 18.3330078125 109.666992188 36.5 91 59.5 c 0
 72.3330078125 82.5 58.1669921875 109.333007812 48.5 140 c 0
 38.8330078125 170.666992188 34 203 34 237 c 0
 34 288.333007812 42 335.5 58 378.5 c 0
 74 421.5 95 461 121 497 c 0
 135 515 150.333007812 532.166992188 167 548.5 c 0
 183.666992188 564.833007812 202.166992188 579 222.5 591 c 0
 242.833007812 603 264.833007812 612.5 288.5 619.5 c 0
 312.166992188 626.5 337.333007812 630 364 630 c 0
 399.333007812 630 430.333007812 623.333007812 457 610 c 0
 483.666992188 596.666992188 505.833007812 578.5 523.5 555.5 c 0
 541.166992188 532.5 554.333007812 505.666992188 563 475 c 0
 571.666992188 444.333007812 576 412 576 378 c 0
 576 354.666992188 573.666992188 331.166992188 569 307.5 c 0
 564.333007812 283.833007812 557.833007812 260.5 549.5 237.5 c 0
 541.166992188 214.5 531 192.166992188 519 170.5 c 0
 507 148.833007812 493.666992188 128.666992188 479 110 c 0
 464.333007812 91.3330078125 447.333007812 73.8330078125 428 57.5 c 0
 408.666992188 41.1669921875 388.333007812 27.3330078125 367 16 c 0
 384.333007812 10 400.833007812 2.6669921875 416.5 -6 c 0
 432.166992188 -14.6669921875 447.333007812 -22.8330078125 462 -30.5 c 0
 476.666992188 -38.1669921875 491 -44.8330078125 505 -50.5 c 0
 519 -56.1669921875 533.333007812 -59 548 -59 c 0
 552 -59 555.666992188 -58.5 559 -57.5 c 0
 562.333007812 -56.5 566.5 -54.8330078125 571.5 -52.5 c 0
 576.5 -50.1669921875 582.5 -46.8330078125 589.5 -42.5 c 0
 596.5 -38.1669921875 605 -32.3330078125 615 -25 c 0
 636 -62 l 0
445 369 m 0
 445 396.333007812 442.5 421.833007812 437.5 445.5 c 0
 432.5 469.166992188 425 489.833007812 415 507.5 c 0
 405 525.166992188 392.666992188 539 378 549 c 0
 363.333007812 559 346.666992188 564 328 564 c 0
 310 564 293.5 559.333007812 278.5 550 c 0
 263.5 540.666992188 250 528.166992188 238 512.5 c 0
 226 496.833007812 215.5 478.666992188 206.5 458 c 0
 197.5 437.333007812 190.166992188 415.666992188 184.5 393 c 0
 178.833007812 370.333007812 174.5 347.666992188 171.5 325 c 0
 168.5 302.333007812 167 280.666992188 167 260 c 0
 167 230 169.5 202.166992188 174.5 176.5 c 0
 179.5 150.833007812 186.666992188 129 196 111 c 0
 205.333007812 93 217.166992188 79 231.5 69 c 0
 245.833007812 59 262.333007812 54 281 54 c 0
 300.333007812 54 317.833007812 58.8330078125 333.5 68.5 c 0
 349.166992188 78.1669921875 363 91.3330078125 375 108 c 0
 387 124.666992188 397.333007812 143.666992188 406 165 c 0
 414.666992188 186.333007812 422 208.666992188 428 232 c 0
 434 255.333007812 438.333007812 278.833007812 441 302.5 c 0
 443.666992188 326.166992188 445 348.333007812 445 369 c 0
EndSplineSet
EndChar

StartChar: R
Encoding: 53 82 53
Width: 569
VWidth: 500
Flags: HW
LayerCount: 2
Fore
SplineSet
282 574 m 0
 272 574 l 0
 267 574 267 574 262 574 c 0
 232 348 l 0
 239.333007812 346 246.5 344.666992188 253.5 344 c 0
 260.5 343.333007812 268 343 276 343 c 0
 292 343 307.333007812 345.666992188 322 351 c 0
 336.666992188 356.333007812 349.5 364 360.5 374 c 0
 371.5 384 380.5 396.166992188 387.5 410.5 c 0
 394.5 424.833007812 398 441.333007812 398 460 c 0
 398 484 394.333007812 503.5 387 518.5 c 0
 379.666992188 533.5 370.333007812 545 359 553 c 0
 347.666992188 561 335.166992188 566.5 321.5 569.5 c 0
 307.833007812 572.5 294.666992188 574 282 574 c 0
580 58 m 0
 567.333007812 49.3330078125 553 41.1669921875 537 33.5 c 0
 521 25.8330078125 505.5 19 490.5 13 c 0
 475.5 7 462.166992188 2.1669921875 450.5 -1.5 c 0
 438.833007812 -5.1669921875 431 -7 427 -7 c 0
 421.666992188 -7 416.166992188 -6.1669921875 410.5 -4.5 c 0
 404.833007812 -2.8330078125 399.333007812 0.1669921875 394 4.5 c 0
 388.666992188 8.8330078125 383.333007812 15.1669921875 378 23.5 c 0
 372.666992188 31.8330078125 367.333007812 43 362 57 c 0
 282 282 l 0
 272.666992188 282 262.833007812 282.5 252.5 283.5 c 0
 242.166992188 284.5 232.666992188 286 224 288 c 0
 194 70 l 0
 193.333007812 66 198.166992188 61.1669921875 208.5 55.5 c 0
 218.833007812 49.8330078125 234 45 254 41 c 0
 249 0 l 0
 -5 0 l 0
 0 41 l 0
 20.6669921875 45.6669921875 36.3330078125 50.5 47 55.5 c 0
 57.6669921875 60.5 63.3330078125 65.3330078125 64 70 c 0
 131 562 l 0
 118.333007812 560 106.333007812 558 95 556 c 0
 83.6669921875 554 73 551.666992188 63 549 c 0
 64 599 l 0
 78.6669921875 603 95.5 607 114.5 611 c 0
 133.5 615 153.5 618.333007812 174.5 621 c 0
 195.5 623.666992188 217.333007812 625.833007812 240 627.5 c 0
 262.666992188 629.166992188 285 630 307 630 c 0
 379.666992188 630 435.166992188 616.666992188 473.5 590 c 0
 511.833007812 563.333007812 531 524.666992188 531 474 c 0
 531 457.333007812 527.5 440.166992188 520.5 422.5 c 0
 513.5 404.833007812 503.166992188 388 489.5 372 c 0
 475.833007812 356 459.5 341.333007812 440.5 328 c 0
 421.5 314.666992188 400 304 376 296 c 0
 481 109 l 0
 485 101.666992188 489.5 96.1669921875 494.5 92.5 c 0
 499.5 88.8330078125 505.333007812 86.6669921875 512 86 c 0
 518.666992188 85.3330078125 526.333007812 86 535 88 c 0
 543.666992188 90 554 92.6669921875 566 96 c 0
 580 58 l 0
EndSplineSet
EndChar

StartChar: S
Encoding: 54 83 54
Width: 488
VWidth: 500
Flags: HW
LayerCount: 2
Fore
SplineSet
484 585 m 0
 485.333007812 584.333007812 485.333007812 581.166992188 484 575.5 c 0
 482.666992188 569.833007812 480.333007812 563.333007812 477 556 c 0
 473.666992188 548.666992188 469.833007812 540.833007812 465.5 532.5 c 0
 461.166992188 524.166992188 456.666992188 516.166992188 452 508.5 c 0
 447.333007812 500.833007812 443 494.166992188 439 488.5 c 0
 435 482.833007812 432 479.333007812 430 478 c 0
 396 481 l 0
 392.666992188 496.333007812 387.666992188 509.666992188 381 521 c 0
 374.333007812 532.333007812 366.666992188 541.5 358 548.5 c 0
 349.333007812 555.5 340.166992188 560.666992188 330.5 564 c 0
 320.833007812 567.333007812 311 569 301 569 c 0
 285 569 271.166992188 566.666992188 259.5 562 c 0
 247.833007812 557.333007812 238.166992188 551.166992188 230.5 543.5 c 0
 222.833007812 535.833007812 217.166992188 527 213.5 517 c 0
 209.833007812 507 208 496.666992188 208 486 c 0
 208 478.666992188 209.166992188 471.166992188 211.5 463.5 c 0
 213.833007812 455.833007812 218.666992188 447.666992188 226 439 c 0
 233.333007812 430.333007812 243.5 421.166992188 256.5 411.5 c 0
 269.5 401.833007812 287 391.666992188 309 381 c 0
 335 367.666992188 357.333007812 354.666992188 376 342 c 0
 394.666992188 329.333007812 410.166992188 316.333007812 422.5 303 c 0
 434.833007812 289.666992188 444 275.333007812 450 260 c 0
 456 244.666992188 459 228 459 210 c 0
 459 179.333007812 452.166992188 150.5 438.5 123.5 c 0
 424.833007812 96.5 406.166992188 72.6669921875 382.5 52 c 0
 358.833007812 31.3330078125 330.833007812 15 298.5 3 c 0
 266.166992188 -9 231.333007812 -15 194 -15 c 0
 176 -15 156.333007812 -12.8330078125 135 -8.5 c 0
 113.666992188 -4.1669921875 93.5 1.5 74.5 8.5 c 0
 55.5 15.5 39.6669921875 23.5 27 32.5 c 0
 14.3330078125 41.5 8 51 8 61 c 0
 8 64.3330078125 9.5 69.1669921875 12.5 75.5 c 0
 15.5 81.8330078125 19.1669921875 88.8330078125 23.5 96.5 c 0
 27.8330078125 104.166992188 32.8330078125 111.833007812 38.5 119.5 c 0
 44.1669921875 127.166992188 49.8330078125 134.333007812 55.5 141 c 0
 61.1669921875 147.666992188 66.6669921875 153 72 157 c 0
 77.3330078125 161 81.6669921875 163 85 163 c 0
 88.3330078125 163 92.5 160.333007812 97.5 155 c 0
 102.5 149.666992188 108 143.166992188 114 135.5 c 0
 120 127.833007812 126.833007812 119.333007812 134.5 110 c 0
 142.166992188 100.666992188 150.833007812 92 160.5 84 c 0
 170.166992188 76 180.833007812 69.5 192.5 64.5 c 0
 204.166992188 59.5 217.333007812 57 232 57 c 0
 246 57 259.5 59.3330078125 272.5 64 c 0
 285.5 68.6669921875 296.666992188 75.3330078125 306 84 c 0
 315.333007812 92.6669921875 322.666992188 103.5 328 116.5 c 0
 333.333007812 129.5 336 144.333007812 336 161 c 0
 336 175.666992188 333.666992188 189.166992188 329 201.5 c 0
 324.333007812 213.833007812 316.5 225.5 305.5 236.5 c 0
 294.5 247.5 280.333007812 258.5 263 269.5 c 0
 245.666992188 280.5 224.666992188 291.666992188 200 303 c 0
 178.666992188 313 160.833007812 323.666992188 146.5 335 c 0
 132.166992188 346.333007812 121.166992188 358.166992188 113.5 370.5 c 0
 105.833007812 382.833007812 100.333007812 395.833007812 97 409.5 c 0
 93.6669921875 423.166992188 92 437.666992188 92 453 c 0
 92 474.333007812 97.6669921875 495.666992188 109 517 c 0
 120.333007812 538.333007812 136.333007812 557.333007812 157 574 c 0
 177.666992188 590.666992188 202.833007812 604.166992188 232.5 614.5 c 0
 262.166992188 624.833007812 295.333007812 630 332 630 c 0
 365.333007812 630 395.166992188 625.5 421.5 616.5 c 0
 447.833007812 607.5 468.666992188 597 484 585 c 0
EndSplineSet
EndChar

StartChar: T
Encoding: 55 84 55
Width: 548
VWidth: 500
Flags: HW
LayerCount: 2
Fore
SplineSet
382 0 m 0
 115 0 l 0
 121 41 l 0
 135 43.6669921875 146.666992188 46.6669921875 156 50 c 0
 165.333007812 53.3330078125 173 56.5 179 59.5 c 0
 185 62.5 189.166992188 65.3330078125 191.5 68 c 0
 193.833007812 70.6669921875 195 73.3330078125 195 76 c 0
 260 552 l 0
 152 552 l 0
 147.333007812 552 142.666992188 550 138 546 c 0
 133.333007812 542 128.166992188 535.666992188 122.5 527 c 0
 116.833007812 518.333007812 110.5 507.166992188 103.5 493.5 c 0
 96.5 479.833007812 88.3330078125 463.333007812 79 444 c 0
 43 458 l 0
 45 467.333007812 47.8330078125 479.333007812 51.5 494 c 0
 55.1669921875 508.666992188 58.8330078125 523.5 62.5 538.5 c 0
 66.1669921875 553.5 70 568 74 582 c 0
 78 596 81.3330078125 607 84 615 c 0
 579 615 l 0
 595 598 l 0
 593.666992188 589.333007812 591.5 578.666992188 588.5 566 c 0
 585.5 553.333007812 582 540 578 526 c 0
 567 485 l 0
 563.666992188 471 560.333007812 459 557 449 c 0
 518 449 l 0
 517.333007812 463.666992188 516.833007812 477.5 516.5 490.5 c 0
 516.166992188 503.5 515.333007812 514.5 514 523.5 c 0
 512.666992188 532.5 510.5 539.5 507.5 544.5 c 0
 504.5 549.5 500 552 494 552 c 0
 388 552 l 0
 323 76 l 0
 323 74 323.666992188 71.5 325 68.5 c 0
 326.333007812 65.5 329.5 62.5 334.5 59.5 c 0
 339.5 56.5 346.166992188 53.3330078125 354.5 50 c 0
 362.833007812 46.6669921875 374 43.6669921875 388 41 c 0
 382 0 l 0
EndSplineSet
EndChar

StartChar: U
Encoding: 56 85 56
Width: 625
VWidth: 500
Flags: HW
LayerCount: 2
Fore
SplineSet
654 575 m 0
 633.333007812 570.333007812 618.166992188 565.166992188 608.5 559.5 c 0
 598.833007812 553.833007812 593.666992188 548.666992188 593 544 c 0
 552 250 l 0
 546 207.333007812 535 169.5 519 136.5 c 0
 503 103.5 483.333007812 75.8330078125 460 53.5 c 0
 436.666992188 31.1669921875 410.333007812 14.1669921875 381 2.5 c 0
 351.666992188 -9.1669921875 321 -15 289 -15 c 0
 262.333007812 -15 236.666992188 -11 212 -3 c 0
 187.333007812 5 165.5 16.8330078125 146.5 32.5 c 0
 127.5 48.1669921875 112.166992188 67.5 100.5 90.5 c 0
 88.8330078125 113.5 83 140 83 170 c 0
 83 187.333007812 84.6669921875 206 88 226 c 0
 133 544 l 0
 133 548 128.833007812 553 120.5 559 c 0
 112.166992188 565 97.6669921875 570.333007812 77 575 c 0
 83 615 l 0
 329 615 l 0
 324 575 l 0
 303.333007812 570.333007812 287.5 565.166992188 276.5 559.5 c 0
 265.5 553.833007812 259.666992188 548.666992188 259 544 c 0
 216 249 l 0
 214.666992188 239.666992188 213.5 230.333007812 212.5 221 c 0
 211.5 211.666992188 211 202.666992188 211 194 c 0
 211 148.666992188 220.5 115.333007812 239.5 94 c 0
 258.5 72.6669921875 288.333007812 62 329 62 c 0
 350.333007812 62 368.666992188 66 384 74 c 0
 399.333007812 82 412.166992188 93.5 422.5 108.5 c 0
 432.833007812 123.5 441.333007812 141.166992188 448 161.5 c 0
 454.666992188 181.833007812 459.333007812 204.333007812 462 229 c 0
 507 544 l 0
 507 546 506.166992188 548.333007812 504.5 551 c 0
 502.833007812 553.666992188 500 556.333007812 496 559 c 0
 492 561.666992188 486.5 564.333007812 479.5 567 c 0
 472.5 569.666992188 464 572.333007812 454 575 c 0
 459 615 l 0
 660 615 l 0
 654 575 l 0
EndSplineSet
EndChar

StartChar: V
Encoding: 57 86 57
Width: 613
VWidth: 500
Flags: HW
LayerCount: 2
Fore
SplineSet
662 575 m 0
 640.666992188 571 624 566.833007812 612 562.5 c 0
 600 558.166992188 591.666992188 551.333007812 587 542 c 0
 350 43 l 0
 346.666992188 35.6669921875 341 29 333 23 c 0
 325 17 316.166992188 11.6669921875 306.5 7 c 0
 296.833007812 2.3330078125 286.5 -1.8330078125 275.5 -5.5 c 0
 264.5 -9.1669921875 254.666992188 -12.3330078125 246 -15 c 0
 114 542 l 0
 112 550.666992188 106.833007812 557.666992188 98.5 563 c 0
 90.1669921875 568.333007812 76.6669921875 572.333007812 58 575 c 0
 63 615 l 0
 307 615 l 0
 301 575 l 0
 276.333007812 573 260 569.666992188 252 565 c 0
 244 560.333007812 241 553 243 543 c 0
 333 153 l 0
 515 542 l 0
 517 546.666992188 517.833007812 550.833007812 517.5 554.5 c 0
 517.166992188 558.166992188 515 561.166992188 511 563.5 c 0
 507 565.833007812 501.166992188 567.833007812 493.5 569.5 c 0
 485.833007812 571.166992188 476 573 464 575 c 0
 470 615 l 0
 667 615 l 0
 662 575 l 0
EndSplineSet
EndChar

StartChar: W
Encoding: 58 87 58
Width: 782
VWidth: 500
Flags: HW
LayerCount: 2
Fore
SplineSet
835 575 m 0
 821 572.333007812 809.5 569.5 800.5 566.5 c 0
 791.5 563.5 784.333007812 560.833007812 779 558.5 c 0
 773.666992188 556.166992188 769.666992188 553.833007812 767 551.5 c 0
 764.333007812 549.166992188 762.666992188 546.666992188 762 544 c 0
 587 29 l 0
 585 22.3330078125 580.833007812 16.3330078125 574.5 11 c 0
 568.166992188 5.6669921875 561.333007812 1.3330078125 554 -2 c 0
 546.666992188 -5.3330078125 539.333007812 -8 532 -10 c 0
 524.666992188 -12 518.333007812 -13.6669921875 513 -15 c 0
 415 417 l 0
 232 29 l 0
 229.333007812 22.3330078125 224.666992188 16.5 218 11.5 c 0
 211.333007812 6.5 204.333007812 2.3330078125 197 -1 c 0
 189.666992188 -4.3330078125 182 -7.1669921875 174 -9.5 c 0
 166 -11.8330078125 159 -13.6669921875 153 -15 c 0
 111 541 l 0
 110.333007812 549 105.666992188 555.5 97 560.5 c 0
 88.3330078125 565.5 73.6669921875 570.333007812 53 575 c 0
 59 615 l 0
 290 615 l 0
 284 575 l 0
 269.333007812 573.666992188 257.666992188 571.666992188 249 569 c 0
 240.333007812 566.333007812 234 563.5 230 560.5 c 0
 226 557.5 223.666992188 554.333007812 223 551 c 0
 222.333007812 547.666992188 222 544.333007812 222 541 c 0
 250 210 l 0
 434 615 l 0
 486 615 l 0
 580 210 l 0
 694 544 l 0
 695.333007812 548 694.666992188 551.5 692 554.5 c 0
 689.333007812 557.5 684.833007812 560.166992188 678.5 562.5 c 0
 672.166992188 564.833007812 664.833007812 567 656.5 569 c 0
 648.166992188 571 639 573 629 575 c 0
 634 615 l 0
 840 615 l 0
 835 575 l 0
EndSplineSet
EndChar

StartChar: X
Encoding: 59 88 59
Width: 598
VWidth: 500
Flags: HW
LayerCount: 2
Fore
SplineSet
551 0 m 0
 297 0 l 0
 302 41 l 0
 316 42.3330078125 327.166992188 44 335.5 46 c 0
 343.833007812 48 350 50.5 354 53.5 c 0
 358 56.5 360 60.3330078125 360 65 c 0
 360 69.6669921875 358.333007812 75.3330078125 355 82 c 0
 276 238 l 0
 155 82 l 0
 149.666992188 74.6669921875 145.833007812 68.6669921875 143.5 64 c 0
 141.166992188 59.3330078125 141.166992188 55.3330078125 143.5 52 c 0
 145.833007812 48.6669921875 150.666992188 46.1669921875 158 44.5 c 0
 165.333007812 42.8330078125 176 41.6669921875 190 41 c 0
 185 0 l 0
 -20 0 l 0
 -14 41 l 0
 6 42.3330078125 23.1669921875 46.1669921875 37.5 52.5 c 0
 51.8330078125 58.8330078125 64 68.6669921875 74 82 c 0
 243 305 l 0
 128 534 l 0
 124.666992188 541.333007812 121.166992188 547.166992188 117.5 551.5 c 0
 113.833007812 555.833007812 109.666992188 559.5 105 562.5 c 0
 100.333007812 565.5 94.6669921875 567.833007812 88 569.5 c 0
 81.3330078125 571.166992188 73 573 63 575 c 0
 69 615 l 0
 328 615 l 0
 323 575 l 0
 297 572.333007812 279.5 568.333007812 270.5 563 c 0
 261.5 557.666992188 260.666992188 548 268 534 c 0
 337 396 l 0
 438 534 l 0
 443.333007812 541.333007812 447 547.333007812 449 552 c 0
 451 556.666992188 450.666992188 560.5 448 563.5 c 0
 445.333007812 566.5 440.333007812 568.833007812 433 570.5 c 0
 425.666992188 572.166992188 415.333007812 573.666992188 402 575 c 0
 408 615 l 0
 613 615 l 0
 608 575 l 0
 596.666992188 573.666992188 586.666992188 572 578 570 c 0
 569.333007812 568 561.333007812 565.5 554 562.5 c 0
 546.666992188 559.5 540.166992188 555.666992188 534.5 551 c 0
 528.833007812 546.333007812 523.666992188 540.666992188 519 534 c 0
 370 331 l 0
 495 82 l 0
 498.333007812 75.3330078125 501.833007812 69.5 505.5 64.5 c 0
 509.166992188 59.5 513.333007812 55.5 518 52.5 c 0
 522.666992188 49.5 528 47 534 45 c 0
 540 43 547.666992188 41.6669921875 557 41 c 0
 551 0 l 0
EndSplineSet
EndChar

StartChar: Y
Encoding: 60 89 60
Width: 575
VWidth: 500
Flags: HW
LayerCount: 2
Fore
SplineSet
403 0 m 0
 135 0 l 0
 140 41 l 0
 154 43.6669921875 165.666992188 46.6669921875 175 50 c 0
 184.333007812 53.3330078125 192 56.5 198 59.5 c 0
 204 62.5 208.166992188 65.3330078125 210.5 68 c 0
 212.833007812 70.6669921875 214.333007812 73.3330078125 215 76 c 0
 240 258 l 0
 232.666992188 284 224.166992188 310.5 214.5 337.5 c 0
 204.833007812 364.5 194.833007812 390.666992188 184.5 416 c 0
 174.166992188 441.333007812 164 465 154 487 c 0
 144 509 134.666992188 527.333007812 126 542 c 0
 124 545.333007812 121.833007812 548.5 119.5 551.5 c 0
 117.166992188 554.5 113.666992188 557 109 559 c 0
 104.333007812 561 98.1669921875 562.333007812 90.5 563 c 0
 82.8330078125 563.666992188 72.6669921875 564 60 564 c 0
 63 605 l 0
 72.3330078125 606.333007812 83 607.833007812 95 609.5 c 0
 107 611.166992188 119.166992188 612.833007812 131.5 614.5 c 0
 143.833007812 616.166992188 155.333007812 617.5 166 618.5 c 0
 176.666992188 619.5 185 620 191 620 c 0
 200.333007812 620 209.333007812 617.833007812 218 613.5 c 0
 226.666992188 609.166992188 233.333007812 603.333007812 238 596 c 0
 246.666992188 580 255.666992188 561.5 265 540.5 c 0
 274.333007812 519.5 283.666992188 497.5 293 474.5 c 0
 302.333007812 451.5 311.166992188 427.666992188 319.5 403 c 0
 327.833007812 378.333007812 335.666992188 354.333007812 343 331 c 0
 473 542 l 0
 478.333007812 550.666992188 477.666992188 557.5 471 562.5 c 0
 464.333007812 567.5 449.666992188 571.666992188 427 575 c 0
 432 615 l 0
 625 615 l 0
 620 575 l 0
 598.666992188 571 583 566.666992188 573 562 c 0
 563 557.333007812 555.333007812 550.666992188 550 542 c 0
 366 252 l 0
 342 76 l 0
 342 74 342.833007812 71.5 344.5 68.5 c 0
 346.166992188 65.5 349.333007812 62.5 354 59.5 c 0
 358.666992188 56.5 365.5 53.3330078125 374.5 50 c 0
 383.5 46.6669921875 394.666992188 43.6669921875 408 41 c 0
 403 0 l 0
EndSplineSet
EndChar

StartChar: Z
Encoding: 61 90 61
Width: 526
VWidth: 500
Flags: HW
LayerCount: 2
Fore
SplineSet
168 68 m 0
 365 68 l 0
 371.666992188 68 378 70.8330078125 384 76.5 c 0
 390 82.1669921875 396 90.3330078125 402 101 c 0
 408 111.666992188 414.5 124.833007812 421.5 140.5 c 0
 428.5 156.166992188 436 174 444 194 c 0
 486 182 l 0
 484 171.333007812 481.666992188 157.666992188 479 141 c 0
 476.333007812 124.333007812 473.5 107.166992188 470.5 89.5 c 0
 467.5 71.8330078125 464.666992188 54.8330078125 462 38.5 c 0
 459.333007812 22.1669921875 457.333007812 9.3330078125 456 0 c 0
 20 0 l 0
 5 27 l 0
 376 547 l 0
 209 547 l 0
 204.333007812 547 198.5 543.833007812 191.5 537.5 c 0
 184.5 531.166992188 177.166992188 522.666992188 169.5 512 c 0
 161.833007812 501.333007812 154.333007812 488.666992188 147 474 c 0
 139.666992188 459.333007812 133 443.333007812 127 426 c 0
 85 437 l 0
 128 623 l 0
 136 621 143.333007812 619.5 150 618.5 c 0
 156.666992188 617.5 163.166992188 616.666992188 169.5 616 c 0
 175.833007812 615.333007812 182.333007812 615 189 615 c 0
 525 615 l 0
 537 589 l 0
 168 68 l 0
EndSplineSet
EndChar

StartChar: bracketleft
Encoding: 62 91 62
Width: 375
VWidth: 500
Flags: HW
LayerCount: 2
Fore
SplineSet
425 763 m 0
 424.333007812 759 422.666992188 754.166992188 420 748.5 c 0
 417.333007812 742.833007812 414.5 737.166992188 411.5 731.5 c 0
 408.5 725.833007812 405.666992188 720.666992188 403 716 c 0
 400.333007812 711.333007812 398.333007812 708.333007812 397 707 c 0
 270 707 l 0
 161 -88 l 0
 286 -88 l 0
 305 -107 l 0
 304.333007812 -110.333007812 302.666992188 -114.666992188 300 -120 c 0
 297.333007812 -125.333007812 294.666992188 -130.833007812 292 -136.5 c 0
 289.333007812 -142.166992188 286.666992188 -147.5 284 -152.5 c 0
 281.333007812 -157.5 279.333007812 -161.333007812 278 -164 c 0
 32 -164 l 0
 165 781 l 0
 407 781 l 0
 425 763 l 0
EndSplineSet
EndChar

StartChar: backslash
Encoding: 63 92 63
Width: 424
VWidth: 500
Flags: HW
LayerCount: 2
Fore
SplineSet
340 -164 m 0
 336.666992188 -162.666992188 330.833007812 -160.5 322.5 -157.5 c 0
 314.166992188 -154.5 305.333007812 -151.333007812 296 -148 c 0
 286.666992188 -144.666992188 278 -141.333007812 270 -138 c 0
 262 -134.666992188 256.666992188 -131.666992188 254 -129 c 0
 66 765 l 0
 89 781 l 0
 93.6669921875 779.666992188 100 777.666992188 108 775 c 0
 116 772.333007812 124.333007812 769.5 133 766.5 c 0
 141.666992188 763.5 149.833007812 760.166992188 157.5 756.5 c 0
 165.166992188 752.833007812 171 749.666992188 175 747 c 0
 362 -147 l 0
 340 -164 l 0
EndSplineSet
EndChar

StartChar: bracketright
Encoding: 64 93 64
Width: 344
VWidth: 500
Flags: HW
LayerCount: 2
Fore
SplineSet
219 -164 m 0
 -23 -164 l 0
 -42 -145 l 0
 -40.6669921875 -141 -38.8330078125 -136.333007812 -36.5 -131 c 0
 -34.1669921875 -125.666992188 -31.6669921875 -120.166992188 -29 -114.5 c 0
 -26.3330078125 -108.833007812 -23.8330078125 -103.5 -21.5 -98.5 c 0
 -19.1669921875 -93.5 -17.3330078125 -90 -16 -88 c 0
 112 -88 l 0
 224 707 l 0
 100 707 l 0
 81 724 l 0
 81.6669921875 727.333007812 83.1669921875 731.833007812 85.5 737.5 c 0
 87.8330078125 743.166992188 90.3330078125 748.666992188 93 754 c 0
 95.6669921875 759.333007812 98.1669921875 764.5 100.5 769.5 c 0
 102.833007812 774.5 104.666992188 778.333007812 106 781 c 0
 351 781 l 0
 219 -164 l 0
EndSplineSet
EndChar

StartChar: asciicircum
Encoding: 65 94 65
Width: 458
VWidth: 500
Flags: HW
LayerCount: 2
Fore
SplineSet
417 310 m 0
 407.666992188 302.666992188 399 296.5 391 291.5 c 0
 383 286.5 373.666992188 281.333007812 363 276 c 0
 348 289 l 0
 270 642 l 0
 109 310 l 0
 105.666992188 306.666992188 101.5 303.333007812 96.5 300 c 0
 91.5 296.666992188 86.5 293.5 81.5 290.5 c 0
 76.5 287.5 71.6669921875 284.666992188 67 282 c 0
 62.3330078125 279.333007812 58.3330078125 277.333007812 55 276 c 0
 46 289 l 0
 252 714 l 0
 256 718 261 722 267 726 c 0
 276 732 276 732 285 738 c 0
 291 742 297 745.5 303 748.5 c 0
 309 751.5 314.333007812 754.333007812 319 757 c 0
 417 310 l 0
EndSplineSet
EndChar

StartChar: underscore
Encoding: 66 95 66
Width: 454
VWidth: 500
Flags: HW
LayerCount: 2
Fore
SplineSet
396 -81 m 0
 395.333007812 -84.3330078125 393.666992188 -88.8330078125 391 -94.5 c 0
 388.333007812 -100.166992188 385.5 -105.833007812 382.5 -111.5 c 0
 379.5 -117.166992188 376.666992188 -122.5 374 -127.5 c 0
 371.333007812 -132.5 369 -136.666992188 367 -140 c 0
 1 -140 l 0
 -11 -122 l 0
 -10.3330078125 -118.666992188 -8.6669921875 -114.5 -6 -109.5 c 0
 -3.3330078125 -104.5 -0.6669921875 -99 2 -93 c 0
 4.6669921875 -87 7.6669921875 -81.5 11 -76.5 c 0
 14.3330078125 -71.5 17 -67.3330078125 19 -64 c 0
 382 -64 l 0
 396 -81 l 0
EndSplineSet
EndChar

StartChar: grave
Encoding: 67 96 67
Width: 295
VWidth: 500
Flags: HW
LayerCount: 2
Fore
SplineSet
284 516 m 0
 277.333007812 512 269.666992188 508.166992188 261 504.5 c 0
 252.333007812 500.833007812 245 498 239 496 c 0
 92 670 l 0
 113 697 l 0
 117 697.666992188 124.333007812 699.166992188 135 701.5 c 0
 145.666992188 703.833007812 157 706.166992188 169 708.5 c 0
 181 710.833007812 192.333007812 712.833007812 203 714.5 c 0
 213.666992188 716.166992188 221.333007812 717 226 717 c 0
 284 516 l 0
EndSplineSet
EndChar

StartChar: a
Encoding: 68 97 68
Width: 491
VWidth: 500
Flags: HW
LayerCount: 2
Fore
SplineSet
491 58 m 0
 477 48 463 38.3330078125 449 29 c 0
 435 19.6669921875 421.666992188 11.3330078125 409 4 c 0
 396.333007812 -3.3330078125 384.833007812 -9.1669921875 374.5 -13.5 c 0
 364.166992188 -17.8330078125 356.333007812 -20 351 -20 c 0
 345.666992188 -20 339.333007812 -18.3330078125 332 -15 c 0
 324.666992188 -11.6669921875 317.5 -5.8330078125 310.5 2.5 c 0
 303.5 10.8330078125 297 21.6669921875 291 35 c 0
 285 48.3330078125 280.666992188 65.3330078125 278 86 c 0
 267.333007812 72 256.166992188 58.5 244.5 45.5 c 0
 232.833007812 32.5 220.666992188 21.1669921875 208 11.5 c 0
 195.333007812 1.8330078125 182.5 -5.8330078125 169.5 -11.5 c 0
 156.5 -17.1669921875 143.333007812 -20 130 -20 c 0
 118 -20 105.333007812 -16.8330078125 92 -10.5 c 0
 78.6669921875 -4.1669921875 66.3330078125 5.6669921875 55 19 c 0
 43.6669921875 32.3330078125 34.3330078125 49.6669921875 27 71 c 0
 19.6669921875 92.3330078125 16 118.333007812 16 149 c 0
 16 175 19.3330078125 200.166992188 26 224.5 c 0
 32.6669921875 248.833007812 42.1669921875 272.333007812 54.5 295 c 0
 66.8330078125 317.666992188 82 338.833007812 100 358.5 c 0
 118 378.166992188 138.666992188 395.666992188 162 411 c 0
 179.333007812 423 200.666992188 433.666992188 226 443 c 0
 251.333007812 452.333007812 279 457 309 457 c 0
 323 457 336.5 454 349.5 448 c 0
 362.5 442 375 435.333007812 387 428 c 0
 399.666992188 433.333007812 411.833007812 438.333007812 423.5 443 c 0
 435.166992188 447.666992188 445.666992188 452.333007812 455 457 c 0
 472 420 l 0
 466.666992188 415.333007812 462.166992188 411.333007812 458.5 408 c 0
 454.833007812 404.666992188 451.666992188 400.666992188 449 396 c 0
 446.333007812 391.333007812 443.833007812 385.5 441.5 378.5 c 0
 439.166992188 371.5 437 362.666992188 435 352 c 0
 430.333007812 328.666992188 426.166992188 306.333007812 422.5 285 c 0
 418.833007812 263.666992188 415.666992188 244.333007812 413 227 c 0
 410.333007812 209.666992188 408.333007812 194.5 407 181.5 c 0
 405.666992188 168.5 405 158.333007812 405 151 c 0
 405 142.333007812 405.666992188 133.833007812 407 125.5 c 0
 408.333007812 117.166992188 410.333007812 109.666992188 413 103 c 0
 415.666992188 96.3330078125 418.5 91 421.5 87 c 0
 424.5 83 428 81 432 81 c 0
 438.666992188 81 445.5 81.8330078125 452.5 83.5 c 0
 459.5 85.1669921875 469.666992188 89 483 95 c 0
 491 58 l 0
282 176 m 0
 283.333007812 189.333007812 285.166992188 203.833007812 287.5 219.5 c 0
 291 243 291 243 294.5 266.5 c 0
 296.833007812 282.166992188 299.333007812 297.166992188 302 311.5 c 0
 304.666992188 325.833007812 307 338.333007812 309 349 c 0
 299.666992188 357.666992188 290.333007812 365.333007812 281 372 c 0
 271.666992188 378.666992188 262.666992188 381.666992188 254 381 c 0
 240.666992188 381 228.666992188 377.833007812 218 371.5 c 0
 207.333007812 365.166992188 197.833007812 357 189.5 347 c 0
 181.166992188 337 174 325.333007812 168 312 c 0
 162 298.666992188 157 284.666992188 153 270 c 0
 149 255.333007812 146.166992188 240.666992188 144.5 226 c 0
 142.833007812 211.333007812 142 197.666992188 142 185 c 0
 142 167.666992188 143 152.833007812 145 140.5 c 0
 147 128.166992188 150 117.833007812 154 109.5 c 0
 158 101.166992188 162.333007812 95.1669921875 167 91.5 c 0
 171.666992188 87.8330078125 176.666992188 86 182 86 c 0
 186 86 191.166992188 87.5 197.5 90.5 c 0
 203.833007812 93.5 211 98.5 219 105.5 c 0
 227 112.5 236.333007812 121.833007812 247 133.5 c 0
 257.666992188 145.166992188 269.333007812 159.333007812 282 176 c 0
EndSplineSet
EndChar

StartChar: b
Encoding: 69 98 69
Width: 508
VWidth: 500
Flags: HW
LayerCount: 2
Fore
SplineSet
483 298 m 0
 482.333007812 263.333007812 474.333007812 228.333007812 459 193 c 0
 443.666992188 157.666992188 423.666992188 124 399 92 c 0
 387.666992188 77.3330078125 374.666992188 63.1669921875 360 49.5 c 0
 345.333007812 35.8330078125 329.5 24 312.5 14 c 0
 295.5 4 277.333007812 -4.1669921875 258 -10.5 c 0
 238.666992188 -16.8330078125 219 -20 199 -20 c 0
 191.666992188 -20 182.833007812 -18.1669921875 172.5 -14.5 c 0
 162.166992188 -10.8330078125 151.666992188 -6 141 0 c 0
 130.333007812 6 119.833007812 13.5 109.5 22.5 c 0
 99.1669921875 31.5 90 41.1669921875 82 51.5 c 0
 74 61.8330078125 67.3330078125 72.8330078125 62 84.5 c 0
 56.6669921875 96.1669921875 54 108.333007812 54 121 c 0
 54 129.666992188 55 142.333007812 57 159 c 0
 59 175.666992188 61.5 194.833007812 64.5 216.5 c 0
 67.5 238.166992188 71 261.833007812 75 287.5 c 0
 79 313.166992188 83 339.166992188 87 365.5 c 0
 91 391.833007812 95 417.833007812 99 443.5 c 0
 103 469.166992188 106.666992188 493.333007812 110 516 c 0
 113.333007812 538.666992188 116 558.833007812 118 576.5 c 0
 120 594.166992188 121 608 121 618 c 0
 121 625.333007812 120.166992188 631.333007812 118.5 636 c 0
 116.833007812 640.666992188 114.666992188 644 112 646 c 0
 109.333007812 648 106.5 649.333007812 103.5 650 c 0
 100.5 650.666992188 97.6669921875 651 95 651 c 0
 92.3330078125 651 88.3330078125 650.166992188 83 648.5 c 0
 77.6669921875 646.833007812 72.6669921875 645.333007812 68 644 c 0
 62 642 56.3330078125 640 51 638 c 0
 42 676 l 0
 56.6669921875 683.333007812 73.8330078125 690.833007812 93.5 698.5 c 0
 113.166992188 706.166992188 132.166992188 713.333007812 150.5 720 c 0
 168.833007812 726.666992188 185.666992188 732 201 736 c 0
 216.333007812 740 227 742 233 742 c 0
 244.333007812 742 252 739.166992188 256 733.5 c 0
 260 727.833007812 262 717.333007812 262 702 c 0
 262 688 260.5 669 257.5 645 c 0
 254.5 621 250.833007812 593.833007812 246.5 563.5 c 0
 242.166992188 533.166992188 237.333007812 501 232 467 c 0
 226.666992188 433 221.333007812 399.333007812 216 366 c 0
 232 385.333007812 247 401 261 413 c 0
 275 425 288.166992188 434.166992188 300.5 440.5 c 0
 312.833007812 446.833007812 324.5 451.166992188 335.5 453.5 c 0
 346.5 455.833007812 356.333007812 457 365 457 c 0
 381.666992188 457 397.166992188 453.666992188 411.5 447 c 0
 425.833007812 440.333007812 438.333007812 430.166992188 449 416.5 c 0
 459.666992188 402.833007812 468 386.166992188 474 366.5 c 0
 480 346.833007812 483 324 483 298 c 0
307 363 m 0
 303 363 297.666992188 361.333007812 291 358 c 0
 284.333007812 354.666992188 276.333007812 348.666992188 267 340 c 0
 257.666992188 331.333007812 247.333007812 320 236 306 c 0
 224.666992188 292 212 274 198 252 c 0
 195.333007812 230.666992188 193 211.5 191 194.5 c 0
 189 177.5 188 164 188 154 c 0
 188 145.333007812 190.5 136.833007812 195.5 128.5 c 0
 200.5 120.166992188 206.666992188 112.5 214 105.5 c 0
 221.333007812 98.5 228.833007812 92.8330078125 236.5 88.5 c 0
 244.166992188 84.1669921875 250.666992188 81.6669921875 256 81 c 0
 270 80.3330078125 282 83.1669921875 292 89.5 c 0
 302 95.8330078125 311 105 319 117 c 0
 325 125.666992188 330.333007812 136 335 148 c 0
 339.666992188 160 343.5 172.333007812 346.5 185 c 0
 349.5 197.666992188 351.5 210.333007812 352.5 223 c 0
 353.5 235.666992188 354 247.666992188 354 259 c 0
 354 273.666992188 353.166992188 287.333007812 351.5 300 c 0
 349.833007812 312.666992188 346.833007812 323.666992188 342.5 333 c 0
 338.166992188 342.333007812 333.166992188 349.666992188 327.5 355 c 0
 321.833007812 360.333007812 315 363 307 363 c 0
EndSplineSet
EndChar

StartChar: c
Encoding: 70 99 70
Width: 438
VWidth: 500
Flags: HW
LayerCount: 2
Fore
SplineSet
458 403 m 0
 451.333007812 395.666992188 442.833007812 387 432.5 377 c 0
 422.166992188 367 411.666992188 357.666992188 401 349 c 0
 390.333007812 340.333007812 380.166992188 333 370.5 327 c 0
 360.833007812 321 353.333007812 318 348 318 c 0
 342 318 336.333007812 321.333007812 331 328 c 0
 325.666992188 334.666992188 320 341.833007812 314 349.5 c 0
 308 357.166992188 301.333007812 364.333007812 294 371 c 0
 286.666992188 377.666992188 278.333007812 381 269 381 c 0
 253 381 238.666992188 375.666992188 226 365 c 0
 213.333007812 354.333007812 202.666992188 340 194 322 c 0
 185.333007812 304 178.666992188 284 174 262 c 0
 169.333007812 240 167 217.333007812 167 194 c 0
 167 152 172.833007812 119.5 184.5 96.5 c 0
 196.166992188 73.5 211 62 229 62 c 0
 248.333007812 62 270.5 69 295.5 83 c 0
 320.5 97 350.666992188 118.333007812 386 147 c 0
 387.333007812 145.666992188 389.333007812 143 392 139 c 0
 394.666992188 135 397.333007812 130.833007812 400 126.5 c 0
 402.666992188 122.166992188 405.333007812 118.166992188 408 114.5 c 0
 410.666992188 110.833007812 412.333007812 108.333007812 413 107 c 0
 387.666992188 83.6669921875 364.166992188 64 342.5 48 c 0
 320.833007812 32 300.666992188 19 282 9 c 0
 263.333007812 -1 245.833007812 -8.3330078125 229.5 -13 c 0
 213.166992188 -17.6669921875 197 -20 181 -20 c 0
 166.333007812 -20 150.666992188 -17.1669921875 134 -11.5 c 0
 117.333007812 -5.8330078125 101.833007812 3.8330078125 87.5 17.5 c 0
 73.1669921875 31.1669921875 61.3330078125 49.3330078125 52 72 c 0
 42.6669921875 94.6669921875 38 123 38 157 c 0
 38 179 40.1669921875 201.166992188 44.5 223.5 c 0
 48.8330078125 245.833007812 56.1669921875 267.5 66.5 288.5 c 0
 76.8330078125 309.5 90.1669921875 329.5 106.5 348.5 c 0
 122.833007812 367.5 143 385 167 401 c 0
 176.333007812 407 187.166992188 413.333007812 199.5 420 c 0
 211.833007812 426.666992188 225.166992188 432.666992188 239.5 438 c 0
 253.833007812 443.333007812 268.666992188 447.833007812 284 451.5 c 0
 299.333007812 455.166992188 314.333007812 457 329 457 c 0
 343 457 355.833007812 454.833007812 367.5 450.5 c 0
 379.166992188 446.166992188 390 441 400 435 c 0
 410 429 419.666992188 423 429 417 c 0
 438.333007812 411 448 406.333007812 458 403 c 0
EndSplineSet
EndChar

StartChar: d
Encoding: 71 100 71
Width: 504
VWidth: 500
Flags: HW
LayerCount: 2
Fore
SplineSet
493 57 m 0
 472 43 472 43 451 29 c 0
 437 19.6669921875 423.666992188 11.5 411 4.5 c 0
 398.333007812 -2.5 386.666992188 -8.3330078125 376 -13 c 0
 365.333007812 -17.6669921875 356.666992188 -20 350 -20 c 0
 344.666992188 -20 338.333007812 -18.1669921875 331 -14.5 c 0
 323.666992188 -10.8330078125 316.5 -4.8330078125 309.5 3.5 c 0
 302.5 11.8330078125 296.166992188 22.8330078125 290.5 36.5 c 0
 284.833007812 50.1669921875 281 67 279 87 c 0
 251 49.6669921875 224.333007812 22.5 199 5.5 c 0
 173.666992188 -11.5 150.666992188 -20 130 -20 c 0
 116.666992188 -20 103.166992188 -16.6669921875 89.5 -10 c 0
 75.8330078125 -3.3330078125 63.6669921875 7 53 21 c 0
 42.3330078125 35 33.5 53 26.5 75 c 0
 19.5 97 16 123.333007812 16 154 c 0
 16 180 19.3330078125 205 26 229 c 0
 32.6669921875 253 42.1669921875 276 54.5 298 c 0
 66.8330078125 320 82 340.5 100 359.5 c 0
 118 378.5 138.666992188 395.666992188 162 411 c 0
 171.333007812 417 181.5 422.666992188 192.5 428 c 0
 203.5 433.333007812 215.166992188 438.166992188 227.5 442.5 c 0
 239.833007812 446.833007812 252.5 450.333007812 265.5 453 c 0
 278.5 455.666992188 291.333007812 457 304 457 c 0
 307.333007812 457 310.666992188 456.5 314 455.5 c 0
 317.333007812 454.5 321 453 325 451 c 0
 330.333007812 487 334.833007812 519.833007812 338.5 549.5 c 0
 342.166992188 579.166992188 344 602 344 618 c 0
 344 625.333007812 343.333007812 631.333007812 342 636 c 0
 340.666992188 640.666992188 339 644 337 646 c 0
 335 648 332.666992188 649.333007812 330 650 c 0
 327.333007812 650.666992188 324.666992188 651 322 651 c 0
 319.333007812 651 315.333007812 650.166992188 310 648.5 c 0
 304.666992188 646.833007812 299.333007812 645.333007812 294 644 c 0
 288 642 281.333007812 640 274 638 c 0
 266 676 l 0
 283.333007812 684.666992188 301.333007812 693 320 701 c 0
 338.666992188 709 356.5 716 373.5 722 c 0
 390.5 728 405.5 732.833007812 418.5 736.5 c 0
 431.5 740.166992188 441.333007812 742 448 742 c 0
 459.333007812 742 468.333007812 739.166992188 475 733.5 c 0
 481.666992188 727.833007812 485 717.333007812 485 702 c 0
 485 689.333007812 483.833007812 673.166992188 481.5 653.5 c 0
 479.166992188 633.833007812 476.166992188 611.666992188 472.5 587 c 0
 468.833007812 562.333007812 464.666992188 536 460 508 c 0
 455.333007812 480 450.5 452 445.5 424 c 0
 440.5 396 435.5 368.333007812 430.5 341 c 0
 425.5 313.666992188 421.166992188 288.166992188 417.5 264.5 c 0
 413.833007812 240.833007812 410.833007812 219.5 408.5 200.5 c 0
 406.166992188 181.5 405 166.666992188 405 156 c 0
 405 131.333007812 407.666992188 112.833007812 413 100.5 c 0
 418.333007812 88.1669921875 424.666992188 82 432 82 c 0
 440 82 447.833007812 82.8330078125 455.5 84.5 c 0
 463.166992188 86.1669921875 472.666992188 89.6669921875 484 95 c 0
 493 57 l 0
282 179 m 0
 285.333007812 201 289.333007812 226.666992188 294 256 c 0
 298.666992188 285.333007812 303.666992188 316.333007812 309 349 c 0
 300.333007812 357.666992188 291.5 365.166992188 282.5 371.5 c 0
 273.5 377.833007812 263.666992188 381 253 381 c 0
 239.666992188 381 227.833007812 378 217.5 372 c 0
 207.166992188 366 197.833007812 357.833007812 189.5 347.5 c 0
 181.166992188 337.166992188 174 325.333007812 168 312 c 0
 162 298.666992188 157 284.833007812 153 270.5 c 0
 149 256.166992188 146.166992188 241.5 144.5 226.5 c 0
 142.833007812 211.5 142 197.666992188 142 185 c 0
 142 150.333007812 146 125.166992188 154 109.5 c 0
 162 93.8330078125 172 86 184 86 c 0
 187.333007812 86 191.666992188 87.1669921875 197 89.5 c 0
 202.333007812 91.8330078125 209 96.3330078125 217 103 c 0
 225 109.666992188 234.333007812 119.166992188 245 131.5 c 0
 255.666992188 143.833007812 268 159.666992188 282 179 c 0
EndSplineSet
EndChar

StartChar: e
Encoding: 72 101 72
Width: 432
VWidth: 500
Flags: HW
LayerCount: 2
Fore
SplineSet
196 353 m 0
 188.666992188 343.666992188 182.333007812 334.166992188 177 324.5 c 0
 171.666992188 314.833007812 167 304.5 163 293.5 c 0
 159 282.5 155.833007812 270.833007812 153.5 258.5 c 0
 151.166992188 246.166992188 149.666992188 232.666992188 149 218 c 0
 177.666992188 232 200.666992188 244.333007812 218 255 c 0
 235.333007812 265.666992188 248.5 275.833007812 257.5 285.5 c 0
 266.5 295.166992188 272.166992188 304.833007812 274.5 314.5 c 0
 276.833007812 324.166992188 278 334 278 344 c 0
 278 357.333007812 275.166992188 367.666992188 269.5 375 c 0
 263.833007812 382.333007812 256.666992188 386 248 386 c 0
 245.333007812 386 241.833007812 385.166992188 237.5 383.5 c 0
 233.166992188 381.833007812 228.666992188 379.666992188 224 377 c 0
 219.333007812 374.333007812 214.5 371 209.5 367 c 0
 204.5 363 200 358.333007812 196 353 c 0
415 371 m 0
 415 362.333007812 414 352.833007812 412 342.5 c 0
 410 332.166992188 405.833007812 321.333007812 399.5 310 c 0
 393.166992188 298.666992188 384 286.833007812 372 274.5 c 0
 360 262.166992188 344.333007812 249.5 325 236.5 c 0
 305.666992188 223.5 281.833007812 210.166992188 253.5 196.5 c 0
 225.166992188 182.833007812 191.333007812 169 152 155 c 0
 156.666992188 125.666992188 165 102.833007812 177 86.5 c 0
 189 70.1669921875 202.666992188 62 218 62 c 0
 232 62 252.5 69 279.5 83 c 0
 306.5 97 339.666992188 120 379 152 c 0
 381 151.333007812 383.333007812 149 386 145 c 0
 388.666992188 141 391.166992188 136.833007812 393.5 132.5 c 0
 395.833007812 128.166992188 398 124 400 120 c 0
 404 112 l 0
 377.333007812 88.6669921875 352.833007812 68.6669921875 330.5 52 c 0
 308.166992188 35.3330078125 287.666992188 21.6669921875 269 11 c 0
 250.333007812 0.3330078125 232.666992188 -7.5 216 -12.5 c 0
 199.333007812 -17.5 183.333007812 -20 168 -20 c 0
 154 -20 138.333007812 -17 121 -11 c 0
 103.666992188 -5 87.6669921875 4.6669921875 73 18 c 0
 58.3330078125 31.3330078125 46 48.6669921875 36 70 c 0
 26 91.3330078125 21 117.333007812 21 148 c 0
 21 173.333007812 24.1669921875 197.5 30.5 220.5 c 0
 36.8330078125 243.5 45.6669921875 265.333007812 57 286 c 0
 68.3330078125 306.666992188 82 326.333007812 98 345 c 0
 114 363.666992188 132 381.333007812 152 398 c 0
 159.333007812 404 168.5 410.5 179.5 417.5 c 0
 190.5 424.5 202.666992188 431 216 437 c 0
 229.333007812 443 243 447.833007812 257 451.5 c 0
 271 455.166992188 285 457 299 457 c 0
 319 457 336.333007812 454.5 351 449.5 c 0
 365.666992188 444.5 377.666992188 437.833007812 387 429.5 c 0
 396.333007812 421.166992188 403.333007812 412 408 402 c 0
 412.666992188 392 415 381.666992188 415 371 c 0
EndSplineSet
EndChar

StartChar: f
Encoding: 73 102 73
Width: 336
VWidth: 500
Flags: HW
LayerCount: 2
Fore
SplineSet
514 680 m 0
 509.333007812 676.666992188 503.5 672.166992188 496.5 666.5 c 0
 489.5 660.833007812 482 654.833007812 474 648.5 c 0
 466 642.166992188 457.833007812 635.666992188 449.5 629 c 0
 441.166992188 622.333007812 433.333007812 616.5 426 611.5 c 0
 418.666992188 606.5 412.166992188 602.166992188 406.5 598.5 c 0
 400.833007812 594.833007812 396.666992188 593 394 593 c 0
 388.666992188 593 383.333007812 596.166992188 378 602.5 c 0
 372.666992188 608.833007812 367 615.666992188 361 623 c 0
 355 630.333007812 348.833007812 637.166992188 342.5 643.5 c 0
 336.166992188 649.833007812 328.666992188 653 320 653 c 0
 307.333007812 653 296.833007812 647 288.5 635 c 0
 280.166992188 623 273.166992188 607.833007812 267.5 589.5 c 0
 261.833007812 571.166992188 257.333007812 551 254 529 c 0
 250.666992188 507 248 485.666992188 246 465 c 0
 243 442 l 0
 363 442 l 0
 377 423 l 0
 373.666992188 418.333007812 368.833007812 412.666992188 362.5 406 c 0
 356.166992188 399.333007812 349.333007812 392.5 342 385.5 c 0
 334.666992188 378.5 327.666992188 372.333007812 321 367 c 0
 314.333007812 361.666992188 309.333007812 358 306 356 c 0
 302.666992188 365.333007812 295.833007812 371.333007812 285.5 374 c 0
 275.166992188 376.666992188 260.333007812 378 241 378 c 0
 235 378 l 0
 203 94 l 0
 199 58 189.166992188 23.3330078125 173.5 -10 c 0
 157.833007812 -43.3330078125 139.166992188 -74.3330078125 117.5 -103 c 0
 95.8330078125 -131.666992188 72.5 -157.5 47.5 -180.5 c 0
 22.5 -203.5 -2 -222.333007812 -26 -237 c 0
 -49 -191 l 0
 -33 -181.666992188 -18.3330078125 -168.166992188 -5 -150.5 c 0
 8.3330078125 -132.833007812 20 -112.166992188 30 -88.5 c 0
 40 -64.8330078125 48.1669921875 -39.5 54.5 -12.5 c 0
 60.8330078125 14.5 65.6669921875 41.3330078125 69 68 c 0
 104 378 l 0
 38 378 l 0
 26 398 l 0
 95 442 l 0
 112 442 l 0
 115.333007812 468 120.166992188 493 126.5 517 c 0
 132.833007812 541 141.166992188 563.833007812 151.5 585.5 c 0
 161.833007812 607.166992188 174.666992188 627.333007812 190 646 c 0
 205.333007812 664.666992188 223.333007812 681.666992188 244 697 c 0
 261.333007812 709.666992188 279.666992188 720.333007812 299 729 c 0
 318.333007812 737.666992188 338 742 358 742 c 0
 374.666992188 742 391.333007812 739.166992188 408 733.5 c 0
 424.666992188 727.833007812 440 721.333007812 454 714 c 0
 468 706.666992188 480.333007812 699.5 491 692.5 c 0
 501.666992188 685.5 509.333007812 681.333007812 514 680 c 0
EndSplineSet
EndChar

StartChar: g
Encoding: 74 103 74
Width: 477
VWidth: 500
Flags: HW
LayerCount: 2
Fore
SplineSet
471 420 m 0
 459.666992188 410.666992188 451 399.5 445 386.5 c 0
 439 373.5 434.333007812 355.333007812 431 332 c 0
 426.333007812 293.333007812 423.166992188 259 421.5 229 c 0
 419.833007812 199 418.333007812 171.166992188 417 145.5 c 0
 415.666992188 119.833007812 414 95.5 412 72.5 c 0
 410 49.5 406.666992188 25.3330078125 402 0 c 0
 398 -22.6669921875 391 -44.3330078125 381 -65 c 0
 371 -85.6669921875 358.833007812 -105 344.5 -123 c 0
 330.166992188 -141 314.333007812 -157.5 297 -172.5 c 0
 279.666992188 -187.5 261.5 -200.333007812 242.5 -211 c 0
 223.5 -221.666992188 204.666992188 -229.833007812 186 -235.5 c 0
 167.333007812 -241.166992188 149.333007812 -244 132 -244 c 0
 114.666992188 -244 97.5 -242.333007812 80.5 -239 c 0
 63.5 -235.666992188 48.1669921875 -231.333007812 34.5 -226 c 0
 20.8330078125 -220.666992188 9.6669921875 -214.833007812 1 -208.5 c 0
 -7.6669921875 -202.166992188 -12 -196 -12 -190 c 0
 -12 -186.666992188 -10.3330078125 -182 -7 -176 c 0
 -3.6669921875 -170 0.3330078125 -163.666992188 5 -157 c 0
 9.6669921875 -150.333007812 15 -143.666992188 21 -137 c 0
 27 -130.333007812 32.6669921875 -124.333007812 38 -119 c 0
 43.3330078125 -113.666992188 48.1669921875 -109.333007812 52.5 -106 c 0
 56.8330078125 -102.666992188 59.6669921875 -101 61 -101 c 0
 65 -101 70 -103.5 76 -108.5 c 0
 82 -113.5 89.6669921875 -119.166992188 99 -125.5 c 0
 108.333007812 -131.833007812 119.5 -137.666992188 132.5 -143 c 0
 145.5 -148.333007812 161 -151 179 -151 c 0
 189.666992188 -151 199.833007812 -149.5 209.5 -146.5 c 0
 219.166992188 -143.5 228 -137.333007812 236 -128 c 0
 244 -118.666992188 251.166992188 -105.666992188 257.5 -89 c 0
 263.833007812 -72.3330078125 269.333007812 -50.3330078125 274 -23 c 0
 278 1 281 23 283 43 c 0
 285 63 286.333007812 82.6669921875 287 102 c 0
 259.666992188 64 232.833007812 34.1669921875 206.5 12.5 c 0
 180.166992188 -9.1669921875 153 -20 125 -20 c 0
 114.333007812 -20 102.333007812 -16.8330078125 89 -10.5 c 0
 75.6669921875 -4.1669921875 63.1669921875 5.6669921875 51.5 19 c 0
 39.8330078125 32.3330078125 30 49.6669921875 22 71 c 0
 14 92.3330078125 10 118.333007812 10 149 c 0
 10 201 22.5 249.666992188 47.5 295 c 0
 72.5 340.333007812 109.333007812 379 158 411 c 0
 176 423 197.5 433.666992188 222.5 443 c 0
 247.5 452.333007812 276.333007812 457 309 457 c 0
 321 457 333.833007812 453.666992188 347.5 447 c 0
 361.166992188 440.333007812 374.666992188 432.666992188 388 424 c 0
 400 431.333007812 411.5 437.666992188 422.5 443 c 0
 433.5 448.333007812 443.333007812 453 452 457 c 0
 471 420 l 0
180 86 m 0
 183.333007812 86 187.833007812 87.1669921875 193.5 89.5 c 0
 199.166992188 91.8330078125 206.5 96.8330078125 215.5 104.5 c 0
 224.5 112.166992188 235.166992188 123.333007812 247.5 138 c 0
 259.833007812 152.666992188 274.333007812 172.333007812 291 197 c 0
 291.666992188 215.666992188 293 235.833007812 295 257.5 c 0
 297 279.166992188 300 302.666992188 304 328 c 0
 304.666992188 333.333007812 306.333007812 339 309 345 c 0
 299 354.333007812 288.833007812 362.666992188 278.5 370 c 0
 268.166992188 377.333007812 258.666992188 381 250 381 c 0
 236.666992188 381 224.666992188 378 214 372 c 0
 203.333007812 366 193.833007812 357.833007812 185.5 347.5 c 0
 177.166992188 337.166992188 169.833007812 325.333007812 163.5 312 c 0
 157.166992188 298.666992188 152.166992188 284.833007812 148.5 270.5 c 0
 144.833007812 256.166992188 142 241.5 140 226.5 c 0
 138 211.5 137 197.666992188 137 185 c 0
 137 150.333007812 141 125.166992188 149 109.5 c 0
 157 93.8330078125 167.333007812 86 180 86 c 0
EndSplineSet
EndChar

StartChar: h
Encoding: 75 104 75
Width: 535
VWidth: 500
Flags: HW
LayerCount: 2
Fore
SplineSet
524 60 m 0
 509.333007812 51.3330078125 493.166992188 42.1669921875 475.5 32.5 c 0
 457.833007812 22.8330078125 440.5 14.1669921875 423.5 6.5 c 0
 406.5 -1.1669921875 390.5 -7.5 375.5 -12.5 c 0
 360.5 -17.5 348 -20 338 -20 c 0
 328.666992188 -20 320.166992188 -14.8330078125 312.5 -4.5 c 0
 304.833007812 5.8330078125 301 19.6669921875 301 37 c 0
 301 43 302 52.6669921875 304 66 c 0
 306 79.3330078125 308.333007812 94.6669921875 311 112 c 0
 313.666992188 129.333007812 316.666992188 147.5 320 166.5 c 0
 323.333007812 185.5 326.333007812 204 329 222 c 0
 331.666992188 240 334 256.166992188 336 270.5 c 0
 338 284.833007812 339 295.666992188 339 303 c 0
 339 313 338.5 321 337.5 327 c 0
 336.5 333 335.333007812 337.666992188 334 341 c 0
 332.666992188 344.333007812 330.5 346.666992188 327.5 348 c 0
 324.5 349.333007812 321.333007812 350 318 350 c 0
 314 350 308.666992188 349.166992188 302 347.5 c 0
 295.333007812 345.833007812 287.833007812 342.5 279.5 337.5 c 0
 271.166992188 332.5 262.5 325.833007812 253.5 317.5 c 0
 244.5 309.166992188 236 298 228 284 c 0
 218.666992188 268.666992188 210.833007812 249.333007812 204.5 226 c 0
 198.166992188 202.666992188 192.666992188 176.333007812 188 147 c 0
 185.333007812 129 183.166992188 114 181.5 102 c 0
 179.833007812 90 178.666992188 80 178 72 c 0
 177.333007812 64 176.833007812 57.1669921875 176.5 51.5 c 0
 176.166992188 45.8330078125 176.333007812 41 177 37 c 0
 173 35 173 35 163 30 c 0
 156.333007812 26.6669921875 148.833007812 23.1669921875 140.5 19.5 c 0
 132.166992188 15.8330078125 123.5 12 114.5 8 c 0
 105.5 4 96.8330078125 0.1669921875 88.5 -3.5 c 0
 80.1669921875 -7.1669921875 72.8330078125 -10.5 66.5 -13.5 c 0
 60.1669921875 -16.5 55.6669921875 -18.6669921875 53 -20 c 0
 32 0 l 0
 34.6669921875 17.3330078125 38.1669921875 38.3330078125 42.5 63 c 0
 46.8330078125 87.6669921875 51.3330078125 114.666992188 56 144 c 0
 60.6669921875 173.333007812 65.6669921875 203.833007812 71 235.5 c 0
 76.3330078125 267.166992188 81.5 298.833007812 86.5 330.5 c 0
 91.5 362.166992188 96.1669921875 393 100.5 423 c 0
 104.833007812 453 108.666992188 480.666992188 112 506 c 0
 115.333007812 531.333007812 118 553.833007812 120 573.5 c 0
 122 593.166992188 123 608 123 618 c 0
 123 625.333007812 122.333007812 631.333007812 121 636 c 0
 119.666992188 640.666992188 118.166992188 644 116.5 646 c 0
 114.833007812 648 112.666992188 649.333007812 110 650 c 0
 107.333007812 650.666992188 105 651 103 651 c 0
 99.6669921875 651 95.1669921875 650.166992188 89.5 648.5 c 0
 83.8330078125 646.833007812 78 645.333007812 72 644 c 0
 65.3330078125 642 58.3330078125 640 51 638 c 0
 43 676 l 0
 52.3330078125 680 62.6669921875 684.5 74 689.5 c 0
 85.3330078125 694.5 97.3330078125 699.333007812 110 704 c 0
 122.666992188 708.666992188 135.166992188 713.333007812 147.5 718 c 0
 159.833007812 722.666992188 171.5 726.833007812 182.5 730.5 c 0
 193.5 734.166992188 203.166992188 737 211.5 739 c 0
 219.833007812 741 226.333007812 742 231 742 c 0
 240.333007812 742 248.333007812 739.166992188 255 733.5 c 0
 261.666992188 727.833007812 265 717.333007812 265 702 c 0
 265 694 264 681.833007812 262 665.5 c 0
 260 649.166992188 257.5 630.333007812 254.5 609 c 0
 251.5 587.666992188 248.166992188 564.833007812 244.5 540.5 c 0
 240.833007812 516.166992188 237.333007812 492.666992188 234 470 c 0
 230.666992188 447.333007812 227.333007812 426.333007812 224 407 c 0
 220.666992188 387.666992188 218 372 216 360 c 0
 254 394.666992188 289.666992188 419.5 323 434.5 c 0
 356.333007812 449.5 387.333007812 457 416 457 c 0
 426 457 435.166992188 456 443.5 454 c 0
 451.833007812 452 458.666992188 448.166992188 464 442.5 c 0
 469.333007812 436.833007812 473.5 429 476.5 419 c 0
 479.5 409 481 396.333007812 481 381 c 0
 481 369.666992188 480 356.333007812 478 341 c 0
 476 325.666992188 473.5 309.5 470.5 292.5 c 0
 467.5 275.5 464.333007812 258 461 240 c 0
 457.666992188 222 454.5 205 451.5 189 c 0
 448.5 173 446 158.166992188 444 144.5 c 0
 442 130.833007812 441 119.333007812 441 110 c 0
 441 98.6669921875 442.333007812 91 445 87 c 0
 447.666992188 83 452 81 458 81 c 0
 462.666992188 81 466.833007812 81.3330078125 470.5 82 c 0
 474.166992188 82.6669921875 478 83.6669921875 482 85 c 0
 486 86.3330078125 490 88 494 90 c 0
 510 97 l 0
 524 60 l 0
EndSplineSet
EndChar

StartChar: i
Encoding: 76 105 76
Width: 287
VWidth: 500
Flags: HW
LayerCount: 2
Fore
SplineSet
287 616 m 0
 287 606.666992188 284.833007812 597 280.5 587 c 0
 276.166992188 577 270 567.833007812 262 559.5 c 0
 254 551.166992188 244.166992188 544.166992188 232.5 538.5 c 0
 220.833007812 532.833007812 207.333007812 530 192 530 c 0
 182 530 173.5 531.333007812 166.5 534 c 0
 159.5 536.666992188 153.833007812 540 149.5 544 c 0
 145.166992188 548 141.833007812 552.666992188 139.5 558 c 0
 137.166992188 563.333007812 136 568.666992188 136 574 c 0
 136 582.666992188 138 592.166992188 142 602.5 c 0
 146 612.833007812 152.166992188 622.333007812 160.5 631 c 0
 168.833007812 639.666992188 178.833007812 646.833007812 190.5 652.5 c 0
 202.166992188 658.166992188 215.333007812 661 230 661 c 0
 240 661 248.666992188 659.666992188 256 657 c 0
 263.333007812 654.333007812 269.166992188 651 273.5 647 c 0
 277.833007812 643 281.166992188 638.166992188 283.5 632.5 c 0
 285.833007812 626.833007812 287 621.333007812 287 616 c 0
276 60 m 0
 260.666992188 50.6669921875 244.5 41.3330078125 227.5 32 c 0
 210.5 22.6669921875 193.666992188 14.1669921875 177 6.5 c 0
 160.333007812 -1.1669921875 144.833007812 -7.5 130.5 -12.5 c 0
 116.166992188 -17.5 104.333007812 -20 95 -20 c 0
 83.6669921875 -20 74 -14.8330078125 66 -4.5 c 0
 58 5.8330078125 54 19.6669921875 54 37 c 0
 54 47 55 60 57 76 c 0
 59 92 61.6669921875 109.666992188 65 129 c 0
 68.3330078125 148.333007812 72 168.166992188 76 188.5 c 0
 80 208.833007812 83.5 228.333007812 86.5 247 c 0
 89.5 265.666992188 92.1669921875 282.5 94.5 297.5 c 0
 96.8330078125 312.5 98 324 98 332 c 0
 98 339.333007812 97.5 345.166992188 96.5 349.5 c 0
 95.5 353.833007812 94.1669921875 357.166992188 92.5 359.5 c 0
 90.8330078125 361.833007812 88.6669921875 363.333007812 86 364 c 0
 83.3330078125 364.666992188 80.6669921875 365 78 365 c 0
 75.3330078125 365 71.5 364.333007812 66.5 363 c 0
 61.5 361.666992188 56.6669921875 360.333007812 52 359 c 0
 46 357.666992188 40 355.666992188 34 353 c 0
 24 391 l 0
 38 397 54.1669921875 403.833007812 72.5 411.5 c 0
 90.8330078125 419.166992188 109 426.333007812 127 433 c 0
 145 439.666992188 161.5 445.333007812 176.5 450 c 0
 191.5 454.666992188 202.333007812 457 209 457 c 0
 218.333007812 457 225.666992188 453.833007812 231 447.5 c 0
 236.333007812 441.166992188 239 430.666992188 239 416 c 0
 239 406.666992188 237.833007812 393.833007812 235.5 377.5 c 0
 233.166992188 361.166992188 230.333007812 343.333007812 227 324 c 0
 223.666992188 304.666992188 220 284.333007812 216 263 c 0
 212 241.666992188 208.333007812 221.333007812 205 202 c 0
 201.666992188 182.666992188 198.833007812 164.833007812 196.5 148.5 c 0
 194.166992188 132.166992188 193 119.333007812 193 110 c 0
 193 100 194.166992188 92.6669921875 196.5 88 c 0
 198.833007812 83.3330078125 202.666992188 81 208 81 c 0
 212.666992188 81 217.166992188 81.3330078125 221.5 82 c 0
 225.833007812 82.6669921875 230.166992188 83.6669921875 234.5 85 c 0
 238.833007812 86.3330078125 243.5 88 248.5 90 c 0
 256 93 256 93 266 97 c 0
 276 60 l 0
EndSplineSet
EndChar

StartChar: j
Encoding: 77 106 77
Width: 285
VWidth: 500
Flags: HW
LayerCount: 2
Fore
SplineSet
274 616 m 0
 274 606.666992188 272 597 268 587 c 0
 264 577 258 567.833007812 250 559.5 c 0
 242 551.166992188 232.166992188 544.166992188 220.5 538.5 c 0
 208.833007812 532.833007812 195.333007812 530 180 530 c 0
 170 530 161.5 531.333007812 154.5 534 c 0
 147.5 536.666992188 141.666992188 540 137 544 c 0
 132.333007812 548 129 552.666992188 127 558 c 0
 125 563.333007812 124 568.666992188 124 574 c 0
 124 582.666992188 126 592.166992188 130 602.5 c 0
 134 612.833007812 140 622.333007812 148 631 c 0
 156 639.666992188 165.833007812 646.833007812 177.5 652.5 c 0
 189.166992188 658.166992188 202.666992188 661 218 661 c 0
 228 661 236.5 659.666992188 243.5 657 c 0
 250.5 654.333007812 256.333007812 651 261 647 c 0
 265.666992188 643 269 638.166992188 271 632.5 c 0
 273 626.833007812 274 621.333007812 274 616 c 0
234 425 m 0
 234 421.666992188 233.666992188 415.5 233 406.5 c 0
 232.333007812 397.5 231.333007812 386.833007812 230 374.5 c 0
 228.666992188 362.166992188 227.333007812 349.166992188 226 335.5 c 0
 224.666992188 321.833007812 223.166992188 308.333007812 221.5 295 c 0
 219.833007812 281.666992188 218.333007812 269.5 217 258.5 c 0
 215.666992188 247.5 214.666992188 238.333007812 214 231 c 0
 211.333007812 208.333007812 208.5 182.166992188 205.5 152.5 c 0
 202.5 122.833007812 197.666992188 87.6669921875 191 47 c 0
 186.333007812 16.3330078125 178.666992188 -11.6669921875 168 -37 c 0
 157.333007812 -62.3330078125 145 -85.1669921875 131 -105.5 c 0
 117 -125.833007812 102.5 -143.666992188 87.5 -159 c 0
 72.5 -174.333007812 58.3330078125 -187 45 -197 c 0
 27 -211 7.1669921875 -222.333007812 -14.5 -231 c 0
 -36.1669921875 -239.666992188 -58 -244 -80 -244 c 0
 -95.3330078125 -244 -109.833007812 -241.833007812 -123.5 -237.5 c 0
 -137.166992188 -233.166992188 -149.333007812 -228.333007812 -160 -223 c 0
 -170.666992188 -217.666992188 -179.166992188 -212 -185.5 -206 c 0
 -191.833007812 -200 -195 -195.333007812 -195 -192 c 0
 -195 -189.333007812 -193.666992188 -185.166992188 -191 -179.5 c 0
 -188.333007812 -173.833007812 -184.5 -167.833007812 -179.5 -161.5 c 0
 -174.5 -155.166992188 -169.166992188 -148.5 -163.5 -141.5 c 0
 -157.833007812 -134.5 -152.333007812 -128.166992188 -147 -122.5 c 0
 -141.666992188 -116.833007812 -136.666992188 -112.166992188 -132 -108.5 c 0
 -127.333007812 -104.833007812 -124 -103 -122 -103 c 0
 -118 -103 -112.833007812 -105.666992188 -106.5 -111 c 0
 -100.166992188 -116.333007812 -92.8330078125 -122 -84.5 -128 c 0
 -76.1669921875 -134 -67 -139.666992188 -57 -145 c 0
 -47 -150.333007812 -36.6669921875 -153 -26 -153 c 0
 -13.3330078125 -153 -3 -150.5 5 -145.5 c 0
 13 -140.5 19.6669921875 -131.833007812 25 -119.5 c 0
 30.3330078125 -107.166992188 35 -91 39 -71 c 0
 43 -51 47.6669921875 -25.6669921875 53 5 c 0
 57 29 60.5 52 63.5 74 c 0
 66.5 96 69.1669921875 116.333007812 71.5 135 c 0
 73.8330078125 153.666992188 76 170.166992188 78 184.5 c 0
 80 198.833007812 81.3330078125 210.666992188 82 220 c 0
 82.6669921875 228 83.6669921875 237.333007812 85 248 c 0
 88 280 l 0
 88.6669921875 290.666992188 89.3330078125 300.666992188 90 310 c 0
 90.6669921875 319.333007812 91 326.666992188 91 332 c 0
 91 339.333007812 90.5 345.166992188 89.5 349.5 c 0
 88.5 353.833007812 87.1669921875 357.166992188 85.5 359.5 c 0
 83.8330078125 361.833007812 81.6669921875 363.333007812 79 364 c 0
 76.3330078125 364.666992188 73.6669921875 365 71 365 c 0
 68.3330078125 365 64.5 364.333007812 59.5 363 c 0
 54.5 361.666992188 49.3330078125 360.333007812 44 359 c 0
 38 357.666992188 32.3330078125 355.666992188 27 353 c 0
 17 391 l 0
 26.3330078125 395 36.6669921875 399.5 48 404.5 c 0
 59.3330078125 409.5 71.3330078125 414.333007812 84 419 c 0
 96.6669921875 423.666992188 109 428.333007812 121 433 c 0
 133 437.666992188 144.333007812 441.833007812 155 445.5 c 0
 165.666992188 449.166992188 175.166992188 452 183.5 454 c 0
 191.833007812 456 198 457 202 457 c 0
 211.333007812 457 219 455.166992188 225 451.5 c 0
 231 447.833007812 234 439 234 425 c 0
EndSplineSet
EndChar

StartChar: k
Encoding: 78 107 78
Width: 507
VWidth: 500
Flags: HW
LayerCount: 2
Fore
SplineSet
264 692 m 0
 264 679.333007812 263 663.666992188 261 645 c 0
 259 626.333007812 256.5 605.333007812 253.5 582 c 0
 250.5 558.666992188 246.833007812 534 242.5 508 c 0
 238.166992188 482 233.666992188 455.166992188 229 427.5 c 0
 224.333007812 399.833007812 219.666992188 371.833007812 215 343.5 c 0
 210.333007812 315.166992188 206 288 202 262 c 0
 277 317 l 0
 299.666992188 333.666992188 317.666992188 347.5 331 358.5 c 0
 344.333007812 369.5 352.333007812 378.166992188 355 384.5 c 0
 357.666992188 390.833007812 355.333007812 395 348 397 c 0
 340.666992188 399 328.333007812 399.666992188 311 399 c 0
 306 438 l 0
 320 440 334.5 442 349.5 444 c 0
 364.5 446 378.833007812 447.833007812 392.5 449.5 c 0
 406.166992188 451.166992188 419.166992188 452.333007812 431.5 453 c 0
 443.833007812 453.666992188 455 454 465 454 c 0
 485.666992188 454 499.5 451 506.5 445 c 0
 513.5 439 517 430.333007812 517 419 c 0
 517 414.333007812 513.5 407.833007812 506.5 399.5 c 0
 499.5 391.166992188 489.333007812 381.5 476 370.5 c 0
 462.666992188 359.5 446.333007812 347.166992188 427 333.5 c 0
 407.666992188 319.833007812 385.666992188 305.666992188 361 291 c 0
 299 252 l 0
 307 243.333007812 314.666992188 233.166992188 322 221.5 c 0
 329.333007812 209.833007812 336.5 197.666992188 343.5 185 c 0
 354 166 354 166 364.5 147 c 0
 371.5 134.333007812 378.333007812 123.166992188 385 113.5 c 0
 391.666992188 103.833007812 398.166992188 96 404.5 90 c 0
 410.833007812 84 417.333007812 81 424 81 c 0
 431.333007812 81 441 82.1669921875 453 84.5 c 0
 465 86.8330078125 477 91.6669921875 489 99 c 0
 507 62 l 0
 496.333007812 52.6669921875 484.333007812 43.3330078125 471 34 c 0
 457.666992188 24.6669921875 444.333007812 16 431 8 c 0
 417.666992188 0 405 -6.5 393 -11.5 c 0
 381 -16.5 371.333007812 -19 364 -19 c 0
 353.333007812 -19 343 -14.3330078125 333 -5 c 0
 323 4.3330078125 313.166992188 16.3330078125 303.5 31 c 0
 293.833007812 45.6669921875 284.333007812 62.1669921875 275 80.5 c 0
 265.666992188 98.8330078125 256.5 117.333007812 247.5 136 c 0
 238.5 154.666992188 229.833007812 172.166992188 221.5 188.5 c 0
 213.166992188 204.833007812 205 218.333007812 197 229 c 0
 193.666992188 205.666992188 190.5 183.833007812 187.5 163.5 c 0
 184.5 143.166992188 182.333007812 124.666992188 181 108 c 0
 179.666992188 91.3330078125 178.833007812 76.8330078125 178.5 64.5 c 0
 178.166992188 52.1669921875 179 43.3330078125 181 38 c 0
 178.333007812 36.6669921875 173.5 34.3330078125 166.5 31 c 0
 159.5 27.6669921875 151.833007812 24.1669921875 143.5 20.5 c 0
 135.166992188 16.8330078125 126.333007812 12.8330078125 117 8.5 c 0
 107.666992188 4.1669921875 98.8330078125 0.1669921875 90.5 -3.5 c 0
 82.1669921875 -7.1669921875 74.6669921875 -10.5 68 -13.5 c 0
 61.3330078125 -16.5 56.6669921875 -18.6669921875 54 -20 c 0
 32 0 l 0
 33.3330078125 9.3330078125 35.6669921875 24 39 44 c 0
 42.3330078125 64 46.1669921875 87.5 50.5 114.5 c 0
 54.8330078125 141.5 59.6669921875 170.833007812 65 202.5 c 0
 70.3330078125 234.166992188 75.6669921875 266.666992188 81 300 c 0
 86.3330078125 333.333007812 91.5 366.166992188 96.5 398.5 c 0
 101.5 430.833007812 106 461.166992188 110 489.5 c 0
 114 517.833007812 117.166992188 543 119.5 565 c 0
 121.833007812 587 123 604.333007812 123 617 c 0
 123 625 122.5 631.333007812 121.5 636 c 0
 120.5 640.666992188 119 644 117 646 c 0
 115 648 112.5 649.333007812 109.5 650 c 0
 106.5 650.666992188 103 651 99 651 c 0
 96.3330078125 651 92.5 650.166992188 87.5 648.5 c 0
 82.5 646.833007812 77 645.333007812 71 644 c 0
 65 642 58.3330078125 640 51 638 c 0
 42 676 l 0
 56 682 72.6669921875 688.833007812 92 696.5 c 0
 111.333007812 704.166992188 130.5 711.5 149.5 718.5 c 0
 168.5 725.5 185.833007812 731.166992188 201.5 735.5 c 0
 217.166992188 739.833007812 228.333007812 742 235 742 c 0
 239.666992188 742 243.666992188 741.5 247 740.5 c 0
 250.333007812 739.5 253.333007812 737.333007812 256 734 c 0
 258.666992188 730.666992188 260.666992188 725.666992188 262 719 c 0
 263.333007812 712.333007812 264 703.333007812 264 692 c 0
EndSplineSet
EndChar

StartChar: l
Encoding: 79 108 79
Width: 277
VWidth: 500
Flags: HW
LayerCount: 2
Fore
SplineSet
266 60 m 0
 250 50 233 40.1669921875 215 30.5 c 0
 197 20.8330078125 179.666992188 12.3330078125 163 5 c 0
 146.333007812 -2.3330078125 130.5 -8.3330078125 115.5 -13 c 0
 100.5 -17.6669921875 87.6669921875 -20 77 -20 c 0
 67.6669921875 -20 59.5 -15.1669921875 52.5 -5.5 c 0
 45.5 4.1669921875 42 18.6669921875 42 38 c 0
 42 46 43 59.1669921875 45 77.5 c 0
 47 95.8330078125 50 117.666992188 54 143 c 0
 58 168.333007812 62.3330078125 196 67 226 c 0
 71.6669921875 256 76.3330078125 286.666992188 81 318 c 0
 85.6669921875 349.333007812 90.5 380.5 95.5 411.5 c 0
 100.5 442.5 104.833007812 471.333007812 108.5 498 c 0
 112.166992188 524.666992188 115.166992188 548.5 117.5 569.5 c 0
 119.833007812 590.5 121 606.666992188 121 618 c 0
 121 625.333007812 120.166992188 631.333007812 118.5 636 c 0
 116.833007812 640.666992188 114.833007812 644 112.5 646 c 0
 110.166992188 648 107.5 649.333007812 104.5 650 c 0
 101.5 650.666992188 98.6669921875 651 96 651 c 0
 93.3330078125 651 89.5 650.166992188 84.5 648.5 c 0
 79.5 646.833007812 74.3330078125 645.333007812 69 644 c 0
 50 638 l 0
 40 676 l 0
 54 682 54 682 71.5 689.5 c 0
 83.1669921875 694.5 95.3330078125 699.333007812 108 704 c 0
 120.666992188 708.666992188 133.5 713.333007812 146.5 718 c 0
 159.5 722.666992188 171.666992188 726.833007812 183 730.5 c 0
 194.333007812 734.166992188 204.333007812 737 213 739 c 0
 221.666992188 741 228 742 232 742 c 0
 241.333007812 742 248.666992188 739.166992188 254 733.5 c 0
 259.333007812 727.833007812 262 717.333007812 262 702 c 0
 262 689.333007812 260.833007812 672.5 258.5 651.5 c 0
 256.166992188 630.5 253.166992188 606.666992188 249.5 580 c 0
 245.833007812 553.333007812 241.5 524.666992188 236.5 494 c 0
 231.5 463.333007812 226.666992188 432.5 222 401.5 c 0
 217.333007812 370.5 212.5 340 207.5 310 c 0
 202.5 280 198.166992188 252 194.5 226 c 0
 190.833007812 200 187.833007812 176.833007812 185.5 156.5 c 0
 183.166992188 136.166992188 182 120.666992188 182 110 c 0
 182 98.6669921875 183.5 91 186.5 87 c 0
 189.5 83 193.666992188 81 199 81 c 0
 206.333007812 81 214.333007812 82.3330078125 223 85 c 0
 231.666992188 87.6669921875 243 91.6669921875 257 97 c 0
 266 60 l 0
EndSplineSet
EndChar

StartChar: m
Encoding: 80 109 80
Width: 777
VWidth: 500
Flags: HW
LayerCount: 2
Fore
SplineSet
756 60 m 0
 741.333007812 51.3330078125 725.166992188 42.1669921875 707.5 32.5 c 0
 689.833007812 22.8330078125 672.666992188 14.1669921875 656 6.5 c 0
 639.333007812 -1.1669921875 623.833007812 -7.5 609.5 -12.5 c 0
 595.166992188 -17.5 583.333007812 -20 574 -20 c 0
 569.333007812 -20 564.666992188 -18.6669921875 560 -16 c 0
 555.333007812 -13.3330078125 551.166992188 -9.5 547.5 -4.5 c 0
 543.833007812 0.5 540.833007812 6.5 538.5 13.5 c 0
 536.166992188 20.5 535 28.3330078125 535 37 c 0
 535 43 536 52.3330078125 538 65 c 0
 540 77.6669921875 542.5 92.3330078125 545.5 109 c 0
 548.5 125.666992188 551.666992188 143.666992188 555 163 c 0
 558.333007812 182.333007812 561.5 201.166992188 564.5 219.5 c 0
 567.5 237.833007812 570 255.166992188 572 271.5 c 0
 574 287.833007812 575 301.333007812 575 312 c 0
 575 324.666992188 573.333007812 334 570 340 c 0
 566.666992188 346 562.333007812 349 557 349 c 0
 554.333007812 349 550.5 348.333007812 545.5 347 c 0
 540.5 345.666992188 534.5 343 527.5 339 c 0
 520.5 335 513 329.333007812 505 322 c 0
 497 314.666992188 489 305 481 293 c 0
 475.666992188 285 470.833007812 276.5 466.5 267.5 c 0
 462.166992188 258.5 458.166992188 248.166992188 454.5 236.5 c 0
 450.833007812 224.833007812 447.5 211.333007812 444.5 196 c 0
 441.5 180.666992188 438.666992188 163.333007812 436 144 c 0
 432 114.666992188 429.333007812 91.3330078125 428 74 c 0
 426.666992188 56.6669921875 426.333007812 44.3330078125 427 37 c 0
 423 35 423 35 413 30 c 0
 406.333007812 26.6669921875 398.833007812 23.1669921875 390.5 19.5 c 0
 382.166992188 15.8330078125 373.333007812 12 364 8 c 0
 354.666992188 4 345.833007812 0.1669921875 337.5 -3.5 c 0
 329.166992188 -7.1669921875 321.833007812 -10.5 315.5 -13.5 c 0
 309.166992188 -16.5 304.333007812 -18.6669921875 301 -20 c 0
 281 0 l 0
 288.333007812 33.3330078125 295 66 301 98 c 0
 307 130 312.333007812 160 317 188 c 0
 321.666992188 216 325.333007812 240.666992188 328 262 c 0
 330.666992188 283.333007812 332 300 332 312 c 0
 332 336 325.333007812 348.333007812 312 349 c 0
 310 349 306.666992188 348.333007812 302 347 c 0
 297.333007812 345.666992188 291.666992188 343 285 339 c 0
 278.333007812 335 270.833007812 329.5 262.5 322.5 c 0
 254.166992188 315.5 245.666992188 306 237 294 c 0
 231.666992188 286 226.666992188 277.333007812 222 268 c 0
 217.333007812 258.666992188 213.166992188 248 209.5 236 c 0
 205.833007812 224 202.5 210.333007812 199.5 195 c 0
 196.5 179.666992188 193.333007812 162.666992188 190 144 c 0
 185.333007812 114.666992188 182.166992188 91.3330078125 180.5 74 c 0
 178.833007812 56.6669921875 178.333007812 44.3330078125 179 37 c 0
 176.333007812 35.6669921875 171.833007812 33.3330078125 165.5 30 c 0
 159.166992188 26.6669921875 151.833007812 23.1669921875 143.5 19.5 c 0
 135.166992188 15.8330078125 126.5 12 117.5 8 c 0
 108.5 4 99.8330078125 0.1669921875 91.5 -3.5 c 0
 83.1669921875 -7.1669921875 75.8330078125 -10.5 69.5 -13.5 c 0
 63.1669921875 -16.5 58.6669921875 -18.6669921875 56 -20 c 0
 35 0 l 0
 41.6669921875 34.6669921875 48 68.6669921875 54 102 c 0
 60 135.333007812 65.3330078125 166.833007812 70 196.5 c 0
 74.6669921875 226.166992188 78.3330078125 252.666992188 81 276 c 0
 83.6669921875 299.333007812 85 318 85 332 c 0
 85 339.333007812 84.5 345.166992188 83.5 349.5 c 0
 82.5 353.833007812 81.1669921875 357.333007812 79.5 360 c 0
 77.8330078125 362.666992188 75.8330078125 364.333007812 73.5 365 c 0
 71.1669921875 365.666992188 68.6669921875 366 66 366 c 0
 62.6669921875 366 58.3330078125 365.333007812 53 364 c 0
 47.6669921875 362.666992188 42.6669921875 361 38 359 c 0
 19 353 l 0
 10 392 l 0
 19.3330078125 396 29.8330078125 400.333007812 41.5 405 c 0
 53.1669921875 409.666992188 65 414.333007812 77 419 c 0
 89 423.666992188 101.166992188 428.333007812 113.5 433 c 0
 125.833007812 437.666992188 137.333007812 441.833007812 148 445.5 c 0
 158.666992188 449.166992188 168.166992188 452 176.5 454 c 0
 184.833007812 456 191 457 195 457 c 0
 199.666992188 457 203.833007812 456.166992188 207.5 454.5 c 0
 211.166992188 452.833007812 214 450 216 446 c 0
 218 442 219.5 436.333007812 220.5 429 c 0
 221.5 421.666992188 222 412.333007812 222 401 c 0
 222 396.333007812 221.666992188 390.166992188 221 382.5 c 0
 220.333007812 374.833007812 219.666992188 367.333007812 219 360 c 0
 238.333007812 379.333007812 256.166992188 395.333007812 272.5 408 c 0
 288.833007812 420.666992188 304.5 430.666992188 319.5 438 c 0
 334.5 445.333007812 348.666992188 450.333007812 362 453 c 0
 375.333007812 455.666992188 388.666992188 457 402 457 c 0
 414 457 424.333007812 454.833007812 433 450.5 c 0
 441.666992188 446.166992188 448.833007812 440.166992188 454.5 432.5 c 0
 460.166992188 424.833007812 464.166992188 416.166992188 466.5 406.5 c 0
 468.833007812 396.833007812 470 386.666992188 470 376 c 0
 470 372 l 0
 470 369 470 369 470 365 c 0
 488.666992188 383 505.833007812 398 521.5 410 c 0
 537.166992188 422 551.833007812 431.5 565.5 438.5 c 0
 579.166992188 445.5 592.166992188 450.333007812 604.5 453 c 0
 616.833007812 455.666992188 629 457 641 457 c 0
 650.333007812 457 659.333007812 455.5 668 452.5 c 0
 676.666992188 449.5 684.166992188 444.5 690.5 437.5 c 0
 696.833007812 430.5 701.833007812 421.666992188 705.5 411 c 0
 709.166992188 400.333007812 711 387 711 371 c 0
 711 352.333007812 709.166992188 330.833007812 705.5 306.5 c 0
 701.833007812 282.166992188 697.5 257.666992188 692.5 233 c 0
 687.5 208.333007812 683 185 679 163 c 0
 675 141 673 123.333007812 673 110 c 0
 673 98.6669921875 674.666992188 91.1669921875 678 87.5 c 0
 681.333007812 83.8330078125 685.666992188 82 691 82 c 0
 700.333007812 82 709 83.1669921875 717 85.5 c 0
 725 87.8330078125 735.666992188 91.6669921875 749 97 c 0
 756 60 l 0
EndSplineSet
EndChar

StartChar: n
Encoding: 81 110 81
Width: 538
VWidth: 500
Flags: HW
LayerCount: 2
Fore
SplineSet
529 60 m 0
 514.333007812 51.3330078125 498.333007812 42.1669921875 481 32.5 c 0
 463.666992188 22.8330078125 446.666992188 14.1669921875 430 6.5 c 0
 413.333007812 -1.1669921875 397.666992188 -7.5 383 -12.5 c 0
 368.333007812 -17.5 356.666992188 -20 348 -20 c 0
 336.666992188 -20 327 -14.8330078125 319 -4.5 c 0
 311 5.8330078125 307 19.6669921875 307 37 c 0
 307 43 308 52.6669921875 310 66 c 0
 312 79.3330078125 314.5 94.6669921875 317.5 112 c 0
 320.5 129.333007812 323.666992188 147.5 327 166.5 c 0
 330.333007812 185.5 333.333007812 204 336 222 c 0
 338.666992188 240 341 256.166992188 343 270.5 c 0
 345 284.833007812 346 295.666992188 346 303 c 0
 346 320.333007812 344.666992188 332.5 342 339.5 c 0
 339.333007812 346.5 333.333007812 350 324 350 c 0
 320 350 314.5 349 307.5 347 c 0
 300.5 345 292.833007812 341.5 284.5 336.5 c 0
 276.166992188 331.5 267.666992188 324.666992188 259 316 c 0
 250.333007812 307.333007812 241.666992188 296.333007812 233 283 c 0
 223 267.666992188 215.333007812 249 210 227 c 0
 204.666992188 205 199.333007812 178.333007812 194 147 c 0
 191.333007812 132.333007812 189.166992188 119.666992188 187.5 109 c 0
 185.833007812 98.3330078125 184.666992188 88.8330078125 184 80.5 c 0
 183.333007812 72.1669921875 182.833007812 64.5 182.5 57.5 c 0
 182.166992188 50.5 182.333007812 43.6669921875 183 37 c 0
 179 35 179 35 169 30 c 0
 162.333007812 26.6669921875 154.833007812 23.1669921875 146.5 19.5 c 0
 138.166992188 15.8330078125 129.5 12 120.5 8 c 0
 111.5 4 102.833007812 0.1669921875 94.5 -3.5 c 0
 86.1669921875 -7.1669921875 78.8330078125 -10.5 72.5 -13.5 c 0
 66.1669921875 -16.5 61.6669921875 -18.6669921875 59 -20 c 0
 38 0 l 0
 44.6669921875 32.6669921875 51 66.1669921875 57 100.5 c 0
 63 134.833007812 68.5 167.333007812 73.5 198 c 0
 78.5 228.666992188 82.3330078125 256 85 280 c 0
 87.6669921875 304 89 321.666992188 89 333 c 0
 89 340.333007812 88.5 346.166992188 87.5 350.5 c 0
 86.5 354.833007812 85.3330078125 358.166992188 84 360.5 c 0
 82.6669921875 362.833007812 80.8330078125 364.333007812 78.5 365 c 0
 76.1669921875 365.666992188 73.3330078125 366 70 366 c 0
 67.3330078125 366 63.3330078125 365.333007812 58 364 c 0
 52.6669921875 362.666992188 47.3330078125 361 42 359 c 0
 36 357 29.6669921875 355 23 353 c 0
 13 392 l 0
 22.3330078125 396 32.8330078125 400.333007812 44.5 405 c 0
 56.1669921875 409.666992188 68.5 414.333007812 81.5 419 c 0
 94.5 423.666992188 107.333007812 428.333007812 120 433 c 0
 132.666992188 437.666992188 144.333007812 441.833007812 155 445.5 c 0
 165.666992188 449.166992188 175 452 183 454 c 0
 191 456 197 457 201 457 c 0
 205.666992188 457 209.5 456.333007812 212.5 455 c 0
 215.5 453.666992188 217.833007812 451 219.5 447 c 0
 221.166992188 443 222.5 437.333007812 223.5 430 c 0
 224.5 422.666992188 225 413.333007812 225 402 c 0
 225 395.333007812 224.833007812 388.833007812 224.5 382.5 c 0
 224.166992188 376.166992188 223.333007812 368.666992188 222 360 c 0
 257.333007812 392.666992188 292.166992188 417 326.5 433 c 0
 360.833007812 449 392.666992188 457 422 457 c 0
 432 457 441 456 449 454 c 0
 457 452 464 448.333007812 470 443 c 0
 476 437.666992188 480.333007812 430 483 420 c 0
 485.666992188 410 487 397.333007812 487 382 c 0
 487 370.666992188 486 357.333007812 484 342 c 0
 482 326.666992188 479.5 310.5 476.5 293.5 c 0
 473.5 276.5 470.166992188 259 466.5 241 c 0
 462.833007812 223 459.5 205.833007812 456.5 189.5 c 0
 453.5 173.166992188 451 158.166992188 449 144.5 c 0
 447 130.833007812 446 119.333007812 446 110 c 0
 446 98.6669921875 447.5 91 450.5 87 c 0
 453.5 83 458 81 464 81 c 0
 468 81 471.5 81.3330078125 474.5 82 c 0
 477.5 82.6669921875 480.833007812 83.6669921875 484.5 85 c 0
 488.166992188 86.3330078125 492.333007812 88 497 90 c 0
 501.666992188 92 507.666992188 94.3330078125 515 97 c 0
 529 60 l 0
EndSplineSet
EndChar

StartChar: o
Encoding: 82 111 82
Width: 451
VWidth: 500
Flags: HW
LayerCount: 2
Fore
SplineSet
435 273 m 0
 435 251 432 228.833007812 426 206.5 c 0
 420 184.166992188 411.833007812 162.5 401.5 141.5 c 0
 391.166992188 120.5 378.5 100.5 363.5 81.5 c 0
 348.5 62.5 331.666992188 45.6669921875 313 31 c 0
 304.333007812 24.3330078125 294.833007812 17.8330078125 284.5 11.5 c 0
 274.166992188 5.1669921875 263.166992188 -0.3330078125 251.5 -5 c 0
 239.833007812 -9.6669921875 228.5 -13.3330078125 217.5 -16 c 0
 206.5 -18.6669921875 196 -20 186 -20 c 0
 159.333007812 -20 135.5 -15.1669921875 114.5 -5.5 c 0
 93.5 4.1669921875 75.8330078125 17.3330078125 61.5 34 c 0
 47.1669921875 50.6669921875 36 70.5 28 93.5 c 0
 20 116.5 16 141.333007812 16 168 c 0
 16 214.666992188 25.8330078125 258.333007812 45.5 299 c 0
 65.1669921875 339.666992188 96.6669921875 376.666992188 140 410 c 0
 148.666992188 416.666992188 158.333007812 422.833007812 169 428.5 c 0
 179.666992188 434.166992188 190.666992188 439.166992188 202 443.5 c 0
 213.333007812 447.833007812 225 451.166992188 237 453.5 c 0
 249 455.833007812 260.666992188 457 272 457 c 0
 297.333007812 457 320.166992188 452.5 340.5 443.5 c 0
 360.833007812 434.5 378 421.833007812 392 405.5 c 0
 406 389.166992188 416.666992188 369.833007812 424 347.5 c 0
 431.333007812 325.166992188 435 300.333007812 435 273 c 0
307 231 m 0
 307 255.666992188 304.833007812 277.666992188 300.5 297 c 0
 296.166992188 316.333007812 290.833007812 332.5 284.5 345.5 c 0
 278.166992188 358.5 270.833007812 368.333007812 262.5 375 c 0
 254.166992188 381.666992188 246 385 238 385 c 0
 220.666992188 385 206 379.833007812 194 369.5 c 0
 182 359.166992188 172.333007812 345.5 165 328.5 c 0
 157.666992188 311.5 152.5 292.5 149.5 271.5 c 0
 146.5 250.5 145 229.666992188 145 209 c 0
 145 187 147.166992188 166.5 151.5 147.5 c 0
 155.833007812 128.5 161.5 111.666992188 168.5 97 c 0
 175.5 82.3330078125 183.5 70.8330078125 192.5 62.5 c 0
 201.5 54.1669921875 210.333007812 50 219 50 c 0
 235 50 248.666992188 55.6669921875 260 67 c 0
 271.333007812 78.3330078125 280.5 92.8330078125 287.5 110.5 c 0
 294.5 128.166992188 299.5 147.666992188 302.5 169 c 0
 305.5 190.333007812 307 211 307 231 c 0
EndSplineSet
EndChar

StartChar: p
Encoding: 83 112 83
Width: 510
VWidth: 500
Flags: HW
LayerCount: 2
Fore
SplineSet
219 425 m 0
 219 419 218.5 411.333007812 217.5 402 c 0
 216.5 392.666992188 215 381.333007812 213 368 c 0
 229.666992188 386 245.166992188 400.666992188 259.5 412 c 0
 273.833007812 423.333007812 287.166992188 432.333007812 299.5 439 c 0
 311.833007812 445.666992188 323.666992188 450.333007812 335 453 c 0
 346.333007812 455.666992188 357.666992188 457 369 457 c 0
 383.666992188 457 397.833007812 453.833007812 411.5 447.5 c 0
 425.166992188 441.166992188 437.166992188 431.5 447.5 418.5 c 0
 457.833007812 405.5 466 389.666992188 472 371 c 0
 478 352.333007812 481 330.666992188 481 306 c 0
 481 286 479 265.333007812 475 244 c 0
 471 222.666992188 465.833007812 201.833007812 459.5 181.5 c 0
 453.166992188 161.166992188 446 142.166992188 438 124.5 c 0
 430 106.833007812 421.666992188 91 413 77 c 0
 405.666992188 65 397.333007812 53.1669921875 388 41.5 c 0
 378.666992188 29.8330078125 368.5 19.5 357.5 10.5 c 0
 346.5 1.5 334.833007812 -5.8330078125 322.5 -11.5 c 0
 310.166992188 -17.1669921875 297.333007812 -20 284 -20 c 0
 276.666992188 -20 268.166992188 -18.3330078125 258.5 -15 c 0
 248.833007812 -11.6669921875 238.666992188 -6.6669921875 228 0 c 0
 217.333007812 6.6669921875 206.5 15.3330078125 195.5 26 c 0
 184.5 36.6669921875 174 49 164 63 c 0
 154 3 l 0
 148.666992188 -30.3330078125 144.333007812 -58.5 141 -81.5 c 0
 137.666992188 -104.5 135.166992188 -123.666992188 133.5 -139 c 0
 131.833007812 -154.333007812 131.166992188 -166.166992188 131.5 -174.5 c 0
 131.833007812 -182.833007812 133 -189.333007812 135 -194 c 0
 131.666992188 -194.666992188 126.666992188 -196.166992188 120 -198.5 c 0
 113.333007812 -200.833007812 105.666992188 -203.666992188 97 -207 c 0
 88.3330078125 -210.333007812 79.5 -214 70.5 -218 c 0
 61.5 -222 52.8330078125 -225.666992188 44.5 -229 c 0
 32 -234 32 -234 22 -238 c 0
 15.3330078125 -240.666992188 10.6669921875 -242.666992188 8 -244 c 0
 -13 -225 l 0
 -11.6669921875 -215.666992188 -9.3330078125 -201.666992188 -6 -183 c 0
 -2.6669921875 -164.333007812 1.1669921875 -142.666992188 5.5 -118 c 0
 9.8330078125 -93.3330078125 14.6669921875 -66.6669921875 20 -38 c 0
 25.3330078125 -9.3330078125 30.6669921875 20 36 50 c 0
 41.3330078125 80 46.6669921875 109.666992188 52 139 c 0
 57.3330078125 168.333007812 61.8330078125 195.5 65.5 220.5 c 0
 69.1669921875 245.5 72.1669921875 267.666992188 74.5 287 c 0
 76.8330078125 306.333007812 78 321.333007812 78 332 c 0
 78 339.333007812 77.3330078125 345.166992188 76 349.5 c 0
 74.6669921875 353.833007812 72.8330078125 357.166992188 70.5 359.5 c 0
 68.1669921875 361.833007812 65.8330078125 363.333007812 63.5 364 c 0
 61.1669921875 364.666992188 58.3330078125 365 55 365 c 0
 52.3330078125 365 48.5 364.333007812 43.5 363 c 0
 38.5 361.666992188 33.6669921875 360.333007812 29 359 c 0
 23 357.666992188 17 355.666992188 11 353 c 0
 2 391 l 0
 16.6669921875 397.666992188 33.5 404.833007812 52.5 412.5 c 0
 71.5 420.166992188 90.1669921875 427.333007812 108.5 434 c 0
 126.833007812 440.666992188 143.5 446.166992188 158.5 450.5 c 0
 173.5 454.833007812 184.333007812 457 191 457 c 0
 200.333007812 457 207.333007812 454.833007812 212 450.5 c 0
 216.666992188 446.166992188 219 437.666992188 219 425 c 0
308 364 m 0
 303.333007812 364 296.666992188 361.833007812 288 357.5 c 0
 279.333007812 353.166992188 270 346.5 260 337.5 c 0
 250 328.5 239.333007812 317.5 228 304.5 c 0
 216.666992188 291.5 206 276 196 258 c 0
 193.333007812 240.666992188 190.333007812 222 187 202 c 0
 183.666992188 182 180 160.333007812 176 137 c 0
 182 129.666992188 189 122.833007812 197 116.5 c 0
 205 110.166992188 213.5 104.666992188 222.5 100 c 0
 231.5 95.3330078125 240.333007812 91.8330078125 249 89.5 c 0
 257.666992188 87.1669921875 265 86 271 86 c 0
 283.666992188 86 295.166992188 89.8330078125 305.5 97.5 c 0
 315.833007812 105.166992188 323.666992188 114.666992188 329 126 c 0
 335.666992188 140.666992188 341 159.333007812 345 182 c 0
 349 204.666992188 351 229 351 255 c 0
 351 270.333007812 349.833007812 284.666992188 347.5 298 c 0
 345.166992188 311.333007812 341.833007812 322.833007812 337.5 332.5 c 0
 333.166992188 342.166992188 328.5 349.833007812 323.5 355.5 c 0
 318.5 361.166992188 313.333007812 364 308 364 c 0
EndSplineSet
EndChar

StartChar: q
Encoding: 84 113 84
Width: 475
VWidth: 500
Flags: HW
LayerCount: 2
Fore
SplineSet
474 420 m 0
 468.666992188 415.333007812 463.833007812 411.333007812 459.5 408 c 0
 455.166992188 404.666992188 451.333007812 400.666992188 448 396 c 0
 444.666992188 391.333007812 441.833007812 385.5 439.5 378.5 c 0
 437.166992188 371.5 435 362.666992188 433 352 c 0
 425.666992188 308.666992188 418.5 266.166992188 411.5 224.5 c 0
 404.5 182.833007812 398.166992188 142.833007812 392.5 104.5 c 0
 386.833007812 66.1669921875 381.666992188 30.5 377 -2.5 c 0
 372.333007812 -35.5 368.833007812 -65 366.5 -91 c 0
 364.166992188 -117 363.166992188 -138.833007812 363.5 -156.5 c 0
 363.833007812 -174.166992188 365.666992188 -186.666992188 369 -194 c 0
 366.333007812 -194.666992188 361.666992188 -196.333007812 355 -199 c 0
 348.333007812 -201.666992188 340.666992188 -204.666992188 332 -208 c 0
 323.333007812 -211.333007812 314.166992188 -214.833007812 304.5 -218.5 c 0
 294.833007812 -222.166992188 285.833007812 -225.666992188 277.5 -229 c 0
 265 -234 265 -234 255 -238 c 0
 248.333007812 -240.666992188 243.666992188 -242.666992188 241 -244 c 0
 219 -225 l 0
 220.333007812 -214.333007812 222.333007812 -199.333007812 225 -180 c 0
 227.666992188 -160.666992188 231.166992188 -138.333007812 235.5 -113 c 0
 239.833007812 -87.6669921875 244.333007812 -59.6669921875 249 -29 c 0
 253.666992188 1.6669921875 259 33.6669921875 265 67 c 0
 250.333007812 50.3330078125 236.833007812 36.5 224.5 25.5 c 0
 212.166992188 14.5 200.666992188 5.5 190 -1.5 c 0
 179.333007812 -8.5 169.166992188 -13.3330078125 159.5 -16 c 0
 149.833007812 -18.6669921875 140 -20 130 -20 c 0
 118 -20 105.333007812 -16.8330078125 92 -10.5 c 0
 78.6669921875 -4.1669921875 66.3330078125 5.6669921875 55 19 c 0
 43.6669921875 32.3330078125 34.3330078125 49.6669921875 27 71 c 0
 19.6669921875 92.3330078125 16 118.333007812 16 149 c 0
 16 175 19.3330078125 200.333007812 26 225 c 0
 32.6669921875 249.666992188 42.3330078125 273.333007812 55 296 c 0
 67.6669921875 318.666992188 83 339.833007812 101 359.5 c 0
 119 379.166992188 139.666992188 396.333007812 163 411 c 0
 172.333007812 417 183.166992188 422.833007812 195.5 428.5 c 0
 207.833007812 434.166992188 220.666992188 439 234 443 c 0
 247.333007812 447 260.5 450.333007812 273.5 453 c 0
 286.5 455.666992188 298.333007812 457 309 457 c 0
 323 457 336.666992188 453.833007812 350 447.5 c 0
 363.333007812 441.166992188 376 434 388 426 c 0
 400 432 412 437.666992188 424 443 c 0
 436 448.333007812 446.333007812 453 455 457 c 0
 474 420 l 0
185 86 m 0
 188.333007812 86 192.833007812 87.3330078125 198.5 90 c 0
 204.166992188 92.6669921875 211 97.5 219 104.5 c 0
 227 111.5 236.333007812 120.833007812 247 132.5 c 0
 257.666992188 144.166992188 269.666992188 159 283 177 c 0
 311 347 l 0
 301.666992188 356.333007812 292.166992188 364.333007812 282.5 371 c 0
 272.833007812 377.666992188 263.666992188 381 255 381 c 0
 241.666992188 381 229.5 378 218.5 372 c 0
 207.5 366 197.666992188 357.833007812 189 347.5 c 0
 180.333007812 337.166992188 172.833007812 325.333007812 166.5 312 c 0
 160.166992188 298.666992188 154.833007812 284.833007812 150.5 270.5 c 0
 146.166992188 256.166992188 143 241.5 141 226.5 c 0
 139 211.5 138 197.666992188 138 185 c 0
 138 167.666992188 139.333007812 152.833007812 142 140.5 c 0
 144.666992188 128.166992188 148.166992188 117.833007812 152.5 109.5 c 0
 156.833007812 101.166992188 161.833007812 95.1669921875 167.5 91.5 c 0
 173.166992188 87.8330078125 179 86 185 86 c 0
EndSplineSet
EndChar

StartChar: r
Encoding: 85 114 85
Width: 425
VWidth: 500
Flags: HW
LayerCount: 2
Fore
SplineSet
456 415 m 0
 453.333007812 411.666992188 449.833007812 406.5 445.5 399.5 c 0
 441.166992188 392.5 436.5 384.666992188 431.5 376 c 0
 426.5 367.333007812 421.333007812 358.5 416 349.5 c 0
 410.666992188 340.5 405.666992188 332.333007812 401 325 c 0
 396.333007812 317.666992188 392 311.666992188 388 307 c 0
 384 302.333007812 381 300 379 300 c 0
 373 300 367.166992188 302 361.5 306 c 0
 355.833007812 310 350 314.5 344 319.5 c 0
 338 324.5 332.5 329 327.5 333 c 0
 322.5 337 317.333007812 339 312 339 c 0
 303.333007812 339 294 335.5 284 328.5 c 0
 274 321.5 264 311.333007812 254 298 c 0
 244 284.666992188 234.333007812 268.666992188 225 250 c 0
 215.666992188 231.333007812 207.666992188 210.333007812 201 187 c 0
 194.333007812 162.333007812 188.833007812 137.666992188 184.5 113 c 0
 180.166992188 88.3330078125 178.333007812 63 179 37 c 0
 173.666992188 35 165 31.1669921875 153 25.5 c 0
 141 19.8330078125 128.5 14 115.5 8 c 0
 102.5 2 90.3330078125 -3.6669921875 79 -9 c 0
 67.6669921875 -14.3330078125 60 -18 56 -20 c 0
 35 0 l 0
 42.3330078125 34.6669921875 49 68.6669921875 55 102 c 0
 61 135.333007812 66.1669921875 166.666992188 70.5 196 c 0
 74.8330078125 225.333007812 78.3330078125 251.666992188 81 275 c 0
 83.6669921875 298.333007812 85 317.333007812 85 332 c 0
 85 339.333007812 84.5 345.166992188 83.5 349.5 c 0
 82.5 353.833007812 81 357.166992188 79 359.5 c 0
 77 361.833007812 74.8330078125 363.333007812 72.5 364 c 0
 70.1669921875 364.666992188 67.6669921875 365 65 365 c 0
 61.6669921875 365 57.5 364.333007812 52.5 363 c 0
 47.5 361.666992188 42.6669921875 360.333007812 38 359 c 0
 32 357.666992188 26 355.666992188 20 353 c 0
 10 391 l 0
 24 397 24 397 41.5 404.5 c 0
 53.1669921875 409.5 65.1669921875 414.333007812 77.5 419 c 0
 96 426 96 426 114.5 433 c 0
 126.833007812 437.666992188 138.5 441.833007812 149.5 445.5 c 0
 160.5 449.166992188 170.166992188 452 178.5 454 c 0
 186.833007812 456 193 457 197 457 c 0
 206.333007812 457 212.666992188 453.833007812 216 447.5 c 0
 219.333007812 441.166992188 221 429 221 411 c 0
 221 407.666992188 220.833007812 403.166992188 220.5 397.5 c 0
 220.166992188 391.833007812 219.666992188 385.833007812 219 379.5 c 0
 218.333007812 373.166992188 217.5 366.666992188 216.5 360 c 0
 215.5 353.333007812 214.666992188 347 214 341 c 0
 229.333007812 364.333007812 243.833007812 383.5 257.5 398.5 c 0
 271.166992188 413.5 283.833007812 425.333007812 295.5 434 c 0
 307.166992188 442.666992188 318.5 448.666992188 329.5 452 c 0
 340.5 455.333007812 351 457 361 457 c 0
 367 457 374 455.333007812 382 452 c 0
 390 448.666992188 398.166992188 444.833007812 406.5 440.5 c 0
 414.833007812 436.166992188 423.333007812 431.5 432 426.5 c 0
 440.666992188 421.5 448.666992188 417.666992188 456 415 c 0
EndSplineSet
EndChar

StartChar: s
Encoding: 86 115 86
Width: 395
VWidth: 500
Flags: HW
LayerCount: 2
Fore
SplineSet
399 412 m 0
 393.666992188 404.666992188 387.5 396.166992188 380.5 386.5 c 0
 373.5 376.833007812 366.333007812 367.666992188 359 359 c 0
 351.666992188 350.333007812 344.666992188 343 338 337 c 0
 331.333007812 331 326.333007812 328 323 328 c 0
 317.666992188 328 311.5 331.5 304.5 338.5 c 0
 294 349 294 349 281 362 c 0
 272.333007812 370.666992188 263 378.5 253 385.5 c 0
 243 392.5 232 396 220 396 c 0
 202 396 189.166992188 392 181.5 384 c 0
 173.833007812 376 170 365 170 351 c 0
 170 343 171.833007812 335.666992188 175.5 329 c 0
 179.166992188 322.333007812 184.5 316 191.5 310 c 0
 198.5 304 207 298 217 292 c 0
 227 286 238.666992188 279.666992188 252 273 c 0
 265.333007812 266.333007812 278.5 258.833007812 291.5 250.5 c 0
 304.5 242.166992188 315.833007812 232.833007812 325.5 222.5 c 0
 335.166992188 212.166992188 343.166992188 200.333007812 349.5 187 c 0
 355.833007812 173.666992188 359 158.333007812 359 141 c 0
 359 126.333007812 355.666992188 112 349 98 c 0
 342.333007812 84 333.333007812 71.1669921875 322 59.5 c 0
 310.666992188 47.8330078125 297.5 37 282.5 27 c 0
 267.5 17 252 8.5 236 1.5 c 0
 220 -5.5 204 -10.8330078125 188 -14.5 c 0
 172 -18.1669921875 157 -20 143 -20 c 0
 120.333007812 -20 99.5 -17.1669921875 80.5 -11.5 c 0
 61.5 -5.8330078125 45.1669921875 1 31.5 9 c 0
 17.8330078125 17 7.1669921875 25.3330078125 -0.5 34 c 0
 -8.1669921875 42.6669921875 -12 50.6669921875 -12 58 c 0
 -12 62.6669921875 -9.5 70.5 -4.5 81.5 c 0
 0.5 92.5 6.3330078125 103.666992188 13 115 c 0
 19.6669921875 126.333007812 26.1669921875 136.333007812 32.5 145 c 0
 38.8330078125 153.666992188 44 158 48 158 c 0
 50.6669921875 158 53.8330078125 155.166992188 57.5 149.5 c 0
 61.1669921875 143.833007812 65.3330078125 137 70 129 c 0
 74.6669921875 121 80 112 86 102 c 0
 92 92 99.1669921875 83 107.5 75 c 0
 115.833007812 67 125.166992188 60.1669921875 135.5 54.5 c 0
 145.833007812 48.8330078125 158 46 172 46 c 0
 192.666992188 46 208.5 51.3330078125 219.5 62 c 0
 230.5 72.6669921875 236 86.6669921875 236 104 c 0
 236 114.666992188 233.166992188 124.666992188 227.5 134 c 0
 221.833007812 143.333007812 214.333007812 152 205 160 c 0
 195.666992188 168 185 175.5 173 182.5 c 0
 161 189.5 149 196.333007812 137 203 c 0
 119.666992188 211.666992188 105.5 220.666992188 94.5 230 c 0
 83.5 239.333007812 74.6669921875 248.833007812 68 258.5 c 0
 61.3330078125 268.166992188 56.6669921875 278 54 288 c 0
 51.3330078125 298 50 308.333007812 50 319 c 0
 50 339.666992188 56.3330078125 358.333007812 69 375 c 0
 81.6669921875 391.666992188 97.6669921875 406.166992188 117 418.5 c 0
 136.333007812 430.833007812 157.5 440.333007812 180.5 447 c 0
 203.5 453.666992188 225.333007812 457 246 457 c 0
 263.333007812 457 279 455 293 451 c 0
 307 447 320.166992188 442.5 332.5 437.5 c 0
 344.833007812 432.5 356.166992188 427.5 366.5 422.5 c 0
 376.833007812 417.5 387.666992188 414 399 412 c 0
EndSplineSet
EndChar

StartChar: t
Encoding: 87 116 87
Width: 348
VWidth: 500
Flags: HW
LayerCount: 2
Fore
SplineSet
337 82 m 0
 318.333007812 67.3330078125 299.666992188 53.6669921875 281 41 c 0
 262.333007812 28.3330078125 244.5 17.5 227.5 8.5 c 0
 210.5 -0.5 195 -7.5 181 -12.5 c 0
 167 -17.5 155 -20 145 -20 c 0
 134.333007812 -20 123.666992188 -17.5 113 -12.5 c 0
 102.333007812 -7.5 92.6669921875 -0.6669921875 84 8 c 0
 75.3330078125 16.6669921875 68.3330078125 27 63 39 c 0
 57.6669921875 51 55 64 55 78 c 0
 55 87 55 87 55 96.5 c 0
 55 102.833007812 55.3330078125 109.333007812 56 116 c 0
 56.6669921875 122.666992188 57.3330078125 129.666992188 58 137 c 0
 58.6669921875 144.333007812 60 152.666992188 62 162 c 0
 96 378 l 0
 31 378 l 0
 19 398 l 0
 81 442 l 0
 106 442 l 0
 109 459 l 0
 111 472.333007812 113 482.5 115 489.5 c 0
 117 496.5 119.333007812 502.166992188 122 506.5 c 0
 124.666992188 510.833007812 127.666992188 514.166992188 131 516.5 c 0
 134.333007812 518.833007812 138.333007812 521.333007812 143 524 c 0
 250 574 l 0
 264 562 l 0
 261.333007812 559.333007812 258.666992188 554 256 546 c 0
 253.333007812 539.333007812 250.666992188 530 248 518 c 0
 245.333007812 506 242.333007812 490 239 470 c 0
 234 442 l 0
 352 442 l 0
 366 423 l 0
 362.666992188 418.333007812 357.833007812 412.666992188 351.5 406 c 0
 345.166992188 399.333007812 338.333007812 392.5 331 385.5 c 0
 323.666992188 378.5 316.833007812 372.333007812 310.5 367 c 0
 304.166992188 361.666992188 299.666992188 358 297 356 c 0
 293 365.333007812 285.166992188 371.333007812 273.5 374 c 0
 261.833007812 376.666992188 246.333007812 378 227 378 c 0
 225 378 l 0
 199 218 l 0
 198.333007812 212 197.5 205.5 196.5 198.5 c 0
 195.5 191.5 194.833007812 184.666992188 194.5 178 c 0
 194.166992188 171.333007812 193.833007812 165.333007812 193.5 160 c 0
 193.166992188 154.666992188 193 150.333007812 193 147 c 0
 193 127 195.833007812 113 201.5 105 c 0
 207.166992188 97 214.666992188 93 224 93 c 0
 235.333007812 93 248.5 95.3330078125 263.5 100 c 0
 278.5 104.666992188 298 112.666992188 322 124 c 0
 337 82 l 0
EndSplineSet
EndChar

StartChar: u
Encoding: 88 117 88
Width: 550
VWidth: 500
Flags: HW
LayerCount: 2
Fore
SplineSet
537 58 m 0
 523.666992188 49.3330078125 510.166992188 40.3330078125 496.5 31 c 0
 482.833007812 21.6669921875 469.5 13.1669921875 456.5 5.5 c 0
 443.5 -2.1669921875 431.166992188 -8.3330078125 419.5 -13 c 0
 407.833007812 -17.6669921875 398 -20 390 -20 c 0
 382.666992188 -20 375 -17.6669921875 367 -13 c 0
 359 -8.3330078125 351.833007812 -1.5 345.5 7.5 c 0
 339.166992188 16.5 333.5 27.8330078125 328.5 41.5 c 0
 323.5 55.1669921875 320 71 318 89 c 0
 305.333007812 73.6669921875 291.833007812 59.1669921875 277.5 45.5 c 0
 263.166992188 31.8330078125 248.333007812 20.3330078125 233 11 c 0
 217.666992188 1.6669921875 202.333007812 -5.8330078125 187 -11.5 c 0
 171.666992188 -17.1669921875 157 -20 143 -20 c 0
 133 -20 122.666992188 -17.5 112 -12.5 c 0
 101.333007812 -7.5 91.5 0 82.5 10 c 0
 73.5 20 66.1669921875 32.5 60.5 47.5 c 0
 54.8330078125 62.5 52 80 52 100 c 0
 52 110 52.6669921875 121.5 54 134.5 c 0
 55.3330078125 147.5 57.1669921875 161.166992188 59.5 175.5 c 0
 61.8330078125 189.833007812 64.3330078125 204.666992188 67 220 c 0
 69.6669921875 235.333007812 72.3330078125 250 75 264 c 0
 77.6669921875 278 79.6669921875 290.833007812 81 302.5 c 0
 82.3330078125 314.166992188 83 324 83 332 c 0
 83 339.333007812 82.5 345.166992188 81.5 349.5 c 0
 80.5 353.833007812 79.1669921875 357.166992188 77.5 359.5 c 0
 75.8330078125 361.833007812 73.6669921875 363.333007812 71 364 c 0
 68.3330078125 364.666992188 65.6669921875 365 63 365 c 0
 60.3330078125 365 56.3330078125 364.333007812 51 363 c 0
 45.6669921875 361.666992188 40.6669921875 360.333007812 36 359 c 0
 30 357.666992188 24 355.666992188 18 353 c 0
 9 391 l 0
 18.3330078125 395 29 399.5 41 404.5 c 0
 53 409.5 65.3330078125 414.333007812 78 419 c 0
 97 426 97 426 116 433 c 0
 128.666992188 437.666992188 140.5 441.833007812 151.5 445.5 c 0
 162.5 449.166992188 172.333007812 452 181 454 c 0
 189.666992188 456 196 457 200 457 c 0
 209.333007812 457 215.666992188 453.833007812 219 447.5 c 0
 222.333007812 441.166992188 224 430.666992188 224 416 c 0
 224 406.666992188 223 394.333007812 221 379 c 0
 219 363.666992188 216.5 347.166992188 213.5 329.5 c 0
 210.5 311.833007812 207.5 293.5 204.5 274.5 c 0
 201.5 255.5 198.5 237 195.5 219 c 0
 192.5 201 190 184.5 188 169.5 c 0
 186 154.5 185 142.333007812 185 133 c 0
 185 119 187.5 108 192.5 100 c 0
 197.5 92 202.333007812 88 207 88 c 0
 217.666992188 88 233 96 253 112 c 0
 273 128 296.333007812 154 323 190 c 0
 325 203.333007812 327.166992188 216.833007812 329.5 230.5 c 0
 331.833007812 244.166992188 334 257.333007812 336 270 c 0
 338 282.666992188 339.833007812 294.333007812 341.5 305 c 0
 343.166992188 315.666992188 344 324.666992188 344 332 c 0
 344 339.333007812 343.5 345.166992188 342.5 349.5 c 0
 341.5 353.833007812 340.166992188 357.166992188 338.5 359.5 c 0
 336.833007812 361.833007812 335 363.333007812 333 364 c 0
 331 364.666992188 328.666992188 365 326 365 c 0
 323.333007812 365 319.666992188 364.333007812 315 363 c 0
 308 361 308 361 301 359 c 0
 295.666992188 357.666992188 290.333007812 355.666992188 285 353 c 0
 275 391 l 0
 284.333007812 395 294.666992188 399.5 306 404.5 c 0
 317.333007812 409.5 329.333007812 414.333007812 342 419 c 0
 354.666992188 423.666992188 367.166992188 428.333007812 379.5 433 c 0
 391.833007812 437.666992188 403.333007812 441.833007812 414 445.5 c 0
 424.666992188 449.166992188 434.333007812 452 443 454 c 0
 451.666992188 456 458 457 462 457 c 0
 471.333007812 457 477.333007812 453.833007812 480 447.5 c 0
 482.666992188 441.166992188 484 430.666992188 484 416 c 0
 484 406.666992188 483.166992188 395.166992188 481.5 381.5 c 0
 479.833007812 367.833007812 478 353.333007812 476 338 c 0
 467 290 l 0
 464.333007812 273.333007812 461.833007812 257 459.5 241 c 0
 457.166992188 225 455.166992188 209.833007812 453.5 195.5 c 0
 451.833007812 181.166992188 451 168.666992188 451 158 c 0
 451 143.333007812 451.5 131 452.5 121 c 0
 453.5 111 455.166992188 103 457.5 97 c 0
 459.833007812 91 462.666992188 86.8330078125 466 84.5 c 0
 469.333007812 82.1669921875 473 81 477 81 c 0
 485.666992188 81 493.333007812 82 500 84 c 0
 506.666992188 86 516 89.6669921875 528 95 c 0
 537 58 l 0
EndSplineSet
EndChar

StartChar: v
Encoding: 89 118 89
Width: 487
VWidth: 500
Flags: HW
LayerCount: 2
Fore
SplineSet
487 416 m 0
 487 405.333007812 483.333007812 391.166992188 476 373.5 c 0
 468.666992188 355.833007812 456.5 331.833007812 439.5 301.5 c 0
 422.5 271.166992188 400.333007812 233.666992188 373 189 c 0
 345.666992188 144.333007812 311.666992188 89.6669921875 271 25 c 0
 267 23 267 23 254 16.5 c 0
 241 10 241 10 226 2.5 c 0
 216 -2.5 206.5 -7.1669921875 197.5 -11.5 c 0
 188.5 -15.8330078125 182.333007812 -18.6669921875 179 -20 c 0
 159 0 l 0
 156.333007812 18 153.333007812 37.1669921875 150 57.5 c 0
 146.666992188 77.8330078125 143.166992188 98.1669921875 139.5 118.5 c 0
 135.833007812 138.833007812 132 158.833007812 128 178.5 c 0
 124 198.166992188 120 216.833007812 116 234.5 c 0
 112 252.166992188 108.166992188 268.333007812 104.5 283 c 0
 100.833007812 297.666992188 97.6669921875 310 95 320 c 0
 92.3330078125 328.666992188 89.5 335.666992188 86.5 341 c 0
 83.5 346.333007812 80.5 350.333007812 77.5 353 c 0
 74.5 355.666992188 71.5 357.5 68.5 358.5 c 0
 65.5 359.5 62.6669921875 360 60 360 c 0
 56.6669921875 360 52.3330078125 359.333007812 47 358 c 0
 39 356 39 356 31 354 c 0
 25 352.666992188 18.6669921875 350.666992188 12 348 c 0
 -2 386 l 0
 12 393.333007812 27.3330078125 401 44 409 c 0
 60.6669921875 417 76.8330078125 424.666992188 92.5 432 c 0
 108.166992188 439.333007812 122.166992188 445.333007812 134.5 450 c 0
 146.833007812 454.666992188 155.666992188 457 161 457 c 0
 170.333007812 457 178.166992188 452.333007812 184.5 443 c 0
 190.833007812 433.666992188 197.666992188 417.666992188 205 395 c 0
 207.666992188 386.333007812 210.833007812 374.5 214.5 359.5 c 0
 218.166992188 344.5 221.833007812 327.833007812 225.5 309.5 c 0
 229.166992188 291.166992188 232.833007812 272.166992188 236.5 252.5 c 0
 240.166992188 232.833007812 243.5 214.5 246.5 197.5 c 0
 249.5 180.5 252 165.666992188 254 153 c 0
 256 140.333007812 257.333007812 132 258 128 c 0
 280 162 297.166992188 191.5 309.5 216.5 c 0
 321.833007812 241.5 331.166992188 262.666992188 337.5 280 c 0
 343.833007812 297.333007812 347.666992188 310.833007812 349 320.5 c 0
 350.333007812 330.166992188 351 336.666992188 351 340 c 0
 351 348.666992188 349 355 345 359 c 0
 341 363 334.666992188 365 326 365 c 0
 320.666992188 365 315.333007812 364.5 310 363.5 c 0
 304.666992188 362.5 298.666992188 360.666992188 292 358 c 0
 280 395 l 0
 290.666992188 401 303.833007812 407.666992188 319.5 415 c 0
 335.166992188 422.333007812 351 429.166992188 367 435.5 c 0
 383 441.833007812 398.333007812 447.166992188 413 451.5 c 0
 427.666992188 455.833007812 438.666992188 457.666992188 446 457 c 0
 451.333007812 457 456.666992188 456.333007812 462 455 c 0
 467.333007812 453.666992188 471.833007812 451.333007812 475.5 448 c 0
 479.166992188 444.666992188 482 440.5 484 435.5 c 0
 486 430.5 487 424 487 416 c 0
EndSplineSet
EndChar

